<?xml version="1.0" standalone="no"?>
<!DOCTYPE svg PUBLIC "-//W3C//DTD SVG 1.1//EN" "http://www.w3.org/Graphics/SVG/1.1/DTD/svg11.dtd" >
<svg xmlns="http://www.w3.org/2000/svg" xmlns:xlink="http://www.w3.org/1999/xlink" version="1.1">
<metadata>
Created by FontForge 20170731 at Fri Feb  9 13:14:34 2018
 By Aleksey,,,
Copyright (c) 2016 TPTQ Arabic. All rights reserved.
</metadata>
<defs>
<font id="SymbioAR-Bold" horiz-adv-x="0" >
  <font-face 
    font-family="Symbio AR"
    font-weight="700"
    font-stretch="normal"
    units-per-em="2048"
    panose-1="2 11 8 3 3 3 3 2 2 4"
    ascent="1622"
    descent="-426"
    bbox="-242 -959 2337 1786"
    underline-thickness="50"
    underline-position="-275"
    unicode-range="U+0020-FEFC"
  />
<missing-glyph horiz-adv-x="1458" 
d="M164 1438h55v-56h-55v56zM317 1438h56v-56h-56v56zM471 1438h55v-56h-55v56zM625 1438h55v-56h-55v56zM778 1438h56v-56h-56v56zM932 1438h55v-56h-55v56zM1085 1438h56v-56h-56v56zM1239 1438h55v-56h-55v56zM164 1284h55v-55h-55v55zM1239 1284h55v-55h-55v55z
M164 1130h55v-55h-55v55zM471 1130h55v-55h-55v55zM625 1130h55v-55h-55v55zM778 1130h56v-55h-56v55zM932 1130h55v-55h-55v55zM1239 1130h55v-55h-55v55zM164 977h55v-55h-55v55zM932 977h55v-55h-55v55zM1239 977h55v-55h-55v55zM164 823h55v-55h-55v55zM625 823h55v-55
h-55v55zM778 823h56v-55h-56v55zM932 823h55v-55h-55v55zM1239 823h55v-55h-55v55zM164 670h55v-56h-55v56zM625 670h55v-56h-55v56zM1239 670h55v-56h-55v56zM164 516h55v-55h-55v55zM1239 516h55v-55h-55v55zM164 362h55v-55h-55v55zM625 362h55v-55h-55v55zM1239 362h55
v-55h-55v55zM164 209h55v-55h-55v55zM1239 209h55v-55h-55v55zM164 55h55v-55h-55v55zM317 55h56v-55h-56v55zM471 55h55v-55h-55v55zM625 55h55v-55h-55v55zM778 55h56v-55h-56v55zM932 55h55v-55h-55v55zM1085 55h56v-55h-56v55zM1239 55h55v-55h-55v55z" />
    <glyph glyph-name="uniFC43" unicode="&#xfedf;&#xfef0;" horiz-adv-x="1319" arabic-form="isolated" 
d="M996 1137l223 9l-5 -620q-2 -249 -16 -390q-88 -45 -197 -73q35 -54 35 -144q0 -196 -142.5 -309.5t-371.5 -113.5q-223 0 -341.5 111t-118.5 301q0 150 69 335h157q-30 -133 -30 -233q0 -130 66.5 -186t207.5 -56q146 0 252.5 47.5t126.5 114.5q-37 40 -127 58t-270 18
l16 206q288 5 475 62l-3 246z" />
    <glyph glyph-name="uniFC86" unicode="&#xfee0;&#xfef0;" horiz-adv-x="1387" arabic-form="final" 
d="M1422 248q13 0 15.5 -17t2.5 -115q0 -95 -3.5 -111.5t-22.5 -16.5q-147 0 -236 46t-115 155q-61 -51 -135 -80q109 -71 109 -226q0 -195 -142.5 -308.5t-370.5 -113.5q-224 0 -342.5 111t-118.5 300q0 150 69 335h157q-30 -143 -30 -232q0 -130 66.5 -186t207.5 -56
q143 0 249.5 46t128.5 112q-61 92 -354 111l8 191q138 27 269 91.5t210 145.5l-9 707l223 9l-7 -761q-1 -80 33 -108.5t138 -28.5z" />
    <glyph glyph-name="uniFDF2" unicode="&#x627;&#xfedf;&#xfee0;&#xfeea;" horiz-adv-x="2171" arabic-form="isolated" 
d="M1097 1443l-121 -29q-8 85 -39 339l163 24q4 -62 4 -209q0 -94 -7 -125zM936 1010q-54 0 -85 44.5t-31 117.5q0 59 16 131l86 31q1 -61 11 -92.5t40 -31.5q17 0 27.5 13.5t10.5 40.5q0 35 -10 87l93 28q8 -136 60 -136q30 0 30 46q0 42 -21 111l102 31q14 -70 14 -143
q0 -64 -12 -113.5t-41 -82t-72 -32.5q-31 0 -57 15.5t-39 40.5h-4q-11 -47 -43 -76.5t-75 -29.5zM1848 1137l223 9l-11 -1148l-200 -14zM1431 254l-7 662l223 9l-5 -522q-3 -221 -23 -355q-50 -25 -136.5 -42.5t-164.5 -17.5q-185 0 -243 104q-89 -104 -273 -104
q-118 0 -185 46.5t-98 143.5q-85 -70 -202 -70q-108 0 -178.5 65t-70.5 173q0 88 44 163t132 123q97 53 209 67l-12 131l216 14q2 -381 11 -474q8 -74 39.5 -99.5t100.5 -25.5q83 0 133 26q-1 28 -1 86l-7 559l223 9l-6 -584q0 -22 -4 -64q66 -32 168 -32q58 0 117 9z
M369 303q64 0 124 23q-13 75 -20 181q-56 -4 -96 -10.5t-76 -18.5t-54.5 -33t-18.5 -50q0 -41 37.5 -66.5t103.5 -25.5z" />
    <glyph glyph-name="uniFEF5" unicode="&#xfedf;&#xfe82;" horiz-adv-x="903" arabic-form="isolated" 
d="M47 1204q-28 0 -41.5 -14t-24.5 -44l-82 33q20 168 148 168q22 0 73 -8.5t87 -8.5q75 0 96 39l72 -39q-21 -73 -65.5 -106t-115.5 -33q-27 0 -80 6.5t-67 6.5zM734 543q114 -140 114 -278q0 -115 -50 -224q-142 -81 -364 -81q-152 0 -301 45q-26 95 -32 215
q248 129 394 281q-203 194 -508 428l142 175q247 -198 448 -394q0 41 -1 60l-14 390l223 9l-7 -369q-4 -164 -44 -257zM420 204q40 -4 63 -4q120 0 216 22q-17 68 -85 153q-87 -90 -194 -167v-4z" />
    <glyph glyph-name="uniFEF6" unicode="&#xfee0;&#xfe82;" horiz-adv-x="1005" arabic-form="final" 
d="M100 1175q-28 0 -41.5 -14t-24.5 -44l-82 33q20 168 148 168q22 0 73 -8.5t87 -8.5q75 0 96 39l72 -39q-21 -73 -65.5 -106t-115.5 -33q-27 0 -80 6.5t-67 6.5zM1040 248q13 0 15.5 -17t2.5 -115q0 -95 -3.5 -111.5t-22.5 -16.5q-178 0 -264 89q-113 -116 -384 -116
q-162 0 -254 37l-31 255q154 -20 275 -24q-8 116 -120 311q-102 180 -263 397l190 129q153 -217 240 -387q74 -138 106 -237t32 -193v-15q69 11 90.5 47.5t19.5 120.5l-10 735l223 9l-7 -752q-2 -75 -9 -116q65 -30 174 -30z" />
    <glyph glyph-name="uniFEF7" unicode="&#xfedf;&#xfe84;" horiz-adv-x="903" arabic-form="isolated" 
d="M343 1378v-130q-236 -57 -408 -111v118l86 32v2q-62 42 -62 112q0 80 63.5 147t154.5 67q59 0 103 -40l-4 -121q-31 8 -87 8q-113 0 -113 -48q0 -52 130 -70q52 15 137 34zM734 543q114 -140 114 -278q0 -115 -50 -224q-142 -81 -364 -81q-152 0 -301 45q-26 95 -32 215
q248 129 394 281q-203 194 -508 428l142 175q247 -198 448 -394q0 41 -1 60l-14 390l223 9l-7 -369q-4 -164 -44 -257zM420 204q40 -4 63 -4q120 0 216 22q-17 68 -85 153q-87 -90 -194 -167v-4z" />
    <glyph glyph-name="uniFEF8" unicode="&#xfee0;&#xfe84;" horiz-adv-x="1005" arabic-form="final" 
d="M396 1349v-130q-236 -57 -408 -111v118l86 32v2q-62 42 -62 112q0 80 63.5 147t154.5 67q59 0 103 -40l-4 -121q-31 8 -87 8q-113 0 -113 -48q0 -52 130 -70q52 15 137 34zM1040 248q13 0 15.5 -17t2.5 -115q0 -95 -3.5 -111.5t-22.5 -16.5q-178 0 -264 89
q-113 -116 -384 -116q-162 0 -254 37l-31 255q154 -20 275 -24q-8 116 -120 311q-102 180 -263 397l190 129q153 -217 240 -387q74 -138 106 -237t32 -193v-15q69 11 90.5 47.5t19.5 120.5l-10 735l223 9l-7 -752q-2 -75 -9 -116q65 -30 174 -30z" />
    <glyph glyph-name="uniFEF9" unicode="&#xfedf;&#xfe88;" horiz-adv-x="903" arabic-form="isolated" 
d="M734 543q114 -140 114 -278q0 -115 -50 -224q-142 -81 -364 -81q-152 0 -301 45q-26 95 -32 215q248 129 394 281q-203 194 -508 428l142 175q247 -198 448 -394q0 41 -1 60l-14 390l223 9l-7 -369q-4 -164 -44 -257zM420 204q40 -4 63 -4q120 0 216 22q-17 68 -85 153
q-87 -90 -194 -167v-4zM196 -329q0 -52 130 -70q52 15 137 34v-130q-236 -57 -408 -111v118l86 32v2q-62 42 -62 112q0 80 63.5 147t154.5 67q59 0 103 -40l-4 -121q-31 8 -87 8q-113 0 -113 -48z" />
    <glyph glyph-name="uniFEFA" unicode="&#xfee0;&#xfe88;" horiz-adv-x="1005" arabic-form="final" 
d="M1040 248q13 0 15.5 -17t2.5 -115q0 -95 -3.5 -111.5t-22.5 -16.5q-178 0 -264 89q-113 -116 -384 -116q-162 0 -254 37l-31 255q154 -20 275 -24q-8 116 -120 311q-102 180 -263 397l190 129q153 -217 240 -387q74 -138 106 -237t32 -193v-15q69 11 90.5 47.5
t19.5 120.5l-10 735l223 9l-7 -752q-2 -75 -9 -116q65 -30 174 -30zM190 -329q0 -52 130 -70q52 15 137 34v-130q-236 -57 -408 -111v118l86 32v2q-62 42 -62 112q0 80 63.5 147t154.5 67q59 0 103 -40l-4 -121q-31 8 -87 8q-113 0 -113 -48z" />
    <glyph glyph-name="uniFEFB" unicode="&#xfedf;&#xfe8e;" horiz-adv-x="903" arabic-form="isolated" 
d="M734 543q114 -140 114 -278q0 -115 -50 -224q-142 -81 -364 -81q-152 0 -301 45q-26 95 -32 215q248 129 394 281q-203 194 -508 428l142 175q247 -198 448 -394q0 41 -1 60l-14 390l223 9l-7 -369q-4 -164 -44 -257zM420 204q40 -4 63 -4q120 0 216 22q-17 68 -85 153
q-87 -90 -194 -167v-4z" />
    <glyph glyph-name="uniFEFC" unicode="&#xfee0;&#xfe8e;" horiz-adv-x="1005" arabic-form="final" 
d="M1040 248q13 0 15.5 -17t2.5 -115q0 -95 -3.5 -111.5t-22.5 -16.5q-178 0 -264 89q-113 -116 -384 -116q-162 0 -254 37l-31 255q154 -20 275 -24q-8 116 -120 311q-102 180 -263 397l190 129q153 -217 240 -387q74 -138 106 -237t32 -193v-15q69 11 90.5 47.5
t19.5 120.5l-10 735l223 9l-7 -752q-2 -75 -9 -116q65 -30 174 -30z" />
    <glyph glyph-name="uni06440671" unicode="&#xfedf;&#xfb51;" horiz-adv-x="903" 
d="M372 1356q0 -87 -46.5 -131t-126.5 -44q-49 0 -121 21t-103 21q-60 0 -98 -48l-35 94q51 95 137 95q18 0 36 -3q89 168 211 168q64 0 105 -46t41 -127zM202 1394q-62 0 -109 -53q78 -24 125 -24q41 0 68 12q-3 29 -24 47t-60 18zM734 543q114 -140 114 -278
q0 -115 -50 -224q-142 -81 -364 -81q-152 0 -301 45q-26 95 -32 215q248 129 394 281q-203 194 -508 428l142 175q247 -198 448 -394q0 41 -1 60l-14 390l223 9l-7 -369q-4 -164 -44 -257zM420 204q40 -4 63 -4q120 0 216 22q-17 68 -85 153q-87 -90 -194 -167v-4z" />
    <glyph glyph-name="uni06440671.fina" unicode="&#xfee0;&#xfb51;" horiz-adv-x="1005" 
d="M252 1152q-48 0 -121 21t-103 21q-60 0 -98 -48l-35 94q51 95 137 95q18 0 36 -3q89 168 211 168q64 0 105 -46t41 -127q0 -87 -46.5 -131t-126.5 -44zM255 1365q-62 0 -109 -53q78 -24 125 -24q41 0 68 12q-3 29 -24 47t-60 18zM1040 248q13 0 15.5 -17t2.5 -115
q0 -95 -3.5 -111.5t-22.5 -16.5q-178 0 -264 89q-113 -116 -384 -116q-162 0 -254 37l-31 255q154 -20 275 -24q-8 116 -120 311q-102 180 -263 397l190 129q153 -217 240 -387q74 -138 106 -237t32 -193v-15q69 11 90.5 47.5t19.5 120.5l-10 735l223 9l-7 -752
q-2 -75 -9 -116q65 -30 174 -30z" />
    <glyph glyph-name="uni066E.init" unicode="&#x66e;" horiz-adv-x="472" 
d="M364 658q19 -178 19 -309q0 -166 -43 -297q-109 -64 -313 -64q-14 0 -16.5 17t-2.5 115q0 95 3.5 111.5t23.5 16.5q93 0 168 13q-13 140 -65 382z" />
    <glyph glyph-name="uni066E.medi" unicode="&#x66e;" horiz-adv-x="525" 
d="M560 248q13 0 15.5 -17t2.5 -115q0 -95 -3.5 -111.5t-22.5 -16.5q-106 0 -173 27.5t-94 72.5q-80 -100 -258 -100q-14 0 -16.5 17t-2.5 115q0 95 3.5 111.5t23.5 16.5q91 0 138 25q24 108 31 266l178 -11q0 -145 -17 -250q73 -30 195 -30z" />
    <glyph glyph-name="uni066E.fina" unicode="&#x66e;" horiz-adv-x="1473" 
d="M1508 248q13 0 15.5 -17t2.5 -115q0 -95 -3.5 -111.5t-23.5 -16.5q-166 0 -237 71q-104 -65 -269.5 -101t-342.5 -36q-589 0 -589 392q0 118 50 234h156q-14 -70 -14 -130q0 -122 104.5 -174t314.5 -52q262 0 461 69q12 122 14 280l178 -3q2 -144 -4 -254q65 -36 187 -36
z" />
    <glyph glyph-name="uni066F.fina" unicode="&#x66f;" horiz-adv-x="1136" 
d="M1171 248q13 0 15.5 -17t2.5 -115q0 -95 -3.5 -111.5t-22.5 -16.5q-77 0 -147 3q-12 -144 -58 -223q-58 -103 -184 -158t-282 -55q-214 0 -330.5 113.5t-116.5 294.5q0 138 68 297h155q-27 -112 -27 -196q0 -242 277 -242q196 0 342 88q3 28 7 84h-85q-197 0 -287 71
t-90 216q0 99 36 186t108 143.5t165 56.5q135 0 213 -112t92 -306q53 -1 152 -1zM556 334q0 -31 18.5 -51t56 -29.5t79 -13t103.5 -3.5q33 0 48 1q-17 93 -62 147t-118 54q-55 0 -90 -30t-35 -75z" />
    <glyph glyph-name="uni06A1.init" unicode="&#x6a1;" horiz-adv-x="803" 
d="M424 971q149 0 226.5 -132t77.5 -350q0 -102 -17 -220.5t-46 -209.5q-210 -71 -638 -71q-14 0 -16.5 17t-2.5 115q0 95 3.5 111.5t23.5 16.5q357 0 534 20q4 41 5 77q-71 -17 -153 -17q-148 0 -226 67t-78 198q0 96 36 181.5t108 141t163 55.5zM267 644q0 -101 232 -101
q37 0 68 3q-16 93 -60.5 146t-116.5 53q-54 0 -88.5 -29t-34.5 -72z" />
    <glyph glyph-name="uni06A1.medi" unicode="&#x6a1;" horiz-adv-x="875" 
d="M910 248q14 0 16.5 -17t2.5 -115q0 -95 -3.5 -111.5t-23.5 -16.5q-293 0 -458 103q-79 -48 -195 -75.5t-222 -27.5q-14 0 -16.5 17t-2.5 115q0 95 3.5 111.5t23.5 16.5q103 0 197 12v2q-77 77 -77 197q0 141 100 248.5t232 107.5q114 0 191 -86.5t77 -216.5
q0 -147 -88 -243v-2q117 -19 243 -19zM477 321q60 26 87 54.5t27 65.5q0 61 -50 104t-109 43q-47 0 -84 -32.5t-37 -75.5q0 -78 166 -159z" />
    <glyph glyph-name="uni06A1.fina" unicode="&#x6a1;" horiz-adv-x="1667" 
d="M1702 248q13 0 15.5 -17t2.5 -115q0 -95 -3.5 -111.5t-23.5 -16.5q-257 0 -406 95q-107 -73 -274 -117t-359 -44q-292 0 -442.5 103t-150.5 296q0 111 50 227h156q-14 -63 -14 -131q0 -127 104 -176t328 -49q210 0 376 40v2q-114 84 -114 225q0 140 101.5 248t231.5 108
q114 0 189.5 -86.5t75.5 -216.5q0 -148 -87 -243v-2q122 -19 244 -19zM1269 321q115 50 115 120q0 60 -51 103.5t-108 43.5q-50 0 -86 -32.5t-36 -75.5q0 -78 166 -159z" />
    <glyph glyph-name="uni06C2.fina" unicode="&#x6c2;" horiz-adv-x="852" 
d="M743 1355v-130q-236 -57 -408 -111v118l86 32v2q-62 42 -62 112q0 80 63.5 147t154.5 67q59 0 103 -40l-4 -121q-31 8 -87 8q-113 0 -113 -48q0 -52 130 -70q52 15 137 34zM887 248q13 0 15.5 -17t2.5 -115q0 -95 -3.5 -111.5t-22.5 -16.5q-148 0 -224 52.5t-105 150.5
q-102 -63 -207 -63q-121 0 -198 72t-77 194q0 94 48.5 175.5t145.5 138.5q86 50 224 78l-10 141l213 13q0 -449 8 -545q9 -92 47.5 -119.5t142.5 -27.5zM401 340q70 0 119 19q-11 114 -19 219q-124 -9 -193.5 -39.5t-69.5 -95.5q0 -47 43 -75t120 -28z" />
    <glyph glyph-name="uni06C3.fina" unicode="&#x6c3;" horiz-adv-x="938" 
d="M386 691q-67 64 -141 150q76 74 148 142q63 -61 120 -126q71 75 135 130q97 -99 140 -151q-53 -58 -147 -142q-90 88 -122 124q-72 -76 -133 -127zM973 248q13 0 15.5 -17t2.5 -115q0 -95 -3.5 -111.5t-23.5 -16.5q-55 0 -96 4.5t-75 18.5t-56 27t-48.5 42.5t-43 51.5
t-47.5 67q-32 46 -51 61.5t-56 15.5q-56 0 -154.5 -36.5t-281.5 -124.5l11 230q161 96 268.5 145t179.5 49q53 0 84.5 -27.5t77.5 -98.5q38 -56 61 -84t57 -48.5t73 -26.5t106 -6z" />
    <glyph glyph-name="uniFB51" unicode="&#x671;" horiz-adv-x="446" arabic-form="final" 
d="M421 1437q0 -87 -46.5 -131t-126.5 -44q-48 0 -121 21t-103 21q-60 0 -98 -48l-35 94q51 95 137 95q18 0 36 -3q89 168 211 168q64 0 105 -46t41 -127zM251 1475q-62 0 -109 -53q78 -24 125 -24q41 0 68 12q-3 29 -24 47t-60 18zM481 248q14 0 16.5 -17t2.5 -115
q0 -95 -3.5 -111.5t-23.5 -16.5q-71 0 -123.5 7t-100 26t-77 51t-47 84t-18.5 123l-11 858l223 9l-7 -773q0 -74 32.5 -99.5t136.5 -25.5z" />
    <glyph glyph-name="uniFB57" unicode="&#x67e;" horiz-adv-x="1473" arabic-form="final" 
d="M1508 248q13 0 15.5 -17t2.5 -115q0 -95 -3.5 -111.5t-23.5 -16.5q-166 0 -237 71q-104 -65 -269.5 -101t-342.5 -36q-589 0 -589 392q0 118 50 234h156q-14 -70 -14 -130q0 -122 104.5 -174t314.5 -52q262 0 461 69q12 122 14 280l178 -3q2 -144 -4 -254q65 -36 187 -36
zM844 -228q57 -54 143 -143q-82 -85 -143 -140q-55 49 -121 119q-44 -46 -128 -126q-61 55 -141 140q60 70 141 144q67 -65 121 -122q76 80 128 128zM727 -481q76 -72 132 -134q-48 -55 -132 -135q-66 59 -136 135q63 67 136 134z" />
    <glyph glyph-name="uniFB58" unicode="&#x67e;" horiz-adv-x="472" arabic-form="initial" 
d="M27 -12q-14 0 -16.5 17t-2.5 115q0 95 3.5 111.5t23.5 16.5q93 0 168 13q-13 140 -65 382l226 15q19 -178 19 -309q0 -166 -43 -297q-109 -64 -313 -64zM303 -159q57 -54 143 -143q-82 -85 -143 -140q-55 49 -121 119q-44 -46 -128 -126q-61 55 -141 140q60 70 141 144
q67 -65 121 -122q76 80 128 128zM186 -412q76 -72 132 -134q-48 -55 -132 -135q-66 59 -136 135q63 67 136 134z" />
    <glyph glyph-name="uniFB59" unicode="&#x67e;" horiz-adv-x="525" arabic-form="medial" 
d="M560 248q13 0 15.5 -17t2.5 -115q0 -95 -3.5 -111.5t-22.5 -16.5q-106 0 -173 27.5t-94 72.5q-80 -100 -258 -100q-14 0 -16.5 17t-2.5 115q0 95 3.5 111.5t23.5 16.5q91 0 138 25q24 108 31 266l178 -11q0 -145 -17 -250q73 -30 195 -30zM386 -159q57 -54 143 -143
q-82 -85 -143 -140q-55 49 -121 119q-44 -46 -128 -126q-61 55 -141 140q60 70 141 144q67 -65 121 -122q76 80 128 128zM269 -412q76 -72 132 -134q-48 -55 -132 -135q-66 59 -136 135q63 67 136 134z" />
    <glyph glyph-name="uniFB67" unicode="&#x679;" horiz-adv-x="1473" arabic-form="final" 
d="M429 991q57 -7 145 -12l-25 314l115 9l1 -137q0 -44 -6 -74l2 -1q58 61 133 61q70 0 108.5 -43t38.5 -110q0 -52 -25 -106q-33 -18 -103 -29t-142 -11q-137 0 -226 29zM778 1042q-79 0 -132 -65h30q115 0 201 14q-25 51 -99 51zM1508 248q13 0 15.5 -17t2.5 -115
q0 -95 -3.5 -111.5t-23.5 -16.5q-166 0 -237 71q-104 -65 -269.5 -101t-342.5 -36q-589 0 -589 392q0 118 50 234h156q-14 -70 -14 -130q0 -122 104.5 -174t314.5 -52q262 0 461 69q12 122 14 280l178 -3q2 -144 -4 -254q65 -36 187 -36z" />
    <glyph glyph-name="uniFB68" unicode="&#x679;" horiz-adv-x="472" arabic-form="initial" 
d="M321 1306q70 0 108.5 -43t38.5 -110q0 -52 -25 -106q-33 -18 -103 -29t-142 -11q-137 0 -226 29l-16 110q57 -7 145 -12l-25 314l115 9l1 -137q0 -44 -6 -74l2 -1q58 61 133 61zM173 1132h30q115 0 201 14q-26 51 -99 51q-79 0 -132 -65zM138 643l226 15q19 -178 19 -309
q0 -166 -43 -297q-109 -64 -313 -64q-14 0 -16.5 17t-2.5 115q0 95 3.5 111.5t23.5 16.5q93 0 168 13q-13 140 -65 382z" />
    <glyph glyph-name="uniFB69" unicode="&#x679;" horiz-adv-x="525" arabic-form="medial" 
d="M12 996q57 -7 145 -12l-25 314l115 9l1 -137q0 -44 -6 -74l2 -1q58 61 133 61q70 0 108.5 -43t38.5 -110q0 -52 -25 -106q-33 -18 -103 -29t-142 -11q-137 0 -226 29zM361 1047q-79 0 -132 -65h30q115 0 201 14q-26 51 -99 51zM560 248q13 0 15.5 -17t2.5 -115
q0 -95 -3.5 -111.5t-22.5 -16.5q-106 0 -173 27.5t-94 72.5q-80 -100 -258 -100q-14 0 -16.5 17t-2.5 115q0 95 3.5 111.5t23.5 16.5q91 0 138 25q24 108 31 266l178 -11q0 -145 -17 -250q73 -30 195 -30z" />
    <glyph glyph-name="uniFB6B" unicode="&#x6a4;" horiz-adv-x="1667" arabic-form="final" 
d="M1248 1214q-76 72 -132 134q48 55 132 135q66 -59 136 -135q-63 -67 -136 -134zM1131 961q-57 54 -143 143q82 85 143 140q55 -49 121 -119q44 46 128 126q61 -55 141 -140q-60 -70 -141 -144q-67 65 -121 122q-76 -80 -128 -128zM1702 248q13 0 15.5 -17t2.5 -115
q0 -95 -3.5 -111.5t-23.5 -16.5q-257 0 -406 95q-107 -73 -274 -117t-359 -44q-292 0 -442.5 103t-150.5 296q0 111 50 227h156q-14 -63 -14 -131q0 -127 104 -176t328 -49q210 0 376 40v2q-114 84 -114 225q0 140 101.5 248t231.5 108q114 0 189.5 -86.5t75.5 -216.5
q0 -148 -87 -243v-2q122 -19 244 -19zM1269 321q115 50 115 120q0 60 -51 103.5t-108 43.5q-50 0 -86 -32.5t-36 -75.5q0 -78 166 -159z" />
    <glyph glyph-name="uniFB6C" unicode="&#x6a4;" horiz-adv-x="803" arabic-form="initial" 
d="M387 1351q-76 72 -132 134q48 55 132 135q66 -59 136 -135q-63 -67 -136 -134zM270 1098q-57 54 -143 143q82 85 143 140q55 -49 121 -119q44 46 128 126q61 -55 141 -140q-60 -70 -141 -144q-67 65 -121 122q-76 -80 -128 -128zM424 971q149 0 226.5 -132t77.5 -350
q0 -102 -17 -220.5t-46 -209.5q-210 -71 -638 -71q-14 0 -16.5 17t-2.5 115q0 95 3.5 111.5t23.5 16.5q357 0 534 20q4 41 5 77q-71 -17 -153 -17q-148 0 -226 67t-78 198q0 96 36 181.5t108 141t163 55.5zM267 644q0 -101 232 -101q37 0 68 3q-16 93 -60.5 146t-116.5 53
q-54 0 -88.5 -29t-34.5 -72z" />
    <glyph glyph-name="uniFB6D" unicode="&#x6a4;" horiz-adv-x="875" arabic-form="medial" 
d="M442 1212q-76 72 -132 134q48 55 132 135q66 -59 136 -135q-63 -67 -136 -134zM325 959q-57 54 -143 143q82 85 143 140q55 -49 121 -119q44 46 128 126q61 -55 141 -140q-60 -70 -141 -144q-67 65 -121 122q-76 -80 -128 -128zM910 248q14 0 16.5 -17t2.5 -115
q0 -95 -3.5 -111.5t-23.5 -16.5q-293 0 -458 103q-79 -48 -195 -75.5t-222 -27.5q-14 0 -16.5 17t-2.5 115q0 95 3.5 111.5t23.5 16.5q103 0 197 12v2q-77 77 -77 197q0 141 100 248.5t232 107.5q114 0 191 -86.5t77 -216.5q0 -147 -88 -243v-2q117 -19 243 -19zM477 321
q60 26 87 54.5t27 65.5q0 61 -50 104t-109 43q-47 0 -84 -32.5t-37 -75.5q0 -78 166 -159z" />
    <glyph glyph-name="uniFB7B" unicode="&#x686;" horiz-adv-x="1181" arabic-form="final" 
d="M1216 248q13 0 15.5 -17t2.5 -115q0 -95 -3.5 -111.5t-22.5 -16.5q-230 0 -344 58t-131 208q-106 -29 -187 -62t-149 -76t-104 -98.5t-36 -121.5q0 -119 117 -186.5t331 -67.5q169 0 336 37l10 -204q-70 -42 -180.5 -70.5t-237.5 -28.5q-265 0 -420 126.5t-155 323.5
q0 195 146.5 347t389.5 230v4q-20 5 -48 13q-98 26 -165 26q-87 0 -142.5 -18t-122.5 -58l-1 193q89 118 253 118q82 0 171 -27.5t245 -95.5q117 -52 257 -55l-4 -198h-31q-41 0 -100 -8q18 -29 84 -39t226 -10zM710 124q52 -47 127 -122q-71 -71 -127 -119q-14 12 -108 101
q-46 -47 -113 -107q-55 48 -125 119q51 57 125 123q53 -48 107 -104q75 75 114 109zM606 -91q71 -65 117 -114q-38 -42 -117 -115q-55 47 -120 115q59 61 120 114z" />
    <glyph glyph-name="uniFB7C" unicode="&#x686;" horiz-adv-x="1182" arabic-form="initial" 
d="M790 577q159 -65 295 -69l-4 -224q-117 -25 -213 -61t-224 -100q-140 -69 -286.5 -102t-330.5 -33q-14 0 -16.5 17t-2.5 115q0 95 3.5 111.5t23.5 16.5q351 4 550 85q105 42 133 50v4q-17 4 -33.5 8t-36 9.5t-31.5 8.5q-142 35 -204 35q-73 0 -126.5 -13.5t-128.5 -45.5
l-2 181q94 116 253 116q73 0 150 -23.5t231 -85.5zM661 -117q57 -54 143 -143q-82 -85 -143 -140q-55 49 -121 119q-44 -46 -128 -126q-61 55 -141 140q60 70 141 144q67 -65 121 -122q76 80 128 128zM544 -370q76 -72 132 -134q-48 -55 -132 -135q-66 59 -136 135
q63 67 136 134z" />
    <glyph glyph-name="uniFB7D" unicode="&#x686;" horiz-adv-x="1219" arabic-form="medial" 
d="M1253 248q14 0 16.5 -17t2.5 -115q0 -95 -3.5 -111.5t-23.5 -16.5q-213 0 -325.5 49t-140.5 173q-116 -69 -140 -82q-133 -72 -280 -106t-332 -34q-14 0 -16.5 17t-2.5 115q0 95 3.5 111.5t23.5 16.5q335 4 556 98q70 31 117 47v5q-42 8 -87 20q-123 30 -208 30
q-73 0 -126.5 -13.5t-128.5 -45.5l-2 181q94 116 253 116q81 0 166 -23t235 -77q150 -55 275 -59l-12 -205q-84 -9 -144 -32v-3q47 -39 324 -39zM722 -67q57 -54 143 -143q-82 -85 -143 -140q-55 49 -121 119q-44 -46 -128 -126q-61 55 -141 140q60 70 141 144
q67 -65 121 -122q76 80 128 128zM605 -320q76 -72 132 -134q-48 -55 -132 -135q-66 59 -136 135q63 67 136 134z" />
    <glyph glyph-name="uniFB89" unicode="&#x688;" horiz-adv-x="917" arabic-form="final" 
d="M106 1234q57 -7 145 -12l-25 314l115 9l1 -137q0 -44 -6 -74l2 -1q58 61 133 61q70 0 108.5 -43t38.5 -110q0 -52 -25 -106q-33 -18 -103 -29t-142 -11q-137 0 -226 29zM455 1285q-79 0 -132 -65h30q115 0 201 14q-26 51 -99 51zM952 248q13 0 15.5 -17t2.5 -115
q0 -95 -3.5 -111.5t-22.5 -16.5q-109 0 -175 28t-118 94q-55 -62 -143.5 -94t-190.5 -32q-178 0 -248 84l13 218q99 -39 236 -39q131 0 231 33q-80 159 -179 435l180 118q84 -272 182 -458q38 -72 80.5 -99.5t139.5 -27.5z" />
    <glyph glyph-name="uniFB8B" unicode="&#x698;" horiz-adv-x="662" arabic-form="final" 
d="M308 917q-76 72 -132 134q48 55 132 135q66 -59 136 -135q-63 -67 -136 -134zM191 664q-57 54 -143 143q82 85 143 140q55 -49 121 -119q44 46 128 126q61 -55 141 -140q-60 -70 -141 -144q-67 65 -121 122q-76 -80 -128 -128zM697 248q13 0 15.5 -17t2.5 -115
q0 -95 -3.5 -111.5t-22.5 -16.5q-126 0 -187 54q-66 -309 -430 -488l-144 204q231 108 322 195t91 192q0 63 -22.5 143.5t-71.5 214.5l230 34q31 -150 37 -260q61 -29 183 -29z" />
    <glyph glyph-name="uniFB8D" unicode="&#x691;" horiz-adv-x="662" arabic-form="final" 
d="M37 999q57 -7 145 -12l-25 314l115 9l1 -137q0 -44 -6 -74l2 -1q58 61 133 61q70 0 108.5 -43t38.5 -110q0 -52 -25 -106q-33 -18 -103 -29t-142 -11q-137 0 -226 29zM386 1050q-79 0 -132 -65h30q115 0 201 14q-25 51 -99 51zM697 248q13 0 15.5 -17t2.5 -115
q0 -95 -3.5 -111.5t-22.5 -16.5q-126 0 -187 54q-66 -309 -430 -488l-144 204q231 108 322 195t91 192q0 63 -22.5 143.5t-71.5 214.5l230 34q31 -150 37 -260q61 -29 183 -29z" />
    <glyph glyph-name="uniFB8F" unicode="&#x6a9;" horiz-adv-x="1585" arabic-form="final" 
d="M1620 248q13 0 15.5 -17t2.5 -115q0 -95 -3.5 -111.5t-23.5 -16.5q-105 0 -177.5 26t-133.5 81q-90 -85 -247.5 -129t-347.5 -44q-325 0 -477.5 101.5t-152.5 297.5q0 107 55 227h154q-17 -64 -17 -130q0 -127 112.5 -176.5t350.5 -49.5q287 0 428 71q-100 136 -179 214
t-212 161v207l758 359l-2 -258l-524 -203v-3q80 -61 145.5 -131t146.5 -174q62 -77 100.5 -112.5t92.5 -55t136 -19.5z" />
    <glyph glyph-name="uniFB90" unicode="&#x6a9;" horiz-adv-x="868" arabic-form="initial" 
d="M805 946l-478 -186v-3q174 -61 283.5 -186t109.5 -286q0 -112 -51 -233q-137 -35 -285.5 -49.5t-356.5 -14.5q-13 0 -15.5 17t-2.5 115q0 95 3.5 111.5t23.5 16.5q345 0 517 29q-37 88 -116.5 162t-177.5 122t-210 77v207l758 359z" />
    <glyph glyph-name="uniFB91" unicode="&#x6a9;" horiz-adv-x="890" arabic-form="medial" 
d="M925 248q14 0 16.5 -17t2.5 -115q0 -95 -3.5 -111.5t-23.5 -16.5q-147 0 -235 45.5t-172 149.5q-45 -96 -159.5 -145.5t-323.5 -49.5q-14 0 -16.5 17t-2.5 115q0 95 3.5 111.5t23.5 16.5q136 0 223.5 17t138.5 67q-78 100 -154.5 170.5t-182.5 135.5v207l757 359l-2 -258
l-525 -204v-4q79 -59 144 -129t160 -190q52 -66 88.5 -98.5t95.5 -52.5t147 -20z" />
    <glyph glyph-name="uniFB93" unicode="&#x6af;" horiz-adv-x="1582" arabic-form="final" 
d="M1440 1382v-162l-642 -304v145zM1617 248q14 0 16.5 -17t2.5 -115q0 -95 -3.5 -111.5t-23.5 -16.5q-112 0 -187 26t-137 82q-89 -86 -247 -130t-348 -44q-326 0 -477.5 101.5t-151.5 297.5q0 109 54 227h155q-17 -70 -17 -131q0 -127 112 -176t352 -49q266 0 422 73
q-172 227 -387 335v210l756 357l-2 -255l-509 -199v-2q77 -51 139.5 -115t137.5 -161q63 -78 101 -113t95.5 -54.5t146.5 -19.5z" />
    <glyph glyph-name="uniFB94" unicode="&#x6af;" horiz-adv-x="862" arabic-form="initial" 
d="M736 1382v-162l-640 -304v145zM804 912l-475 -185v-3q173 -59 281 -175.5t108 -266.5q0 -111 -50 -230q-137 -35 -285.5 -49.5t-355.5 -14.5q-13 0 -15.5 17t-2.5 115q0 95 3.5 111.5t23.5 16.5q338 0 510 28q-57 117 -193.5 201.5t-304.5 122.5v210l757 357z" />
    <glyph glyph-name="uniFB95" unicode="&#x6af;" horiz-adv-x="890" arabic-form="medial" 
d="M746 1383v-163l-640 -304v145zM925 248q14 0 16.5 -17t2.5 -115q0 -95 -3.5 -111.5t-23.5 -16.5q-147 0 -233.5 45.5t-173.5 150.5q-44 -97 -158.5 -146.5t-324.5 -49.5q-14 0 -16.5 17t-2.5 115q0 95 3.5 111.5t23.5 16.5q134 0 221.5 17t138.5 65q-80 95 -154.5 153
t-180.5 117v210l757 357l-2 -255l-510 -199v-2q77 -53 142 -118.5t135 -157.5q44 -56 69.5 -83t65.5 -55t89 -38.5t119 -10.5z" />
    <glyph glyph-name="uniFB9F" unicode="&#x6ba;" horiz-adv-x="1079" arabic-form="final" 
d="M1114 248q13 0 15.5 -17t2.5 -115q0 -95 -3.5 -111.5t-22.5 -16.5q-96 0 -158 27v-5q0 -110 -56 -198q-54 -85 -165 -135t-245 -50q-204 0 -315.5 113.5t-111.5 293.5q0 145 68 302h157q-29 -114 -29 -200q0 -130 66 -184.5t188 -54.5q91 0 171 25.5t128 65.5
q-28 180 -133 518l224 27q24 -134 36 -248q68 -37 183 -37z" />
    <glyph glyph-name="uniFBA7" unicode="&#x6c1;" horiz-adv-x="938" arabic-form="final" 
d="M964 -12q-55 0 -96 4.5t-75 18.5t-56 27t-48.5 42.5t-43 51.5t-47.5 67q-32 46 -51 61.5t-56 15.5q-56 0 -154.5 -36.5t-281.5 -124.5l11 230q161 96 268.5 145t179.5 49q53 0 84.5 -27.5t77.5 -98.5q38 -56 61 -84t57 -48.5t73 -26.5t106 -6q13 0 15.5 -17t2.5 -115
q0 -95 -3.5 -111.5t-23.5 -16.5z" />
    <glyph glyph-name="uniFBA8" unicode="&#x6c1;" horiz-adv-x="471" arabic-form="initial" 
d="M364 658q19 -178 19 -309q0 -166 -43 -297q-109 -64 -313 -64q-14 0 -16.5 17t-2.5 115q0 95 3.5 111.5t23.5 16.5q93 0 168 13q-13 140 -65 382z" />
    <glyph glyph-name="uniFBA9" unicode="&#x6c1;" horiz-adv-x="768" arabic-form="medial" 
d="M802 248q14 0 16.5 -17t2.5 -115q0 -95 -3.5 -111.5t-23.5 -16.5q-43 0 -74 -5.5t-52.5 -20t-34.5 -31t-20.5 -47t-11 -58.5t-6.5 -74l-118 -218q-134 3 -224 102t-90 241q0 62 21 127l-2 2q-67 -18 -155 -18q-14 0 -16.5 17t-2.5 115q0 95 3.5 111.5t23.5 16.5
q110 0 180 25.5t135 79.5l95 -175q-92 -85 -92 -194q0 -117 107 -168q4 90 14.5 153t33 119t60 89t95.5 52t139 19z" />
    <glyph glyph-name="uniFBAB" unicode="&#x6be;" horiz-adv-x="1298" arabic-form="final" 
d="M1333 248q13 0 15.5 -17t2.5 -115q0 -95 -3.5 -111.5t-22.5 -16.5q-164 0 -241 68q-29 -53 -75 -101q-243 52 -392 133q-143 -114 -410 -114q-62 0 -124 13l-52 262q107 -15 198 -15q89 0 179 8v1q-58 70 -58 159q0 78 37.5 148t99.5 110v1q-58 25 -124 49l100 183
q219 -81 336 -135t205 -126q74 -60 111 -134t37 -176q0 -17 -2 -49q72 -25 183 -25zM612 523q-46 0 -80 -24.5t-34 -60.5q0 -69 165 -137q91 49 91 100q0 48 -42 85t-100 37zM989 204q17 30 17 63q0 87 -114 183q-2 -123 -70 -204q93 -26 167 -42z" />
    <glyph glyph-name="uniFBAC" unicode="&#x6be;" horiz-adv-x="1029" arabic-form="initial" 
d="M961 322q0 -106 -37.5 -201.5t-106.5 -165.5q-243 52 -393 134q-138 -101 -397 -101q-14 0 -16.5 17t-2.5 115q0 95 3.5 111.5t23.5 16.5q141 0 178 2v1q-54 67 -54 151q0 78 37.5 148t99.5 110v1q-44 19 -124 49l100 183q219 -81 336 -135t205 -126q74 -60 111 -134
t37 -176zM421 523q-47 0 -80.5 -24.5t-33.5 -60.5q0 -69 165 -137q91 49 91 100q0 47 -42 84.5t-100 37.5zM797 204q18 28 18 63q0 88 -115 183q-2 -125 -70 -204q97 -26 167 -42z" />
    <glyph glyph-name="uniFBAD" unicode="&#x6be;" horiz-adv-x="1145" arabic-form="medial" 
d="M1180 248q13 0 15.5 -17t2.5 -115q0 -95 -3.5 -111.5t-22.5 -16.5q-104 0 -170.5 26.5t-94.5 69.5q-36 -75 -90 -129q-243 52 -393 134q-138 -101 -397 -101q-14 0 -16.5 17t-2.5 115q0 95 3.5 111.5t23.5 16.5q141 0 178 2v1q-54 67 -54 151q0 78 37.5 148t99.5 110v1
q-44 19 -124 49l100 183q219 -81 336 -135t205 -126q74 -60 111 -134t37 -176q0 -21 -1 -32q74 -42 220 -42zM421 523q-47 0 -80.5 -24.5t-33.5 -60.5q0 -69 165 -137q91 49 91 100q0 47 -42 84.5t-100 37.5zM797 204q18 28 18 63q0 88 -115 183q-2 -125 -70 -204
q97 -26 167 -42z" />
    <glyph glyph-name="uniFBAF" unicode="&#x6d2;" horiz-adv-x="1107" arabic-form="final" 
d="M1133 -12q-352 0 -515.5 -9t-254.5 -34q-63 -19 -100.5 -45.5t-37.5 -51.5q0 -13 11 -23t46.5 -21t94.5 -18.5t162 -12.5t242 -5q181 0 367 6l-37 -239q-250 -14 -393 -14q-252 0 -392.5 23t-203.5 76.5t-63 148.5q0 135 98 254.5t255 170.5q93 30 245 42t485 12
q13 0 15.5 -17t2.5 -115q0 -95 -3.5 -111.5t-23.5 -16.5z" />
    <glyph glyph-name="uniFBB1" unicode="&#x6d3;" horiz-adv-x="1107" arabic-form="final" 
d="M646 747v-130q-236 -57 -408 -111v118l86 32v2q-62 42 -62 112q0 80 63.5 147t154.5 67q59 0 103 -40l-4 -121q-31 8 -87 8q-113 0 -113 -48q0 -52 130 -70q52 15 137 34zM363 -55q-63 -19 -100.5 -45.5t-37.5 -51.5q0 -13 11 -23t46.5 -21t94.5 -18.5t162 -12.5t242 -5
q181 0 367 6l-37 -239q-250 -14 -393 -14q-252 0 -392.5 23t-203.5 76.5t-63 148.5q0 135 98 254.5t255 170.5q93 30 245 42t485 12q13 0 15.5 -17t2.5 -115q0 -95 -3.5 -111.5t-23.5 -16.5q-352 0 -515.5 -9t-254.5 -34z" />
    <glyph glyph-name="uniFBFD" unicode="&#x6cc;" horiz-adv-x="1119" arabic-form="final" 
d="M1153 248q14 0 16.5 -17t2.5 -115q0 -95 -3.5 -111.5t-23.5 -16.5q-53 0 -110 10q1 -12 1 -39q0 -196 -142.5 -309.5t-371.5 -113.5q-223 0 -341.5 111t-118.5 301q0 148 69 335h157q-30 -133 -30 -233q0 -130 66.5 -186t207.5 -56q139 0 243.5 44t131.5 107
q-18 41 -88 79.5t-187 83.5l70 213q103 -37 227 -62t224 -25z" />
    <glyph glyph-name="uniFBFE" unicode="&#x6cc;" horiz-adv-x="472" arabic-form="initial" 
d="M27 -12q-14 0 -16.5 17t-2.5 115q0 95 3.5 111.5t23.5 16.5q93 0 168 13q-13 140 -65 382l226 15q19 -178 19 -309q0 -166 -43 -297q-109 -64 -313 -64zM311 -166q97 -99 140 -151q-53 -58 -147 -142q-90 88 -122 124q-72 -76 -133 -127q-67 64 -141 150q76 74 148 142
q63 -61 120 -126q71 75 135 130z" />
    <glyph glyph-name="uniFBFF" unicode="&#x6cc;" horiz-adv-x="525" arabic-form="medial" 
d="M560 248q13 0 15.5 -17t2.5 -115q0 -95 -3.5 -111.5t-22.5 -16.5q-106 0 -173 27.5t-94 72.5q-80 -100 -258 -100q-14 0 -16.5 17t-2.5 115q0 95 3.5 111.5t23.5 16.5q91 0 138 25q24 108 31 266l178 -11q0 -145 -17 -250q73 -30 195 -30zM259 -296q71 75 135 130
q97 -99 140 -151q-53 -58 -147 -142q-90 88 -122 124q-72 -76 -133 -127q-67 64 -141 150q76 74 148 142q63 -61 120 -126z" />
    <glyph glyph-name="uniFC03" unicode="&#xfc03;" horiz-adv-x="1293" arabic-form="isolated" 
d="M1108 1164q52 15 137 34v-130q-236 -57 -408 -111v118l86 32v2q-62 42 -62 112q0 80 63.5 147t154.5 67q59 0 103 -40l-4 -121q-31 8 -87 8q-113 0 -113 -48q0 -52 130 -70zM960 669l221 18q25 -202 25 -322q0 -112 -18 -222q-87 -52 -187 -76q35 -59 35 -148
q0 -196 -142.5 -309.5t-371.5 -113.5q-223 0 -341.5 111t-118.5 301q0 150 69 335h157q-30 -133 -30 -233q0 -130 66.5 -186t207.5 -56q146 0 252.5 47.5t126.5 114.5q-37 40 -127 58t-270 18l16 206q132 2 268.5 20t229.5 46q-14 159 -68 391z" />
    <glyph glyph-name="uniFC04" unicode="&#xfc04;" horiz-adv-x="1293" arabic-form="isolated" 
d="M1108 1164q52 15 137 34v-130q-236 -57 -408 -111v118l86 32v2q-62 42 -62 112q0 80 63.5 147t154.5 67q59 0 103 -40l-4 -121q-31 8 -87 8q-113 0 -113 -48q0 -52 130 -70zM960 669l221 18q25 -202 25 -322q0 -112 -18 -222q-87 -52 -187 -76q35 -59 35 -148
q0 -196 -142.5 -309.5t-371.5 -113.5q-223 0 -341.5 111t-118.5 301q0 150 69 335h157q-30 -133 -30 -233q0 -130 66.5 -186t207.5 -56q146 0 252.5 47.5t126.5 114.5q-37 40 -127 58t-270 18l16 206q132 2 268.5 20t229.5 46q-14 159 -68 391zM432 -759q71 75 135 130
q97 -99 140 -151q-53 -58 -147 -142q-90 88 -122 124q-72 -76 -133 -127q-67 64 -141 150q76 74 148 142q63 -61 120 -126z" />
    <glyph glyph-name="uniFC09" unicode="&#xfc09;" horiz-adv-x="1293" arabic-form="isolated" 
d="M1036 -81q0 -196 -142.5 -309.5t-371.5 -113.5q-223 0 -341.5 111t-118.5 301q0 150 69 335h157q-30 -133 -30 -233q0 -130 66.5 -186t207.5 -56q146 0 252.5 47.5t126.5 114.5q-37 40 -127 58t-270 18l16 206q132 2 268.5 20t229.5 46q-14 159 -68 391l221 18
q25 -202 25 -322q0 -112 -18 -222q-87 -52 -187 -76q35 -59 35 -148zM1051 -456q65 -61 149 -152q-64 -68 -153 -150q-70 66 -148 154q91 93 152 148z" />
    <glyph glyph-name="uniFC0A" unicode="&#xfc0a;" horiz-adv-x="1293" arabic-form="isolated" 
d="M522 -504q-223 0 -341.5 111t-118.5 301q0 150 69 335h157q-30 -133 -30 -233q0 -130 66.5 -186t207.5 -56q146 0 252.5 47.5t126.5 114.5q-37 40 -127 58t-270 18l16 206q132 2 268.5 20t229.5 46q-14 159 -68 391l221 18q25 -202 25 -322q0 -112 -18 -222
q-87 -52 -187 -76q35 -59 35 -148q0 -196 -142.5 -309.5t-371.5 -113.5zM1051 -456q65 -61 149 -152q-64 -68 -153 -150q-70 66 -148 154q91 93 152 148zM432 -759q71 75 135 130q97 -99 140 -151q-53 -58 -147 -142q-90 88 -122 124q-72 -76 -133 -127q-67 64 -141 150
q76 74 148 142q63 -61 120 -126z" />
    <glyph glyph-name="uniFC0F" unicode="&#xfc0f;" horiz-adv-x="1293" arabic-form="isolated" 
d="M1178 1126q97 -99 140 -151q-53 -58 -147 -142q-90 88 -122 124q-72 -76 -133 -127q-67 64 -141 150q76 74 148 142q63 -61 120 -126q71 75 135 130zM960 669l221 18q25 -202 25 -322q0 -112 -18 -222q-87 -52 -187 -76q35 -59 35 -148q0 -196 -142.5 -309.5
t-371.5 -113.5q-223 0 -341.5 111t-118.5 301q0 150 69 335h157q-30 -133 -30 -233q0 -130 66.5 -186t207.5 -56q146 0 252.5 47.5t126.5 114.5q-37 40 -127 58t-270 18l16 206q132 2 268.5 20t229.5 46q-14 159 -68 391z" />
    <glyph glyph-name="uniFC10" unicode="&#xfc10;" horiz-adv-x="1293" arabic-form="isolated" 
d="M1178 1126q97 -99 140 -151q-53 -58 -147 -142q-90 88 -122 124q-72 -76 -133 -127q-67 64 -141 150q76 74 148 142q63 -61 120 -126q71 75 135 130zM960 669l221 18q25 -202 25 -322q0 -112 -18 -222q-87 -52 -187 -76q35 -59 35 -148q0 -196 -142.5 -309.5
t-371.5 -113.5q-223 0 -341.5 111t-118.5 301q0 150 69 335h157q-30 -133 -30 -233q0 -130 66.5 -186t207.5 -56q146 0 252.5 47.5t126.5 114.5q-37 40 -127 58t-270 18l16 206q132 2 268.5 20t229.5 46q-14 159 -68 391zM432 -759q71 75 135 130q97 -99 140 -151
q-53 -58 -147 -142q-90 88 -122 124q-72 -76 -133 -127q-67 64 -141 150q76 74 148 142q63 -61 120 -126z" />
    <glyph glyph-name="uniFC13" unicode="&#xfc13;" horiz-adv-x="1293" arabic-form="isolated" 
d="M1044 1060q-76 72 -132 134q48 55 132 135q66 -59 136 -135q-63 -67 -136 -134zM1176 1097q61 -55 141 -140q-60 -70 -141 -144q-67 65 -121 122q-76 -80 -128 -128q-57 54 -143 143q82 85 143 140q55 -49 121 -119q44 46 128 126zM960 669l221 18q25 -202 25 -322
q0 -112 -18 -222q-87 -52 -187 -76q35 -59 35 -148q0 -196 -142.5 -309.5t-371.5 -113.5q-223 0 -341.5 111t-118.5 301q0 150 69 335h157q-30 -133 -30 -233q0 -130 66.5 -186t207.5 -56q146 0 252.5 47.5t126.5 114.5q-37 40 -127 58t-270 18l16 206q132 2 268.5 20
t229.5 46q-14 159 -68 391z" />
    <glyph glyph-name="uniFC14" unicode="&#xfc14;" horiz-adv-x="1293" arabic-form="isolated" 
d="M1044 1060q-76 72 -132 134q48 55 132 135q66 -59 136 -135q-63 -67 -136 -134zM1176 1097q61 -55 141 -140q-60 -70 -141 -144q-67 65 -121 122q-76 -80 -128 -128q-57 54 -143 143q82 85 143 140q55 -49 121 -119q44 46 128 126zM960 669l221 18q25 -202 25 -322
q0 -112 -18 -222q-87 -52 -187 -76q35 -59 35 -148q0 -196 -142.5 -309.5t-371.5 -113.5q-223 0 -341.5 111t-118.5 301q0 150 69 335h157q-30 -133 -30 -233q0 -130 66.5 -186t207.5 -56q146 0 252.5 47.5t126.5 114.5q-37 40 -127 58t-270 18l16 206q132 2 268.5 20
t229.5 46q-14 159 -68 391zM432 -759q71 75 135 130q97 -99 140 -151q-53 -58 -147 -142q-90 88 -122 124q-72 -76 -133 -127q-67 64 -141 150q76 74 148 142q63 -61 120 -126z" />
    <glyph glyph-name="uniFC31" unicode="&#xfc31;" horiz-adv-x="1283" arabic-form="isolated" 
d="M869 1151q-70 66 -148 154q91 93 152 148q65 -61 149 -152q-64 -68 -153 -150zM1161 127q-71 -40 -160 -58v-1q35 -55 35 -149q0 -196 -142.5 -309.5t-371.5 -113.5q-223 0 -341.5 111t-118.5 301q0 150 69 335h157q-30 -133 -30 -233q0 -130 66.5 -186t207.5 -56
q146 0 253 48t126 115q-36 40 -121.5 57.5t-258.5 17.5l16 206q287 7 502 72q4 43 5 68q-73 -17 -153 -17q-148 0 -226 67t-78 198q0 96 36 181.5t107.5 141t162.5 55.5q149 0 227 -132t78 -350q0 -193 -47 -369zM747 651q0 -56 61.5 -78t170.5 -22q25 0 67 2
q-16 93 -60 146t-116 53q-54 0 -88.5 -29t-34.5 -72z" />
    <glyph glyph-name="uniFC32" unicode="&#xfc32;" horiz-adv-x="1283" arabic-form="isolated" 
d="M869 1151q-70 66 -148 154q91 93 152 148q65 -61 149 -152q-64 -68 -153 -150zM1161 127q-71 -40 -160 -58v-1q35 -55 35 -149q0 -196 -142.5 -309.5t-371.5 -113.5q-223 0 -341.5 111t-118.5 301q0 150 69 335h157q-30 -133 -30 -233q0 -130 66.5 -186t207.5 -56
q146 0 253 48t126 115q-36 40 -121.5 57.5t-258.5 17.5l16 206q287 7 502 72q4 43 5 68q-73 -17 -153 -17q-148 0 -226 67t-78 198q0 96 36 181.5t107.5 141t162.5 55.5q149 0 227 -132t78 -350q0 -193 -47 -369zM747 651q0 -56 61.5 -78t170.5 -22q25 0 67 2
q-16 93 -60 146t-116 53q-54 0 -88.5 -29t-34.5 -72zM432 -759q71 75 135 130q97 -99 140 -151q-53 -58 -147 -142q-90 88 -122 124q-72 -76 -133 -127q-67 64 -141 150q76 74 148 142q63 -61 120 -126z" />
    <glyph glyph-name="uniFC35" unicode="&#xfc35;" horiz-adv-x="1283" arabic-form="isolated" 
d="M738 1154q-67 64 -141 150q76 74 148 142q63 -61 120 -126q71 75 135 130q97 -99 140 -151q-53 -58 -147 -142q-90 88 -122 124q-72 -76 -133 -127zM1161 127q-71 -40 -160 -58v-1q35 -55 35 -149q0 -196 -142.5 -309.5t-371.5 -113.5q-223 0 -341.5 111t-118.5 301
q0 150 69 335h157q-30 -133 -30 -233q0 -130 66.5 -186t207.5 -56q146 0 253 48t126 115q-36 40 -121.5 57.5t-258.5 17.5l16 206q287 7 502 72q4 43 5 68q-73 -17 -153 -17q-148 0 -226 67t-78 198q0 96 36 181.5t107.5 141t162.5 55.5q149 0 227 -132t78 -350
q0 -193 -47 -369zM747 651q0 -56 61.5 -78t170.5 -22q25 0 67 2q-16 93 -60 146t-116 53q-54 0 -88.5 -29t-34.5 -72z" />
    <glyph glyph-name="uniFC36" unicode="&#xfc36;" horiz-adv-x="1283" arabic-form="isolated" 
d="M738 1154q-67 64 -141 150q76 74 148 142q63 -61 120 -126q71 75 135 130q97 -99 140 -151q-53 -58 -147 -142q-90 88 -122 124q-72 -76 -133 -127zM1161 127q-71 -40 -160 -58v-1q35 -55 35 -149q0 -196 -142.5 -309.5t-371.5 -113.5q-223 0 -341.5 111t-118.5 301
q0 150 69 335h157q-30 -133 -30 -233q0 -130 66.5 -186t207.5 -56q146 0 253 48t126 115q-36 40 -121.5 57.5t-258.5 17.5l16 206q287 7 502 72q4 43 5 68q-73 -17 -153 -17q-148 0 -226 67t-78 198q0 96 36 181.5t107.5 141t162.5 55.5q149 0 227 -132t78 -350
q0 -193 -47 -369zM747 651q0 -56 61.5 -78t170.5 -22q25 0 67 2q-16 93 -60 146t-116 53q-54 0 -88.5 -29t-34.5 -72zM432 -759q71 75 135 130q97 -99 140 -151q-53 -58 -147 -142q-90 88 -122 124q-72 -76 -133 -127q-67 64 -141 150q76 74 148 142q63 -61 120 -126z" />
    <glyph glyph-name="uniFC3D" unicode="&#xfc3d;" horiz-adv-x="1365" arabic-form="isolated" 
d="M1302 946l-490 -189v-3q168 -82 260.5 -196.5t92.5 -248.5q0 -99 -30 -171q-59 -39 -151 -64v-2q52 -49 52 -153q0 -196 -142.5 -309.5t-371.5 -113.5q-223 0 -341.5 111.5t-118.5 304.5q0 146 69 331h157q-30 -133 -30 -233q0 -130 66.5 -186t207.5 -56q146 0 253 48
t126 115q-36 40 -123 57.5t-264 17.5l15 205q299 24 458 83q-45 106 -169.5 198t-279.5 146v207l756 359z" />
    <glyph glyph-name="uniFC3E" unicode="&#xfc3e;" horiz-adv-x="1365" arabic-form="isolated" 
d="M1302 946l-490 -189v-3q168 -82 260.5 -196.5t92.5 -248.5q0 -99 -30 -171q-59 -39 -151 -64v-2q52 -49 52 -153q0 -196 -142.5 -309.5t-371.5 -113.5q-223 0 -341.5 111.5t-118.5 304.5q0 146 69 331h157q-30 -133 -30 -233q0 -130 66.5 -186t207.5 -56q146 0 253 48
t126 115q-36 40 -123 57.5t-264 17.5l15 205q299 24 458 83q-45 106 -169.5 198t-279.5 146v207l756 359zM432 -759q71 75 135 130q97 -99 140 -151q-53 -58 -147 -142q-90 88 -122 124q-72 -76 -133 -127q-67 64 -141 150q76 74 148 142q63 -61 120 -126z" />
    <glyph glyph-name="uniFC44" unicode="&#xfc44;" horiz-adv-x="1319" arabic-form="isolated" 
d="M996 1137l223 9l-5 -620q-2 -249 -16 -390q-88 -45 -197 -73q35 -54 35 -144q0 -196 -142.5 -309.5t-371.5 -113.5q-223 0 -341.5 111t-118.5 301q0 150 69 335h157q-30 -133 -30 -233q0 -130 66.5 -186t207.5 -56q146 0 252.5 47.5t126.5 114.5q-37 40 -127 58t-270 18
l16 206q288 5 475 62l-3 246zM434 -759q71 75 135 130q97 -99 140 -151q-53 -58 -147 -142q-90 88 -122 124q-72 -76 -133 -127q-67 64 -141 150q76 74 148 142q63 -61 120 -126z" />
    <glyph glyph-name="uniFC4F" unicode="&#xfc4f;" horiz-adv-x="1293" arabic-form="isolated" 
d="M1047 827q-70 66 -148 154q91 93 152 148q65 -61 149 -152q-64 -68 -153 -150zM1206 365q0 -112 -18 -222q-87 -52 -187 -76q35 -59 35 -148q0 -196 -142.5 -309.5t-371.5 -113.5q-223 0 -341.5 111t-118.5 301q0 150 69 335h157q-30 -133 -30 -233q0 -130 66.5 -186
t207.5 -56q146 0 252.5 47.5t126.5 114.5q-37 40 -127 58t-270 18l16 206q132 2 268.5 20t229.5 46q-14 159 -68 391l221 18q25 -202 25 -322z" />
    <glyph glyph-name="uniFC50" unicode="&#xfc50;" horiz-adv-x="1293" arabic-form="isolated" 
d="M1047 827q-70 66 -148 154q91 93 152 148q65 -61 149 -152q-64 -68 -153 -150zM1206 365q0 -112 -18 -222q-87 -52 -187 -76q35 -59 35 -148q0 -196 -142.5 -309.5t-371.5 -113.5q-223 0 -341.5 111t-118.5 301q0 150 69 335h157q-30 -133 -30 -233q0 -130 66.5 -186
t207.5 -56q146 0 252.5 47.5t126.5 114.5q-37 40 -127 58t-270 18l16 206q132 2 268.5 20t229.5 46q-14 159 -68 391l221 18q25 -202 25 -322zM432 -759q71 75 135 130q97 -99 140 -151q-53 -58 -147 -142q-90 88 -122 124q-72 -76 -133 -127q-67 64 -141 150q76 74 148 142
q63 -61 120 -126z" />
    <glyph glyph-name="uniFC64" unicode="&#xfc64;" horiz-adv-x="1046" arabic-form="final" 
d="M953 1140v-130q-236 -57 -408 -111v118l86 32v2q-62 42 -62 112q0 80 63.5 147t154.5 67q59 0 103 -40l-4 -121q-31 8 -87 8q-113 0 -113 -48q0 -52 130 -70q52 15 137 34zM1081 248q13 0 15.5 -17t2.5 -115q0 -95 -3.5 -111.5t-22.5 -16.5q-101 0 -169 22t-110 70.5
t-61.5 118t-22.5 171.5q-90 -39 -203 -44q11 -81 11 -142q0 -422 -446 -630l-144 205q121 52 205 105.5t127 104.5t60.5 96t17.5 93q0 110 -109 303l141 126q55 -21 113 -21q123 0 236 64l143 -10q1 -78 3.5 -124t10 -93.5t21.5 -72.5t38.5 -46t59.5 -28.5t86 -7.5z" />
    <glyph glyph-name="uniFC65" unicode="&#xfc65;" horiz-adv-x="1046" arabic-form="final" 
d="M953 1140v-130q-236 -57 -408 -111v118l86 32v2q-62 42 -62 112q0 80 63.5 147t154.5 67q59 0 103 -40l-4 -121q-31 8 -87 8q-113 0 -113 -48q0 -52 130 -70q52 15 137 34zM184 699q-70 66 -148 154q91 93 152 148q65 -61 149 -152q-64 -68 -153 -150zM1081 248
q13 0 15.5 -17t2.5 -115q0 -95 -3.5 -111.5t-22.5 -16.5q-101 0 -169 22t-110 70.5t-61.5 118t-22.5 171.5q-90 -39 -203 -44q11 -81 11 -142q0 -422 -446 -630l-144 205q121 52 205 105.5t127 104.5t60.5 96t17.5 93q0 110 -109 303l141 126q55 -21 113 -21q123 0 236 64
l143 -10q1 -78 3.5 -124t10 -93.5t21.5 -72.5t38.5 -46t59.5 -28.5t86 -7.5z" />
    <glyph glyph-name="uniFC67" unicode="&#xfc67;" horiz-adv-x="1471" arabic-form="final" 
d="M1378 1137v-130q-236 -57 -408 -111v118l86 32v2q-62 42 -62 112q0 80 63.5 147t154.5 67q59 0 103 -40l-4 -121q-31 8 -87 8q-113 0 -113 -48q0 -52 130 -70q52 15 137 34zM494 674q-70 66 -148 154q91 93 152 148q65 -61 149 -152q-64 -68 -153 -150zM1506 248
q14 0 16.5 -17t2.5 -115q0 -95 -3.5 -111.5t-23.5 -16.5q-197 0 -276.5 89.5t-85.5 295.5q-90 -46 -207 -46h-9q36 -115 36 -238q0 -169 -67 -268q-57 -85 -164 -134t-242 -49q-207 0 -318 113t-111 295q0 142 69 301h156q-30 -113 -30 -200q0 -130 66.5 -185t188.5 -55
q92 0 173 26t128 67q-33 215 -142 495l147 95q53 -21 123 -21q119 0 213 55l142 -7q0 -57 1.5 -95.5t5 -78.5t10 -65t18 -49t27.5 -37.5t38.5 -24.5t51 -15t66.5 -4z" />
    <glyph glyph-name="uniFC6A" unicode="&#xfc6a;" horiz-adv-x="1046" arabic-form="final" 
d="M1081 248q13 0 15.5 -17t2.5 -115q0 -95 -3.5 -111.5t-22.5 -16.5q-101 0 -169 22t-110 70.5t-61.5 118t-22.5 171.5q-90 -39 -203 -44q11 -81 11 -142q0 -422 -446 -630l-144 205q121 52 205 105.5t127 104.5t60.5 96t17.5 93q0 110 -109 303l141 126q55 -21 113 -21
q123 0 236 64l143 -10q1 -78 3.5 -124t10 -93.5t21.5 -72.5t38.5 -46t59.5 -28.5t86 -7.5zM822 -181q65 -61 149 -152q-64 -68 -153 -150q-70 66 -148 154q91 93 152 148z" />
    <glyph glyph-name="uniFC6B" unicode="&#xfc6b;" horiz-adv-x="1046" arabic-form="final" 
d="M184 699q-70 66 -148 154q91 93 152 148q65 -61 149 -152q-64 -68 -153 -150zM1081 248q13 0 15.5 -17t2.5 -115q0 -95 -3.5 -111.5t-22.5 -16.5q-101 0 -169 22t-110 70.5t-61.5 118t-22.5 171.5q-90 -39 -203 -44q11 -81 11 -142q0 -422 -446 -630l-144 205
q121 52 205 105.5t127 104.5t60.5 96t17.5 93q0 110 -109 303l141 126q55 -21 113 -21q123 0 236 64l143 -10q1 -78 3.5 -124t10 -93.5t21.5 -72.5t38.5 -46t59.5 -28.5t86 -7.5zM822 -181q65 -61 149 -152q-64 -68 -153 -150q-70 66 -148 154q91 93 152 148z" />
    <glyph glyph-name="uniFC6D" unicode="&#xfc6d;" horiz-adv-x="1471" arabic-form="final" 
d="M494 674q-70 66 -148 154q91 93 152 148q65 -61 149 -152q-64 -68 -153 -150zM1506 248q14 0 16.5 -17t2.5 -115q0 -95 -3.5 -111.5t-23.5 -16.5q-197 0 -276.5 89.5t-85.5 295.5q-90 -46 -207 -46h-9q36 -115 36 -238q0 -169 -67 -268q-57 -85 -164 -134t-242 -49
q-207 0 -318 113t-111 295q0 142 69 301h156q-30 -113 -30 -200q0 -130 66.5 -185t188.5 -55q92 0 173 26t128 67q-33 215 -142 495l147 95q53 -21 123 -21q119 0 213 55l142 -7q0 -57 1.5 -95.5t5 -78.5t10 -65t18 -49t27.5 -37.5t38.5 -24.5t51 -15t66.5 -4zM1251 -184
q65 -61 149 -152q-64 -68 -153 -150q-70 66 -148 154q91 93 152 148z" />
    <glyph glyph-name="uniFC70" unicode="&#xfc70;" horiz-adv-x="1046" arabic-form="final" 
d="M624 772q-67 64 -141 150q76 74 148 142q63 -61 120 -126q71 75 135 130q97 -99 140 -151q-53 -58 -147 -142q-90 88 -122 124q-72 -76 -133 -127zM1081 248q13 0 15.5 -17t2.5 -115q0 -95 -3.5 -111.5t-22.5 -16.5q-101 0 -169 22t-110 70.5t-61.5 118t-22.5 171.5
q-90 -39 -203 -44q11 -81 11 -142q0 -422 -446 -630l-144 205q121 52 205 105.5t127 104.5t60.5 96t17.5 93q0 110 -109 303l141 126q55 -21 113 -21q123 0 236 64l143 -10q1 -78 3.5 -124t10 -93.5t21.5 -72.5t38.5 -46t59.5 -28.5t86 -7.5z" />
    <glyph glyph-name="uniFC71" unicode="&#xfc71;" horiz-adv-x="1046" arabic-form="final" 
d="M624 772q-67 64 -141 150q76 74 148 142q63 -61 120 -126q71 75 135 130q97 -99 140 -151q-53 -58 -147 -142q-90 88 -122 124q-72 -76 -133 -127zM184 699q-70 66 -148 154q91 93 152 148q65 -61 149 -152q-64 -68 -153 -150zM1081 248q13 0 15.5 -17t2.5 -115
q0 -95 -3.5 -111.5t-22.5 -16.5q-101 0 -169 22t-110 70.5t-61.5 118t-22.5 171.5q-90 -39 -203 -44q11 -81 11 -142q0 -422 -446 -630l-144 205q121 52 205 105.5t127 104.5t60.5 96t17.5 93q0 110 -109 303l141 126q55 -21 113 -21q123 0 236 64l143 -10q1 -78 3.5 -124
t10 -93.5t21.5 -72.5t38.5 -46t59.5 -28.5t86 -7.5z" />
    <glyph glyph-name="uniFC73" unicode="&#xfc73;" horiz-adv-x="1471" arabic-form="final" 
d="M1049 769q-67 64 -141 150q76 74 148 142q63 -61 120 -126q71 75 135 130q97 -99 140 -151q-53 -58 -147 -142q-90 88 -122 124q-72 -76 -133 -127zM494 674q-70 66 -148 154q91 93 152 148q65 -61 149 -152q-64 -68 -153 -150zM1506 248q14 0 16.5 -17t2.5 -115
q0 -95 -3.5 -111.5t-23.5 -16.5q-197 0 -276.5 89.5t-85.5 295.5q-90 -46 -207 -46h-9q36 -115 36 -238q0 -169 -67 -268q-57 -85 -164 -134t-242 -49q-207 0 -318 113t-111 295q0 142 69 301h156q-30 -113 -30 -200q0 -130 66.5 -185t188.5 -55q92 0 173 26t128 67
q-33 215 -142 495l147 95q53 -21 123 -21q119 0 213 55l142 -7q0 -57 1.5 -95.5t5 -78.5t10 -65t18 -49t27.5 -37.5t38.5 -24.5t51 -15t66.5 -4z" />
    <glyph glyph-name="uniFC76" unicode="&#xfc76;" horiz-adv-x="1046" arabic-form="final" 
d="M752 1002q-76 72 -132 134q48 55 132 135q66 -59 136 -135q-63 -67 -136 -134zM635 749q-57 54 -143 143q82 85 143 140q55 -49 121 -119q44 46 128 126q61 -55 141 -140q-60 -70 -141 -144q-67 65 -121 122q-76 -80 -128 -128zM1081 248q13 0 15.5 -17t2.5 -115
q0 -95 -3.5 -111.5t-22.5 -16.5q-101 0 -169 22t-110 70.5t-61.5 118t-22.5 171.5q-90 -39 -203 -44q11 -81 11 -142q0 -422 -446 -630l-144 205q121 52 205 105.5t127 104.5t60.5 96t17.5 93q0 110 -109 303l141 126q55 -21 113 -21q123 0 236 64l143 -10q1 -78 3.5 -124
t10 -93.5t21.5 -72.5t38.5 -46t59.5 -28.5t86 -7.5z" />
    <glyph glyph-name="uniFC77" unicode="&#xfc77;" horiz-adv-x="1046" arabic-form="final" 
d="M752 1002q-76 72 -132 134q48 55 132 135q66 -59 136 -135q-63 -67 -136 -134zM635 749q-57 54 -143 143q82 85 143 140q55 -49 121 -119q44 46 128 126q61 -55 141 -140q-60 -70 -141 -144q-67 65 -121 122q-76 -80 -128 -128zM184 699q-70 66 -148 154q91 93 152 148
q65 -61 149 -152q-64 -68 -153 -150zM1081 248q13 0 15.5 -17t2.5 -115q0 -95 -3.5 -111.5t-22.5 -16.5q-101 0 -169 22t-110 70.5t-61.5 118t-22.5 171.5q-90 -39 -203 -44q11 -81 11 -142q0 -422 -446 -630l-144 205q121 52 205 105.5t127 104.5t60.5 96t17.5 93
q0 110 -109 303l141 126q55 -21 113 -21q123 0 236 64l143 -10q1 -78 3.5 -124t10 -93.5t21.5 -72.5t38.5 -46t59.5 -28.5t86 -7.5z" />
    <glyph glyph-name="uniFC79" unicode="&#xfc79;" horiz-adv-x="1471" arabic-form="final" 
d="M1177 999q-76 72 -132 134q48 55 132 135q66 -59 136 -135q-63 -67 -136 -134zM1060 746q-57 54 -143 143q82 85 143 140q55 -49 121 -119q44 46 128 126q61 -55 141 -140q-60 -70 -141 -144q-67 65 -121 122q-76 -80 -128 -128zM494 674q-70 66 -148 154q91 93 152 148
q65 -61 149 -152q-64 -68 -153 -150zM1506 248q14 0 16.5 -17t2.5 -115q0 -95 -3.5 -111.5t-23.5 -16.5q-197 0 -276.5 89.5t-85.5 295.5q-90 -46 -207 -46h-9q36 -115 36 -238q0 -169 -67 -268q-57 -85 -164 -134t-242 -49q-207 0 -318 113t-111 295q0 142 69 301h156
q-30 -113 -30 -200q0 -130 66.5 -185t188.5 -55q92 0 173 26t128 67q-33 215 -142 495l147 95q53 -21 123 -21q119 0 213 55l142 -7q0 -57 1.5 -95.5t5 -78.5t10 -65t18 -49t27.5 -37.5t38.5 -24.5t51 -15t66.5 -4z" />
    <glyph glyph-name="uniFC83" unicode="&#xfc83;" horiz-adv-x="1367" arabic-form="final" 
d="M1402 248q13 0 15.5 -17t2.5 -115q0 -95 -3.5 -111.5t-22.5 -16.5q-132 0 -213.5 43.5t-160.5 142.5h-2q-9 -23 -30.5 -44.5t-47.5 -30.5v-2q96 -70 96 -214q0 -195 -142.5 -308.5t-371.5 -113.5q-223 0 -341.5 111t-118.5 300q0 150 69 335h157q-30 -133 -30 -232
q0 -130 66.5 -186t207.5 -56q143 0 249 46t128 112q-61 92 -354 111l21 190q119 7 208 44t118 99q-84 109 -158.5 176t-191.5 145v204l726 344l-3 -252l-503 -188v-5q165 -130 310 -324q41 -56 67 -85t63 -55.5t81.5 -36.5t108.5 -10z" />
    <glyph glyph-name="uniFC84" unicode="&#xfc84;" horiz-adv-x="1367" arabic-form="final" 
d="M1402 248q13 0 15.5 -17t2.5 -115q0 -95 -3.5 -111.5t-22.5 -16.5q-132 0 -213.5 43.5t-160.5 142.5h-2q-9 -23 -30.5 -44.5t-47.5 -30.5v-2q96 -70 96 -214q0 -195 -142.5 -308.5t-371.5 -113.5q-223 0 -341.5 111t-118.5 300q0 150 69 335h157q-30 -133 -30 -232
q0 -130 66.5 -186t207.5 -56q143 0 249 46t128 112q-61 92 -354 111l21 190q119 7 208 44t118 99q-84 109 -158.5 176t-191.5 145v204l726 344l-3 -252l-503 -188v-5q165 -130 310 -324q41 -56 67 -85t63 -55.5t81.5 -36.5t108.5 -10zM432 -793q71 75 135 130
q97 -99 140 -151q-53 -58 -147 -142q-90 88 -122 124q-72 -76 -133 -127q-67 64 -141 150q76 74 148 142q63 -61 120 -126z" />
    <glyph glyph-name="uniFC87" unicode="&#xfc87;" horiz-adv-x="1387" arabic-form="final" 
d="M1422 248q13 0 15.5 -17t2.5 -115q0 -95 -3.5 -111.5t-22.5 -16.5q-147 0 -236 46t-115 155q-61 -51 -135 -80q109 -71 109 -226q0 -195 -142.5 -308.5t-370.5 -113.5q-224 0 -342.5 111t-118.5 300q0 150 69 335h157q-30 -143 -30 -232q0 -130 66.5 -186t207.5 -56
q143 0 249.5 46t128.5 112q-61 92 -354 111l8 191q138 27 269 91.5t210 145.5l-9 707l223 9l-7 -761q-1 -80 33 -108.5t138 -28.5zM336 -752q71 75 135 130q97 -99 140 -151q-53 -58 -147 -142q-90 88 -122 124q-72 -76 -133 -127q-67 64 -141 150q76 74 148 142
q63 -61 120 -126z" />
    <glyph glyph-name="uniFC8A" unicode="&#xfc8a;" horiz-adv-x="1046" arabic-form="final" 
d="M755 769q-70 66 -148 154q91 93 152 148q65 -61 149 -152q-64 -68 -153 -150zM1081 248q13 0 15.5 -17t2.5 -115q0 -95 -3.5 -111.5t-22.5 -16.5q-101 0 -169 22t-110 70.5t-61.5 118t-22.5 171.5q-90 -39 -203 -44q11 -81 11 -142q0 -422 -446 -630l-144 205
q121 52 205 105.5t127 104.5t60.5 96t17.5 93q0 110 -109 303l141 126q55 -21 113 -21q123 0 236 64l143 -10q1 -78 3.5 -124t10 -93.5t21.5 -72.5t38.5 -46t59.5 -28.5t86 -7.5z" />
    <glyph glyph-name="uniFC8B" unicode="&#xfc8b;" horiz-adv-x="1046" arabic-form="final" 
d="M755 769q-70 66 -148 154q91 93 152 148q65 -61 149 -152q-64 -68 -153 -150zM184 699q-70 66 -148 154q91 93 152 148q65 -61 149 -152q-64 -68 -153 -150zM1081 248q13 0 15.5 -17t2.5 -115q0 -95 -3.5 -111.5t-22.5 -16.5q-101 0 -169 22t-110 70.5t-61.5 118
t-22.5 171.5q-90 -39 -203 -44q11 -81 11 -142q0 -422 -446 -630l-144 205q121 52 205 105.5t127 104.5t60.5 96t17.5 93q0 110 -109 303l141 126q55 -21 113 -21q123 0 236 64l143 -10q1 -78 3.5 -124t10 -93.5t21.5 -72.5t38.5 -46t59.5 -28.5t86 -7.5z" />
    <glyph glyph-name="uniFC8D" unicode="&#xfc8d;" horiz-adv-x="1471" arabic-form="final" 
d="M1180 766q-70 66 -148 154q91 93 152 148q65 -61 149 -152q-64 -68 -153 -150zM494 674q-70 66 -148 154q91 93 152 148q65 -61 149 -152q-64 -68 -153 -150zM1506 248q14 0 16.5 -17t2.5 -115q0 -95 -3.5 -111.5t-23.5 -16.5q-197 0 -276.5 89.5t-85.5 295.5
q-90 -46 -207 -46h-9q36 -115 36 -238q0 -169 -67 -268q-57 -85 -164 -134t-242 -49q-207 0 -318 113t-111 295q0 142 69 301h156q-30 -113 -30 -200q0 -130 66.5 -185t188.5 -55q92 0 173 26t128 67q-33 215 -142 495l147 95q53 -21 123 -21q119 0 213 55l142 -7
q0 -57 1.5 -95.5t5 -78.5t10 -65t18 -49t27.5 -37.5t38.5 -24.5t51 -15t66.5 -4z" />
    <glyph glyph-name="uniFC91" unicode="&#xfc91;" horiz-adv-x="1046" arabic-form="final" 
d="M710 370q-90 -39 -203 -44q11 -81 11 -142q0 -422 -446 -630l-144 205q121 52 205 105.5t127 104.5t60.5 96t17.5 93q0 110 -109 303l141 126q55 -21 113 -21q123 0 236 64l143 -10q1 -78 3.5 -124t10 -93.5t21.5 -72.5t38.5 -46t59.5 -28.5t86 -7.5q13 0 15.5 -17
t2.5 -115q0 -95 -3.5 -111.5t-22.5 -16.5q-101 0 -169 22t-110 70.5t-61.5 118t-22.5 171.5zM817 -293q71 75 135 130q97 -99 140 -151q-53 -58 -147 -142q-90 88 -122 124q-72 -76 -133 -127q-67 64 -141 150q76 74 148 142q63 -61 120 -126z" />
    <glyph glyph-name="uniFC92" unicode="&#xfc92;" horiz-adv-x="1046" arabic-form="final" 
d="M184 699q-70 66 -148 154q91 93 152 148q65 -61 149 -152q-64 -68 -153 -150zM710 370q-90 -39 -203 -44q11 -81 11 -142q0 -422 -446 -630l-144 205q121 52 205 105.5t127 104.5t60.5 96t17.5 93q0 110 -109 303l141 126q55 -21 113 -21q123 0 236 64l143 -10
q1 -78 3.5 -124t10 -93.5t21.5 -72.5t38.5 -46t59.5 -28.5t86 -7.5q13 0 15.5 -17t2.5 -115q0 -95 -3.5 -111.5t-22.5 -16.5q-101 0 -169 22t-110 70.5t-61.5 118t-22.5 171.5zM817 -293q71 75 135 130q97 -99 140 -151q-53 -58 -147 -142q-90 88 -122 124
q-72 -76 -133 -127q-67 64 -141 150q76 74 148 142q63 -61 120 -126z" />
    <glyph glyph-name="uniFC94" unicode="&#xfc94;" horiz-adv-x="1471" arabic-form="final" 
d="M494 674q-70 66 -148 154q91 93 152 148q65 -61 149 -152q-64 -68 -153 -150zM929 327h-9q36 -115 36 -238q0 -169 -67 -268q-57 -85 -164 -134t-242 -49q-207 0 -318 113t-111 295q0 142 69 301h156q-30 -113 -30 -200q0 -130 66.5 -185t188.5 -55q92 0 173 26t128 67
q-33 215 -142 495l147 95q53 -21 123 -21q119 0 213 55l142 -7q0 -57 1.5 -95.5t5 -78.5t10 -65t18 -49t27.5 -37.5t38.5 -24.5t51 -15t66.5 -4q14 0 16.5 -17t2.5 -115q0 -95 -3.5 -111.5t-23.5 -16.5q-197 0 -276.5 89.5t-85.5 295.5q-90 -46 -207 -46zM1246 -296
q71 75 135 130q97 -99 140 -151q-53 -58 -147 -142q-90 88 -122 124q-72 -76 -133 -127q-67 64 -141 150q76 74 148 142q63 -61 120 -126z" />
    <glyph glyph-name="uniFCFB" unicode="&#xfcfb;" horiz-adv-x="2128" arabic-form="isolated" 
d="M2015 658q18 -196 18 -308q0 -168 -42 -299q-88 -67 -227 -67q-168 0 -243 92q-69 -89 -184 -89q-50 0 -87.5 13t-65 41t-44.5 53.5t-39 68.5q-26 46 -38.5 66.5t-32 43.5t-40.5 30.5t-50.5 12.5t-75.5 5q-114 0 -179 -22.5t-65 -52.5q0 -17 33 -29.5t149 -44.5
q55 -15 89.5 -27t72.5 -33.5t58.5 -48t34.5 -68t14 -95.5q0 -132 -70.5 -229.5t-192 -146.5t-278.5 -49q-230 0 -349 108t-119 292q0 120 62 300h158q-25 -123 -25 -198q0 -125 67.5 -178.5t209.5 -53.5q131 0 237.5 34.5t152.5 90.5q-25 19 -63 32t-124 33
q-156 37 -222.5 94t-66.5 162q0 161 123.5 279t305.5 118q64 0 114 -10t82 -26t57 -42.5t39.5 -52t29.5 -62.5q34 -82 61.5 -115t75.5 -33q44 0 74 19q38 112 71 273l170 -23q-9 -102 -44 -247q62 -25 152 -25q55 0 96 8q-12 146 -66 392z" />
    <glyph glyph-name="uniFCFC" unicode="&#xfcfc;" horiz-adv-x="2128" arabic-form="isolated" 
d="M2015 658q18 -196 18 -308q0 -168 -42 -299q-88 -67 -227 -67q-168 0 -243 92q-69 -89 -184 -89q-50 0 -87.5 13t-65 41t-44.5 53.5t-39 68.5q-26 46 -38.5 66.5t-32 43.5t-40.5 30.5t-50.5 12.5t-75.5 5q-114 0 -179 -22.5t-65 -52.5q0 -17 33 -29.5t149 -44.5
q55 -15 89.5 -27t72.5 -33.5t58.5 -48t34.5 -68t14 -95.5q0 -132 -70.5 -229.5t-192 -146.5t-278.5 -49q-230 0 -349 108t-119 292q0 120 62 300h158q-25 -123 -25 -198q0 -125 67.5 -178.5t209.5 -53.5q131 0 237.5 34.5t152.5 90.5q-25 19 -63 32t-124 33
q-156 37 -222.5 94t-66.5 162q0 161 123.5 279t305.5 118q64 0 114 -10t82 -26t57 -42.5t39.5 -52t29.5 -62.5q34 -82 61.5 -115t75.5 -33q44 0 74 19q38 112 71 273l170 -23q-9 -102 -44 -247q62 -25 152 -25q55 0 96 8q-12 146 -66 392zM549 -788q71 75 135 130
q97 -99 140 -151q-53 -58 -147 -142q-90 88 -122 124q-72 -76 -133 -127q-67 64 -141 150q76 74 148 142q63 -61 120 -126z" />
    <glyph glyph-name="uniFCFD" unicode="&#xfcfd;" horiz-adv-x="2128" arabic-form="isolated" 
d="M1549 918q-76 72 -132 134q48 55 132 135q66 -59 136 -135q-63 -67 -136 -134zM1432 665q-57 54 -143 143q82 85 143 140q55 -49 121 -119q44 46 128 126q61 -55 141 -140q-60 -70 -141 -144q-67 65 -121 122q-76 -80 -128 -128zM2015 658q18 -196 18 -308
q0 -168 -42 -299q-88 -67 -227 -67q-168 0 -243 92q-69 -89 -184 -89q-50 0 -87.5 13t-65 41t-44.5 53.5t-39 68.5q-26 46 -38.5 66.5t-32 43.5t-40.5 30.5t-50.5 12.5t-75.5 5q-114 0 -179 -22.5t-65 -52.5q0 -17 33 -29.5t149 -44.5q55 -15 89.5 -27t72.5 -33.5t58.5 -48
t34.5 -68t14 -95.5q0 -132 -70.5 -229.5t-192 -146.5t-278.5 -49q-230 0 -349 108t-119 292q0 120 62 300h158q-25 -123 -25 -198q0 -125 67.5 -178.5t209.5 -53.5q131 0 237.5 34.5t152.5 90.5q-25 19 -63 32t-124 33q-156 37 -222.5 94t-66.5 162q0 161 123.5 279
t305.5 118q64 0 114 -10t82 -26t57 -42.5t39.5 -52t29.5 -62.5q34 -82 61.5 -115t75.5 -33q44 0 74 19q38 112 71 273l170 -23q-9 -102 -44 -247q62 -25 152 -25q55 0 96 8q-12 146 -66 392z" />
    <glyph glyph-name="uniFCFE" unicode="&#xfcfe;" horiz-adv-x="2128" arabic-form="isolated" 
d="M1549 918q-76 72 -132 134q48 55 132 135q66 -59 136 -135q-63 -67 -136 -134zM1432 665q-57 54 -143 143q82 85 143 140q55 -49 121 -119q44 46 128 126q61 -55 141 -140q-60 -70 -141 -144q-67 65 -121 122q-76 -80 -128 -128zM2015 658q18 -196 18 -308
q0 -168 -42 -299q-88 -67 -227 -67q-168 0 -243 92q-69 -89 -184 -89q-50 0 -87.5 13t-65 41t-44.5 53.5t-39 68.5q-26 46 -38.5 66.5t-32 43.5t-40.5 30.5t-50.5 12.5t-75.5 5q-114 0 -179 -22.5t-65 -52.5q0 -17 33 -29.5t149 -44.5q55 -15 89.5 -27t72.5 -33.5t58.5 -48
t34.5 -68t14 -95.5q0 -132 -70.5 -229.5t-192 -146.5t-278.5 -49q-230 0 -349 108t-119 292q0 120 62 300h158q-25 -123 -25 -198q0 -125 67.5 -178.5t209.5 -53.5q131 0 237.5 34.5t152.5 90.5q-25 19 -63 32t-124 33q-156 37 -222.5 94t-66.5 162q0 161 123.5 279
t305.5 118q64 0 114 -10t82 -26t57 -42.5t39.5 -52t29.5 -62.5q34 -82 61.5 -115t75.5 -33q44 0 74 19q38 112 71 273l170 -23q-9 -102 -44 -247q62 -25 152 -25q55 0 96 8q-12 146 -66 392zM549 -788q71 75 135 130q97 -99 140 -151q-53 -58 -147 -142q-90 88 -122 124
q-72 -76 -133 -127q-67 64 -141 150q76 74 148 142q63 -61 120 -126z" />
    <glyph glyph-name="uniFD05" unicode="&#xfd05;" horiz-adv-x="2191" arabic-form="isolated" 
d="M1799 691q146 0 230.5 -101.5t84.5 -258.5q0 -155 -63 -267q-178 -95 -470 -95q-204 0 -321.5 39.5t-177.5 147.5q-31 58 -46.5 83t-42 47.5t-57.5 28.5t-84 6q-106 0 -169 -23t-63 -52q0 -17 34 -30.5t148 -43.5q55 -15 89.5 -27t72.5 -33.5t59 -48t34.5 -68t13.5 -95.5
q0 -132 -70.5 -229.5t-192 -146.5t-278.5 -49q-230 0 -349 108t-119 292q0 120 62 300h158q-25 -123 -25 -198q0 -125 67.5 -178.5t209.5 -53.5q131 0 237.5 34.5t152.5 89.5q-25 20 -62 32.5t-125 33.5q-156 37 -222.5 93t-66.5 163q0 163 126.5 279.5t323.5 116.5
q40 0 73 -6t57 -14t45.5 -25t34.5 -31t28 -39.5t23.5 -43t22.5 -49.5q16 -39 30.5 -62t38.5 -39q117 190 257.5 301.5t290.5 111.5zM1381 239q74 -10 220 -10q217 0 378 41q-16 82 -77 133.5t-155 51.5q-184 0 -366 -216z" />
    <glyph glyph-name="uniFD06" unicode="&#xfd06;" horiz-adv-x="2191" arabic-form="isolated" 
d="M1799 691q146 0 230.5 -101.5t84.5 -258.5q0 -155 -63 -267q-178 -95 -470 -95q-204 0 -321.5 39.5t-177.5 147.5q-31 58 -46.5 83t-42 47.5t-57.5 28.5t-84 6q-106 0 -169 -23t-63 -52q0 -17 34 -30.5t148 -43.5q55 -15 89.5 -27t72.5 -33.5t59 -48t34.5 -68t13.5 -95.5
q0 -132 -70.5 -229.5t-192 -146.5t-278.5 -49q-230 0 -349 108t-119 292q0 120 62 300h158q-25 -123 -25 -198q0 -125 67.5 -178.5t209.5 -53.5q131 0 237.5 34.5t152.5 89.5q-25 20 -62 32.5t-125 33.5q-156 37 -222.5 93t-66.5 163q0 163 126.5 279.5t323.5 116.5
q40 0 73 -6t57 -14t45.5 -25t34.5 -31t28 -39.5t23.5 -43t22.5 -49.5q16 -39 30.5 -62t38.5 -39q117 190 257.5 301.5t290.5 111.5zM1381 239q74 -10 220 -10q217 0 378 41q-16 82 -77 133.5t-155 51.5q-184 0 -366 -216zM558 -788q71 75 135 130q97 -99 140 -151
q-53 -58 -147 -142q-90 88 -122 124q-72 -76 -133 -127q-67 64 -141 150q76 74 148 142q63 -61 120 -126z" />
    <glyph glyph-name="uniFD07" unicode="&#xfd07;" horiz-adv-x="2191" arabic-form="isolated" 
d="M1677 852q-70 66 -148 154q91 93 152 148q65 -61 149 -152q-64 -68 -153 -150zM1799 691q146 0 230.5 -101.5t84.5 -258.5q0 -155 -63 -267q-178 -95 -470 -95q-204 0 -321.5 39.5t-177.5 147.5q-31 58 -46.5 83t-42 47.5t-57.5 28.5t-84 6q-106 0 -169 -23t-63 -52
q0 -17 34 -30.5t148 -43.5q55 -15 89.5 -27t72.5 -33.5t59 -48t34.5 -68t13.5 -95.5q0 -132 -70.5 -229.5t-192 -146.5t-278.5 -49q-230 0 -349 108t-119 292q0 120 62 300h158q-25 -123 -25 -198q0 -125 67.5 -178.5t209.5 -53.5q131 0 237.5 34.5t152.5 89.5
q-25 20 -62 32.5t-125 33.5q-156 37 -222.5 93t-66.5 163q0 163 126.5 279.5t323.5 116.5q40 0 73 -6t57 -14t45.5 -25t34.5 -31t28 -39.5t23.5 -43t22.5 -49.5q16 -39 30.5 -62t38.5 -39q117 190 257.5 301.5t290.5 111.5zM1381 239q74 -10 220 -10q217 0 378 41
q-16 82 -77 133.5t-155 51.5q-184 0 -366 -216z" />
    <glyph glyph-name="uniFD08" unicode="&#xfd08;" horiz-adv-x="2191" arabic-form="isolated" 
d="M1677 852q-70 66 -148 154q91 93 152 148q65 -61 149 -152q-64 -68 -153 -150zM1799 691q146 0 230.5 -101.5t84.5 -258.5q0 -155 -63 -267q-178 -95 -470 -95q-204 0 -321.5 39.5t-177.5 147.5q-31 58 -46.5 83t-42 47.5t-57.5 28.5t-84 6q-106 0 -169 -23t-63 -52
q0 -17 34 -30.5t148 -43.5q55 -15 89.5 -27t72.5 -33.5t59 -48t34.5 -68t13.5 -95.5q0 -132 -70.5 -229.5t-192 -146.5t-278.5 -49q-230 0 -349 108t-119 292q0 120 62 300h158q-25 -123 -25 -198q0 -125 67.5 -178.5t209.5 -53.5q131 0 237.5 34.5t152.5 89.5
q-25 20 -62 32.5t-125 33.5q-156 37 -222.5 93t-66.5 163q0 163 126.5 279.5t323.5 116.5q40 0 73 -6t57 -14t45.5 -25t34.5 -31t28 -39.5t23.5 -43t22.5 -49.5q16 -39 30.5 -62t38.5 -39q117 190 257.5 301.5t290.5 111.5zM1381 239q74 -10 220 -10q217 0 378 41
q-16 82 -77 133.5t-155 51.5q-184 0 -366 -216zM558 -788q71 75 135 130q97 -99 140 -151q-53 -58 -147 -142q-90 88 -122 124q-72 -76 -133 -127q-67 64 -141 150q76 74 148 142q63 -61 120 -126z" />
    <glyph glyph-name="uniFD0D" unicode="&#xfd0d;" horiz-adv-x="1819" arabic-form="isolated" 
d="M1224 918q-76 72 -132 134q48 55 132 135q66 -59 136 -135q-63 -67 -136 -134zM1107 665q-57 54 -143 143q82 85 143 140q55 -49 121 -119q44 46 128 126q61 -55 141 -140q-60 -70 -141 -144q-67 65 -121 122q-76 -80 -128 -128zM1688 658q18 -196 18 -308
q0 -168 -42 -299q-88 -67 -227 -67q-170 0 -245 94q-71 -90 -206 -90q-138 0 -204.5 74.5t-84.5 219.5q-93 -3 -192 -11q11 -61 11 -123q0 -386 -443 -595l-145 204q127 53 213.5 106.5t127 101t56 84.5t15.5 75q0 97 -72 184l68 188q203 33 524 35q0 -67 2.5 -108t10.5 -78
t23 -56t39.5 -29.5t61.5 -10.5q61 0 85 17q39 120 71 273l169 -23q-10 -108 -43 -247q62 -25 153 -25q55 0 96 8q-12 146 -66 392z" />
    <glyph glyph-name="uniFD0E" unicode="&#xfd0e;" horiz-adv-x="1819" arabic-form="isolated" 
d="M1688 658q18 -196 18 -308q0 -168 -42 -299q-88 -67 -227 -67q-170 0 -245 94q-71 -90 -206 -90q-138 0 -204.5 74.5t-84.5 219.5q-93 -3 -192 -11q11 -61 11 -123q0 -386 -443 -595l-145 204q127 53 213.5 106.5t127 101t56 84.5t15.5 75q0 97 -72 184l68 188
q203 33 524 35q0 -67 2.5 -108t10.5 -78t23 -56t39.5 -29.5t61.5 -10.5q61 0 85 17q39 120 71 273l169 -23q-10 -108 -43 -247q62 -25 153 -25q55 0 96 8q-12 146 -66 392z" />
    <glyph glyph-name="uniFD0F" unicode="&#xfd0f;" horiz-adv-x="1871" arabic-form="isolated" 
d="M1478 691q146 0 231 -101.5t85 -258.5q0 -155 -63 -267q-178 -95 -471 -95q-110 0 -187 9t-143 31.5t-109.5 63t-74.5 102.5t-50 151q-68 0 -192 -8q12 -75 12 -146q0 -69 -11 -130.5t-41 -130.5t-78.5 -128.5t-128.5 -119.5t-185 -109l-144 204q100 42 175 86t119 83
t71 80t36 75t9 71q0 109 -65 186l39 212q261 36 511 38q13 -117 37.5 -191t76.5 -112q114 186 253.5 295.5t287.5 109.5zM1062 240q73 -11 234 -11q204 0 364 38q-16 83 -76.5 135.5t-153.5 52.5q-189 0 -368 -215z" />
    <glyph glyph-name="uniFD10" unicode="&#xfd10;" horiz-adv-x="1871" arabic-form="isolated" 
d="M1365 853q-70 66 -148 154q91 93 152 148q65 -61 149 -152q-64 -68 -153 -150zM1478 691q146 0 231 -101.5t85 -258.5q0 -155 -63 -267q-178 -95 -471 -95q-110 0 -187 9t-143 31.5t-109.5 63t-74.5 102.5t-50 151q-68 0 -192 -8q12 -75 12 -146q0 -69 -11 -130.5
t-41 -130.5t-78.5 -128.5t-128.5 -119.5t-185 -109l-144 204q100 42 175 86t119 83t71 80t36 75t9 71q0 109 -65 186l39 212q261 36 511 38q13 -117 37.5 -191t76.5 -112q114 186 253.5 295.5t287.5 109.5zM1062 240q73 -11 234 -11q204 0 364 38q-16 83 -76.5 135.5
t-153.5 52.5q-189 0 -368 -215z" />
    <glyph glyph-name="uniFD17" unicode="&#xfd17;" horiz-adv-x="2183" arabic-form="final" 
d="M2218 248q13 0 15.5 -17t2.5 -115q0 -95 -3.5 -111.5t-22.5 -16.5q-186 0 -256 84q-73 -87 -206 -87q-145 0 -218 104q-70 -102 -193 -102q-50 0 -87.5 13t-65 41t-44.5 53.5t-39 68.5q-26 46 -38.5 66.5t-32 43.5t-40.5 30.5t-50.5 12.5t-75.5 5q-114 0 -179 -22.5
t-65 -52.5q0 -17 33 -29.5t149 -44.5q55 -15 89.5 -27t72.5 -33.5t58.5 -48t34.5 -68t14 -95.5q0 -132 -70.5 -229.5t-192 -146.5t-278.5 -49q-230 0 -349 108t-119 292q0 120 62 300h158q-25 -123 -25 -198q0 -125 67.5 -178.5t209.5 -53.5q131 0 237.5 34.5t152.5 90.5
q-25 19 -63 32t-124 33q-156 37 -222.5 94t-66.5 162q0 161 123.5 279t305.5 118q64 0 114 -10t82 -26t57 -42.5t39.5 -52t29.5 -62.5q34 -82 61.5 -115t75.5 -33q44 0 74 19q38 112 71 273l170 -23q-9 -103 -44 -246q59 -25 126 -25q78 0 119 29q4 22 4 60q0 91 -17 185
l178 14q22 -116 22 -215q0 -16 -2 -46q69 -24 181 -24z" />
    <glyph glyph-name="uniFD18" unicode="&#xfd18;" horiz-adv-x="2183" arabic-form="final" 
d="M2218 248q13 0 15.5 -17t2.5 -115q0 -95 -3.5 -111.5t-22.5 -16.5q-186 0 -256 84q-73 -87 -206 -87q-145 0 -218 104q-70 -102 -193 -102q-50 0 -87.5 13t-65 41t-44.5 53.5t-39 68.5q-26 46 -38.5 66.5t-32 43.5t-40.5 30.5t-50.5 12.5t-75.5 5q-114 0 -179 -22.5
t-65 -52.5q0 -17 33 -29.5t149 -44.5q55 -15 89.5 -27t72.5 -33.5t58.5 -48t34.5 -68t14 -95.5q0 -132 -70.5 -229.5t-192 -146.5t-278.5 -49q-230 0 -349 108t-119 292q0 120 62 300h158q-25 -123 -25 -198q0 -125 67.5 -178.5t209.5 -53.5q131 0 237.5 34.5t152.5 90.5
q-25 19 -63 32t-124 33q-156 37 -222.5 94t-66.5 162q0 161 123.5 279t305.5 118q64 0 114 -10t82 -26t57 -42.5t39.5 -52t29.5 -62.5q34 -82 61.5 -115t75.5 -33q44 0 74 19q38 112 71 273l170 -23q-9 -103 -44 -246q59 -25 126 -25q78 0 119 29q4 22 4 60q0 91 -17 185
l178 14q22 -116 22 -215q0 -16 -2 -46q69 -24 181 -24zM549 -788q71 75 135 130q97 -99 140 -151q-53 -58 -147 -142q-90 88 -122 124q-72 -76 -133 -127q-67 64 -141 150q76 74 148 142q63 -61 120 -126z" />
    <glyph glyph-name="uniFD19" unicode="&#xfd19;" horiz-adv-x="2183" arabic-form="final" 
d="M1571 915q-76 72 -132 134q48 55 132 135q66 -59 136 -135q-63 -67 -136 -134zM1454 662q-57 54 -143 143q82 85 143 140q55 -49 121 -119q44 46 128 126q61 -55 141 -140q-60 -70 -141 -144q-67 65 -121 122q-76 -80 -128 -128zM2218 248q13 0 15.5 -17t2.5 -115
q0 -95 -3.5 -111.5t-22.5 -16.5q-186 0 -256 84q-73 -87 -206 -87q-145 0 -218 104q-70 -102 -193 -102q-50 0 -87.5 13t-65 41t-44.5 53.5t-39 68.5q-26 46 -38.5 66.5t-32 43.5t-40.5 30.5t-50.5 12.5t-75.5 5q-114 0 -179 -22.5t-65 -52.5q0 -17 33 -29.5t149 -44.5
q55 -15 89.5 -27t72.5 -33.5t58.5 -48t34.5 -68t14 -95.5q0 -132 -70.5 -229.5t-192 -146.5t-278.5 -49q-230 0 -349 108t-119 292q0 120 62 300h158q-25 -123 -25 -198q0 -125 67.5 -178.5t209.5 -53.5q131 0 237.5 34.5t152.5 90.5q-25 19 -63 32t-124 33
q-156 37 -222.5 94t-66.5 162q0 161 123.5 279t305.5 118q64 0 114 -10t82 -26t57 -42.5t39.5 -52t29.5 -62.5q34 -82 61.5 -115t75.5 -33q44 0 74 19q38 112 71 273l170 -23q-9 -103 -44 -246q59 -25 126 -25q78 0 119 29q4 22 4 60q0 91 -17 185l178 14q22 -116 22 -215
q0 -16 -2 -46q69 -24 181 -24z" />
    <glyph glyph-name="uniFD1A" unicode="&#xfd1a;" horiz-adv-x="2183" arabic-form="final" 
d="M1571 915q-76 72 -132 134q48 55 132 135q66 -59 136 -135q-63 -67 -136 -134zM1454 662q-57 54 -143 143q82 85 143 140q55 -49 121 -119q44 46 128 126q61 -55 141 -140q-60 -70 -141 -144q-67 65 -121 122q-76 -80 -128 -128zM2218 248q13 0 15.5 -17t2.5 -115
q0 -95 -3.5 -111.5t-22.5 -16.5q-186 0 -256 84q-73 -87 -206 -87q-145 0 -218 104q-70 -102 -193 -102q-50 0 -87.5 13t-65 41t-44.5 53.5t-39 68.5q-26 46 -38.5 66.5t-32 43.5t-40.5 30.5t-50.5 12.5t-75.5 5q-114 0 -179 -22.5t-65 -52.5q0 -17 33 -29.5t149 -44.5
q55 -15 89.5 -27t72.5 -33.5t58.5 -48t34.5 -68t14 -95.5q0 -132 -70.5 -229.5t-192 -146.5t-278.5 -49q-230 0 -349 108t-119 292q0 120 62 300h158q-25 -123 -25 -198q0 -125 67.5 -178.5t209.5 -53.5q131 0 237.5 34.5t152.5 90.5q-25 19 -63 32t-124 33
q-156 37 -222.5 94t-66.5 162q0 161 123.5 279t305.5 118q64 0 114 -10t82 -26t57 -42.5t39.5 -52t29.5 -62.5q34 -82 61.5 -115t75.5 -33q44 0 74 19q38 112 71 273l170 -23q-9 -103 -44 -246q59 -25 126 -25q78 0 119 29q4 22 4 60q0 91 -17 185l178 14q22 -116 22 -215
q0 -16 -2 -46q69 -24 181 -24zM549 -788q71 75 135 130q97 -99 140 -151q-53 -58 -147 -142q-90 88 -122 124q-72 -76 -133 -127q-67 64 -141 150q76 74 148 142q63 -61 120 -126z" />
    <glyph glyph-name="uniFD21" unicode="&#xfd21;" horiz-adv-x="2257" arabic-form="final" 
d="M2292 248q13 0 15.5 -17t2.5 -115q0 -95 -3.5 -111.5t-23.5 -16.5q-171 0 -259 85q-158 -104 -446 -104q-200 0 -320 39.5t-176 147.5q-31 58 -46.5 83t-42 47.5t-57.5 28.5t-84 6q-106 0 -169 -23t-63 -52q0 -17 34 -30.5t148 -43.5q55 -15 89.5 -27t72.5 -33.5t59 -48
t34.5 -68t13.5 -95.5q0 -132 -70.5 -229.5t-192 -146.5t-278.5 -49q-230 0 -349 108t-119 292q0 120 62 300h158q-25 -123 -25 -198q0 -125 67.5 -178.5t209.5 -53.5q131 0 237.5 34.5t152.5 89.5q-25 20 -62 32.5t-125 33.5q-156 37 -222.5 93t-66.5 163q0 163 126.5 279.5
t323.5 116.5q40 0 73 -6t57 -14t45.5 -25t34.5 -31t28 -39.5t23.5 -43t22.5 -49.5q31 -71 67 -99q113 189 258 305t295 116q145 0 229 -99t84 -250q0 -40 -6 -79q79 -25 183 -25zM1377 238q77 -9 213 -9q251 0 382 55q-6 72 -64.5 125.5t-152.5 53.5q-100 0 -198.5 -62.5
t-179.5 -162.5z" />
    <glyph glyph-name="uniFD22" unicode="&#xfd22;" horiz-adv-x="2257" arabic-form="final" 
d="M2292 248q13 0 15.5 -17t2.5 -115q0 -95 -3.5 -111.5t-23.5 -16.5q-171 0 -259 85q-158 -104 -446 -104q-200 0 -320 39.5t-176 147.5q-31 58 -46.5 83t-42 47.5t-57.5 28.5t-84 6q-106 0 -169 -23t-63 -52q0 -17 34 -30.5t148 -43.5q55 -15 89.5 -27t72.5 -33.5t59 -48
t34.5 -68t13.5 -95.5q0 -132 -70.5 -229.5t-192 -146.5t-278.5 -49q-230 0 -349 108t-119 292q0 120 62 300h158q-25 -123 -25 -198q0 -125 67.5 -178.5t209.5 -53.5q131 0 237.5 34.5t152.5 89.5q-25 20 -62 32.5t-125 33.5q-156 37 -222.5 93t-66.5 163q0 163 126.5 279.5
t323.5 116.5q40 0 73 -6t57 -14t45.5 -25t34.5 -31t28 -39.5t23.5 -43t22.5 -49.5q31 -71 67 -99q113 189 258 305t295 116q145 0 229 -99t84 -250q0 -40 -6 -79q79 -25 183 -25zM1377 238q77 -9 213 -9q251 0 382 55q-6 72 -64.5 125.5t-152.5 53.5q-100 0 -198.5 -62.5
t-179.5 -162.5zM564 -788q71 75 135 130q97 -99 140 -151q-53 -58 -147 -142q-90 88 -122 124q-72 -76 -133 -127q-67 64 -141 150q76 74 148 142q63 -61 120 -126z" />
    <glyph glyph-name="uniFD23" unicode="&#xfd23;" horiz-adv-x="2257" arabic-form="final" 
d="M1705 855q-70 66 -148 154q91 93 152 148q65 -61 149 -152q-64 -68 -153 -150zM2292 248q13 0 15.5 -17t2.5 -115q0 -95 -3.5 -111.5t-23.5 -16.5q-171 0 -259 85q-158 -104 -446 -104q-200 0 -320 39.5t-176 147.5q-31 58 -46.5 83t-42 47.5t-57.5 28.5t-84 6
q-106 0 -169 -23t-63 -52q0 -17 34 -30.5t148 -43.5q55 -15 89.5 -27t72.5 -33.5t59 -48t34.5 -68t13.5 -95.5q0 -132 -70.5 -229.5t-192 -146.5t-278.5 -49q-230 0 -349 108t-119 292q0 120 62 300h158q-25 -123 -25 -198q0 -125 67.5 -178.5t209.5 -53.5q131 0 237.5 34.5
t152.5 89.5q-25 20 -62 32.5t-125 33.5q-156 37 -222.5 93t-66.5 163q0 163 126.5 279.5t323.5 116.5q40 0 73 -6t57 -14t45.5 -25t34.5 -31t28 -39.5t23.5 -43t22.5 -49.5q31 -71 67 -99q113 189 258 305t295 116q145 0 229 -99t84 -250q0 -40 -6 -79q79 -25 183 -25z
M1377 238q77 -9 213 -9q251 0 382 55q-6 72 -64.5 125.5t-152.5 53.5q-100 0 -198.5 -62.5t-179.5 -162.5z" />
    <glyph glyph-name="uniFD24" unicode="&#xfd24;" horiz-adv-x="2257" arabic-form="final" 
d="M1705 855q-70 66 -148 154q91 93 152 148q65 -61 149 -152q-64 -68 -153 -150zM2292 248q13 0 15.5 -17t2.5 -115q0 -95 -3.5 -111.5t-23.5 -16.5q-171 0 -259 85q-158 -104 -446 -104q-200 0 -320 39.5t-176 147.5q-31 58 -46.5 83t-42 47.5t-57.5 28.5t-84 6
q-106 0 -169 -23t-63 -52q0 -17 34 -30.5t148 -43.5q55 -15 89.5 -27t72.5 -33.5t59 -48t34.5 -68t13.5 -95.5q0 -132 -70.5 -229.5t-192 -146.5t-278.5 -49q-230 0 -349 108t-119 292q0 120 62 300h158q-25 -123 -25 -198q0 -125 67.5 -178.5t209.5 -53.5q131 0 237.5 34.5
t152.5 89.5q-25 20 -62 32.5t-125 33.5q-156 37 -222.5 93t-66.5 163q0 163 126.5 279.5t323.5 116.5q40 0 73 -6t57 -14t45.5 -25t34.5 -31t28 -39.5t23.5 -43t22.5 -49.5q31 -71 67 -99q113 189 258 305t295 116q145 0 229 -99t84 -250q0 -40 -6 -79q79 -25 183 -25z
M1377 238q77 -9 213 -9q251 0 382 55q-6 72 -64.5 125.5t-152.5 53.5q-100 0 -198.5 -62.5t-179.5 -162.5zM564 -788q71 75 135 130q97 -99 140 -151q-53 -58 -147 -142q-90 88 -122 124q-72 -76 -133 -127q-67 64 -141 150q76 74 148 142q63 -61 120 -126z" />
    <glyph glyph-name="uniFD29" unicode="&#xfd29;" horiz-adv-x="1851" arabic-form="final" 
d="M1221 918q-76 72 -132 134q48 55 132 135q66 -59 136 -135q-63 -67 -136 -134zM1104 665q-57 54 -143 143q82 85 143 140q55 -49 121 -119q44 46 128 126q61 -55 141 -140q-60 -70 -141 -144q-67 65 -121 122q-76 -80 -128 -128zM1886 248q13 0 15.5 -17t2.5 -115
q0 -95 -3.5 -111.5t-22.5 -16.5q-186 0 -256 84q-75 -87 -207 -87q-142 0 -217 101q-72 -98 -212 -98q-138 0 -204.5 74.5t-84.5 219.5q-93 -3 -192 -11q11 -61 11 -123q0 -386 -443 -595l-145 204q127 53 213.5 106.5t127 101t56 84.5t15.5 75q0 97 -72 184l68 188
q203 33 524 35q0 -67 2.5 -108t10.5 -78t23 -56t39.5 -29.5t61.5 -10.5q61 0 85 17q39 120 71 273l169 -23q-10 -109 -43 -248q57 -23 121 -23q78 0 119 29q4 22 4 60q0 91 -17 185l178 14q22 -116 22 -215q0 -17 -2 -45q67 -25 182 -25z" />
    <glyph glyph-name="uniFD2A" unicode="&#xfd2a;" horiz-adv-x="1851" arabic-form="final" 
d="M1886 248q13 0 15.5 -17t2.5 -115q0 -95 -3.5 -111.5t-22.5 -16.5q-186 0 -256 84q-75 -87 -207 -87q-142 0 -217 101q-72 -98 -212 -98q-138 0 -204.5 74.5t-84.5 219.5q-93 -3 -192 -11q11 -61 11 -123q0 -386 -443 -595l-145 204q127 53 213.5 106.5t127 101t56 84.5
t15.5 75q0 97 -72 184l68 188q203 33 524 35q0 -67 2.5 -108t10.5 -78t23 -56t39.5 -29.5t61.5 -10.5q61 0 85 17q39 120 71 273l169 -23q-10 -109 -43 -248q57 -23 121 -23q78 0 119 29q4 22 4 60q0 91 -17 185l178 14q22 -116 22 -215q0 -17 -2 -45q67 -25 182 -25z" />
    <glyph glyph-name="uniFD2B" unicode="&#xfd2b;" horiz-adv-x="1935" arabic-form="final" 
d="M1970 248q14 0 16.5 -17t2.5 -115q0 -95 -3.5 -111.5t-23.5 -16.5q-176 0 -262 87q-158 -106 -446 -106q-109 0 -185.5 9t-141 31.5t-107 63.5t-73.5 102.5t-50 150.5q-70 0 -192 -8q11 -81 11 -146q0 -69 -11 -130.5t-41 -130.5t-78.5 -128.5t-128.5 -119.5t-185 -109
l-144 204q100 42 175 86t119.5 83t71.5 80.5t36 75t9 70.5q0 108 -66 186l39 212q261 36 512 38q12 -115 35.5 -189.5t71.5 -113.5q111 186 255.5 300.5t292.5 114.5q147 0 230.5 -98t83.5 -250q0 -41 -6 -80q79 -25 183 -25zM1056 240q73 -11 216 -11q242 0 378 52
q-2 71 -60.5 126.5t-156.5 55.5q-99 0 -197.5 -62t-179.5 -161z" />
    <glyph glyph-name="uniFD2C" unicode="&#xfd2c;" horiz-adv-x="1935" arabic-form="final" 
d="M1363 853q-70 66 -148 154q91 93 152 148q65 -61 149 -152q-64 -68 -153 -150zM1970 248q14 0 16.5 -17t2.5 -115q0 -95 -3.5 -111.5t-23.5 -16.5q-176 0 -262 87q-158 -106 -446 -106q-109 0 -185.5 9t-141 31.5t-107 63.5t-73.5 102.5t-50 150.5q-70 0 -192 -8
q11 -81 11 -146q0 -69 -11 -130.5t-41 -130.5t-78.5 -128.5t-128.5 -119.5t-185 -109l-144 204q100 42 175 86t119.5 83t71.5 80.5t36 75t9 70.5q0 108 -66 186l39 212q261 36 512 38q12 -115 35.5 -189.5t71.5 -113.5q111 186 255.5 300.5t292.5 114.5q147 0 230.5 -98
t83.5 -250q0 -41 -6 -80q79 -25 183 -25zM1056 240q73 -11 216 -11q242 0 378 52q-2 71 -60.5 126.5t-156.5 55.5q-99 0 -197.5 -62t-179.5 -161z" />
    <glyph glyph-name="uniFE82" unicode="&#x622;" horiz-adv-x="446" arabic-form="final" 
d="M-52 1260q20 168 148 168q22 0 73 -8.5t87 -8.5q75 0 96 39l72 -39q-21 -73 -65.5 -106t-115.5 -33q-27 0 -80 6.5t-67 6.5q-28 0 -41.5 -14t-24.5 -44zM481 248q14 0 16.5 -17t2.5 -115q0 -95 -3.5 -111.5t-23.5 -16.5q-71 0 -123.5 7t-100 26t-77 51t-47 84t-18.5 123
l-11 858l223 9l-7 -773q0 -74 32.5 -99.5t136.5 -25.5z" />
    <glyph glyph-name="uniFE84" unicode="&#x623;" horiz-adv-x="446" arabic-form="final" 
d="M392 1459v-130q-236 -57 -408 -111v118l86 32v2q-62 42 -62 112q0 80 63.5 147t154.5 67q59 0 103 -40l-4 -121q-31 8 -87 8q-113 0 -113 -48q0 -52 130 -70q52 15 137 34zM481 248q14 0 16.5 -17t2.5 -115q0 -95 -3.5 -111.5t-23.5 -16.5q-71 0 -123.5 7t-100 26t-77 51
t-47 84t-18.5 123l-11 858l223 9l-7 -773q0 -74 32.5 -99.5t136.5 -25.5z" />
    <glyph glyph-name="uniFE86" unicode="&#x624;" horiz-adv-x="826" arabic-form="final" 
d="M582 1052v-130q-236 -57 -408 -111v118l86 32v2q-62 42 -62 112q0 80 63.5 147t154.5 67q59 0 103 -40l-4 -121q-31 8 -87 8q-113 0 -113 -48q0 -52 130 -70q52 15 137 34zM861 248q13 0 15.5 -17t2.5 -115q0 -95 -3.5 -111.5t-23.5 -16.5q-74 0 -156 5
q-79 -402 -575 -437l-73 217q393 37 482 221h-58q-196 0 -286.5 70.5t-90.5 213.5q0 100 36 188t108 144.5t164 56.5q136 0 214 -112t92 -307h152zM245 334q0 -31 18.5 -51t56.5 -29.5t79.5 -13t102.5 -3.5q34 0 49 1q-17 92 -62.5 146.5t-118.5 54.5q-55 0 -90 -30t-35 -75
z" />
    <glyph glyph-name="uniFE88" unicode="&#x625;" horiz-adv-x="446" arabic-form="final" 
d="M481 248q14 0 16.5 -17t2.5 -115q0 -95 -3.5 -111.5t-23.5 -16.5q-71 0 -123.5 7t-100 26t-77 51t-47 84t-18.5 123l-11 858l223 9l-7 -773q0 -74 32.5 -99.5t136.5 -25.5zM159 -329q0 -52 130 -70q52 15 137 34v-130q-236 -57 -408 -111v118l86 32v2q-62 42 -62 112
q0 80 63.5 147t154.5 67q59 0 103 -40l-4 -121q-31 8 -87 8q-113 0 -113 -48z" />
    <glyph glyph-name="uniFE8A" unicode="&#x626;" horiz-adv-x="1119" arabic-form="final" 
d="M631 720v-130q-236 -57 -408 -111v118l86 32v2q-62 42 -62 112q0 80 63.5 147t154.5 67q59 0 103 -40l-4 -121q-31 8 -87 8q-113 0 -113 -48q0 -52 130 -70q52 15 137 34zM1153 248q14 0 16.5 -17t2.5 -115q0 -95 -3.5 -111.5t-23.5 -16.5q-53 0 -110 10q1 -12 1 -39
q0 -196 -142.5 -309.5t-371.5 -113.5q-223 0 -341.5 111t-118.5 301q0 148 69 335h157q-30 -133 -30 -233q0 -130 66.5 -186t207.5 -56q139 0 243.5 44t131.5 107q-18 41 -88 79.5t-187 83.5l70 213q103 -37 227 -62t224 -25z" />
    <glyph glyph-name="uniFE8B" unicode="&#x626;" horiz-adv-x="472" arabic-form="initial" 
d="M253 1021q52 15 137 34v-130q-236 -57 -408 -111v118l86 32v2q-62 42 -62 112q0 80 63.5 147t154.5 67q59 0 103 -40l-4 -121q-31 8 -87 8q-113 0 -113 -48q0 -52 130 -70zM138 643l226 15q19 -178 19 -309q0 -166 -43 -297q-109 -64 -313 -64q-14 0 -16.5 17t-2.5 115
q0 95 3.5 111.5t23.5 16.5q93 0 168 13q-13 140 -65 382z" />
    <glyph glyph-name="uniFE8C" unicode="&#x626;" horiz-adv-x="525" arabic-form="medial" 
d="M408 905v-130q-236 -57 -408 -111v118l86 32v2q-62 42 -62 112q0 80 63.5 147t154.5 67q59 0 103 -40l-4 -121q-31 8 -87 8q-113 0 -113 -48q0 -52 130 -70q52 15 137 34zM560 248q13 0 15.5 -17t2.5 -115q0 -95 -3.5 -111.5t-22.5 -16.5q-106 0 -173 27.5t-94 72.5
q-80 -100 -258 -100q-14 0 -16.5 17t-2.5 115q0 95 3.5 111.5t23.5 16.5q91 0 138 25q24 108 31 266l178 -11q0 -145 -17 -250q73 -30 195 -30z" />
    <glyph glyph-name="uniFE8E" unicode="&#x627;" horiz-adv-x="446" arabic-form="final" 
d="M481 248q14 0 16.5 -17t2.5 -115q0 -95 -3.5 -111.5t-23.5 -16.5q-71 0 -123.5 7t-100 26t-77 51t-47 84t-18.5 123l-11 858l223 9l-7 -773q0 -74 32.5 -99.5t136.5 -25.5z" />
    <glyph glyph-name="uniFE90" unicode="&#x628;" horiz-adv-x="1473" arabic-form="final" 
d="M1508 248q13 0 15.5 -17t2.5 -115q0 -95 -3.5 -111.5t-23.5 -16.5q-166 0 -237 71q-104 -65 -269.5 -101t-342.5 -36q-589 0 -589 392q0 118 50 234h156q-14 -70 -14 -130q0 -122 104.5 -174t314.5 -52q262 0 461 69q12 122 14 280l178 -3q2 -144 -4 -254q65 -36 187 -36
zM722 -253q65 -61 149 -152q-64 -68 -153 -150q-70 66 -148 154q91 93 152 148z" />
    <glyph glyph-name="uniFE91" unicode="&#x628;" horiz-adv-x="472" arabic-form="initial" 
d="M364 658q19 -178 19 -309q0 -166 -43 -297q-109 -64 -313 -64q-14 0 -16.5 17t-2.5 115q0 95 3.5 111.5t23.5 16.5q93 0 168 13q-13 140 -65 382zM181 -184q65 -61 149 -152q-64 -68 -153 -150q-70 66 -148 154q91 93 152 148z" />
    <glyph glyph-name="uniFE92" unicode="&#x628;" horiz-adv-x="525" arabic-form="medial" 
d="M560 248q13 0 15.5 -17t2.5 -115q0 -95 -3.5 -111.5t-22.5 -16.5q-106 0 -173 27.5t-94 72.5q-80 -100 -258 -100q-14 0 -16.5 17t-2.5 115q0 95 3.5 111.5t23.5 16.5q91 0 138 25q24 108 31 266l178 -11q0 -145 -17 -250q73 -30 195 -30zM264 -184q65 -61 149 -152
q-64 -68 -153 -150q-70 66 -148 154q91 93 152 148z" />
    <glyph glyph-name="uniFE94" unicode="&#x629;" horiz-adv-x="852" arabic-form="final" 
d="M423 1112q-67 64 -141 150q76 74 148 142q63 -61 120 -126q71 75 135 130q97 -99 140 -151q-53 -58 -147 -142q-90 88 -122 124q-72 -76 -133 -127zM887 248q13 0 15.5 -17t2.5 -115q0 -95 -3.5 -111.5t-22.5 -16.5q-148 0 -224 52.5t-105 150.5q-102 -63 -207 -63
q-121 0 -198 72t-77 194q0 94 48.5 175.5t145.5 138.5q86 50 224 78l-10 141l213 13q0 -449 8 -545q9 -92 47.5 -119.5t142.5 -27.5zM401 340q70 0 119 19q-11 114 -19 219q-124 -9 -193.5 -39.5t-69.5 -95.5q0 -47 43 -75t120 -28z" />
    <glyph glyph-name="uniFE96" unicode="&#x62a;" horiz-adv-x="1473" arabic-form="final" 
d="M572 679q-67 64 -141 150q76 74 148 142q63 -61 120 -126q71 75 135 130q97 -99 140 -151q-53 -58 -147 -142q-90 88 -122 124q-72 -76 -133 -127zM1508 248q13 0 15.5 -17t2.5 -115q0 -95 -3.5 -111.5t-23.5 -16.5q-166 0 -237 71q-104 -65 -269.5 -101t-342.5 -36
q-589 0 -589 392q0 118 50 234h156q-14 -70 -14 -130q0 -122 104.5 -174t314.5 -52q262 0 461 69q12 122 14 280l178 -3q2 -144 -4 -254q65 -36 187 -36z" />
    <glyph glyph-name="uniFE97" unicode="&#x62a;" horiz-adv-x="543" arabic-form="initial" 
d="M350 1130q97 -99 140 -151q-53 -58 -147 -142q-90 88 -122 124q-72 -76 -133 -127q-67 64 -141 150q76 74 148 142q63 -61 120 -126q71 75 135 130zM127 643l226 15q19 -178 19 -309q0 -166 -43 -297q-109 -64 -313 -64q-14 0 -16.5 17t-2.5 115q0 95 3.5 111.5
t23.5 16.5q93 0 168 13q-13 140 -65 382z" />
    <glyph glyph-name="uniFE98" unicode="&#x62a;" horiz-adv-x="525" arabic-form="medial" 
d="M155 684q-67 64 -141 150q76 74 148 142q63 -61 120 -126q71 75 135 130q97 -99 140 -151q-53 -58 -147 -142q-90 88 -122 124q-72 -76 -133 -127zM560 248q13 0 15.5 -17t2.5 -115q0 -95 -3.5 -111.5t-22.5 -16.5q-106 0 -173 27.5t-94 72.5q-80 -100 -258 -100
q-14 0 -16.5 17t-2.5 115q0 95 3.5 111.5t23.5 16.5q91 0 138 25q24 108 31 266l178 -11q0 -145 -17 -250q73 -30 195 -30z" />
    <glyph glyph-name="uniFE9A" unicode="&#x62b;" horiz-adv-x="1473" arabic-form="final" 
d="M700 909q-76 72 -132 134q48 55 132 135q66 -59 136 -135q-63 -67 -136 -134zM583 656q-57 54 -143 143q82 85 143 140q55 -49 121 -119q44 46 128 126q61 -55 141 -140q-60 -70 -141 -144q-67 65 -121 122q-76 -80 -128 -128zM1508 248q13 0 15.5 -17t2.5 -115
q0 -95 -3.5 -111.5t-23.5 -16.5q-166 0 -237 71q-104 -65 -269.5 -101t-342.5 -36q-589 0 -589 392q0 118 50 234h156q-14 -70 -14 -130q0 -122 104.5 -174t314.5 -52q262 0 461 69q12 122 14 280l178 -3q2 -144 -4 -254q65 -36 187 -36z" />
    <glyph glyph-name="uniFE9B" unicode="&#x62b;" horiz-adv-x="471" arabic-form="initial" 
d="M219 1064q-76 72 -132 134q48 55 132 135q66 -59 136 -135q-63 -67 -136 -134zM351 1101q61 -55 141 -140q-60 -70 -141 -144q-67 65 -121 122q-76 -80 -128 -128q-57 54 -143 143q82 85 143 140q55 -49 121 -119q44 46 128 126zM130 643l226 15q19 -178 19 -309
q0 -166 -43 -297q-109 -64 -313 -64q-14 0 -16.5 17t-2.5 115q0 95 3.5 111.5t23.5 16.5q93 0 168 13q-13 140 -65 382z" />
    <glyph glyph-name="uniFE9C" unicode="&#x62b;" horiz-adv-x="525" arabic-form="medial" 
d="M283 914q-76 72 -132 134q48 55 132 135q66 -59 136 -135q-63 -67 -136 -134zM166 661q-57 54 -143 143q82 85 143 140q55 -49 121 -119q44 46 128 126q61 -55 141 -140q-60 -70 -141 -144q-67 65 -121 122q-76 -80 -128 -128zM560 248q13 0 15.5 -17t2.5 -115
q0 -95 -3.5 -111.5t-22.5 -16.5q-106 0 -173 27.5t-94 72.5q-80 -100 -258 -100q-14 0 -16.5 17t-2.5 115q0 95 3.5 111.5t23.5 16.5q91 0 138 25q24 108 31 266l178 -11q0 -145 -17 -250q73 -30 195 -30z" />
    <glyph glyph-name="uniFE9E" unicode="&#x62c;" horiz-adv-x="1181" arabic-form="final" 
d="M1216 248q13 0 15.5 -17t2.5 -115q0 -95 -3.5 -111.5t-22.5 -16.5q-230 0 -344 58t-131 208q-106 -29 -187 -62t-149 -76t-104 -98.5t-36 -121.5q0 -119 117 -186.5t331 -67.5q169 0 336 37l10 -204q-70 -42 -180.5 -70.5t-237.5 -28.5q-265 0 -420 126.5t-155 323.5
q0 195 146.5 347t389.5 230v4q-20 5 -48 13q-98 26 -165 26q-87 0 -142.5 -18t-122.5 -58l-1 193q89 118 253 118q82 0 171 -27.5t245 -95.5q117 -52 257 -55l-4 -198h-31q-41 0 -100 -8q18 -29 84 -39t226 -10zM447 -72q91 93 152 148q65 -61 149 -152q-64 -68 -153 -150
q-70 66 -148 154z" />
    <glyph glyph-name="uniFE9F" unicode="&#x62c;" horiz-adv-x="1182" arabic-form="initial" 
d="M790 577q159 -65 295 -69l-4 -224q-117 -25 -213 -61t-224 -100q-140 -69 -286.5 -102t-330.5 -33q-14 0 -16.5 17t-2.5 115q0 95 3.5 111.5t23.5 16.5q351 4 550 85q105 42 133 50v4q-17 4 -33.5 8t-36 9.5t-31.5 8.5q-142 35 -204 35q-73 0 -126.5 -13.5t-128.5 -45.5
l-2 181q94 116 253 116q73 0 150 -23.5t231 -85.5zM539 -142q65 -61 149 -152q-64 -68 -153 -150q-70 66 -148 154q91 93 152 148z" />
    <glyph glyph-name="uniFEA0" unicode="&#x62c;" horiz-adv-x="1219" arabic-form="medial" 
d="M1253 248q14 0 16.5 -17t2.5 -115q0 -95 -3.5 -111.5t-23.5 -16.5q-213 0 -325.5 49t-140.5 173q-116 -69 -140 -82q-133 -72 -280 -106t-332 -34q-14 0 -16.5 17t-2.5 115q0 95 3.5 111.5t23.5 16.5q335 4 556 98q70 31 117 47v5q-42 8 -87 20q-123 30 -208 30
q-73 0 -126.5 -13.5t-128.5 -45.5l-2 181q94 116 253 116q81 0 166 -23t235 -77q150 -55 275 -59l-12 -205q-84 -9 -144 -32v-3q47 -39 324 -39zM600 -92q65 -61 149 -152q-64 -68 -153 -150q-70 66 -148 154q91 93 152 148z" />
    <glyph glyph-name="uniFEA2" unicode="&#x62d;" horiz-adv-x="1181" arabic-form="final" 
d="M1216 248q13 0 15.5 -17t2.5 -115q0 -95 -3.5 -111.5t-22.5 -16.5q-230 0 -344 58t-131 208q-106 -29 -187 -62t-149 -76t-104 -98.5t-36 -121.5q0 -119 117 -186.5t331 -67.5q169 0 336 37l10 -204q-70 -42 -180.5 -70.5t-237.5 -28.5q-265 0 -420 126.5t-155 323.5
q0 195 146.5 347t389.5 230v4q-20 5 -48 13q-98 26 -165 26q-87 0 -142.5 -18t-122.5 -58l-1 193q89 118 253 118q82 0 171 -27.5t245 -95.5q117 -52 257 -55l-4 -198h-31q-41 0 -100 -8q18 -29 84 -39t226 -10z" />
    <glyph glyph-name="uniFEA3" unicode="&#x62d;" horiz-adv-x="1182" arabic-form="initial" 
d="M790 577q159 -65 295 -69l-4 -224q-117 -25 -213 -61t-224 -100q-140 -69 -286.5 -102t-330.5 -33q-14 0 -16.5 17t-2.5 115q0 95 3.5 111.5t23.5 16.5q351 4 550 85q105 42 133 50v4q-17 4 -33.5 8t-36 9.5t-31.5 8.5q-142 35 -204 35q-73 0 -126.5 -13.5t-128.5 -45.5
l-2 181q94 116 253 116q73 0 150 -23.5t231 -85.5z" />
    <glyph glyph-name="uniFEA4" unicode="&#x62d;" horiz-adv-x="1219" arabic-form="medial" 
d="M1253 248q14 0 16.5 -17t2.5 -115q0 -95 -3.5 -111.5t-23.5 -16.5q-213 0 -325.5 49t-140.5 173q-116 -69 -140 -82q-133 -72 -280 -106t-332 -34q-14 0 -16.5 17t-2.5 115q0 95 3.5 111.5t23.5 16.5q335 4 556 98q70 31 117 47v5q-42 8 -87 20q-123 30 -208 30
q-73 0 -126.5 -13.5t-128.5 -45.5l-2 181q94 116 253 116q81 0 166 -23t235 -77q150 -55 275 -59l-12 -205q-84 -9 -144 -32v-3q47 -39 324 -39z" />
    <glyph glyph-name="uniFEA6" unicode="&#x62e;" horiz-adv-x="1181" arabic-form="final" 
d="M619 834q-70 66 -148 154q91 93 152 148q65 -61 149 -152q-64 -68 -153 -150zM1216 248q13 0 15.5 -17t2.5 -115q0 -95 -3.5 -111.5t-22.5 -16.5q-230 0 -344 58t-131 208q-106 -29 -187 -62t-149 -76t-104 -98.5t-36 -121.5q0 -119 117 -186.5t331 -67.5q169 0 336 37
l10 -204q-70 -42 -180.5 -70.5t-237.5 -28.5q-265 0 -420 126.5t-155 323.5q0 195 146.5 347t389.5 230v4q-20 5 -48 13q-98 26 -165 26q-87 0 -142.5 -18t-122.5 -58l-1 193q89 118 253 118q82 0 171 -27.5t245 -95.5q117 -52 257 -55l-4 -198h-31q-41 0 -100 -8
q18 -29 84 -39t226 -10z" />
    <glyph glyph-name="uniFEA7" unicode="&#x62e;" horiz-adv-x="1182" arabic-form="initial" 
d="M554 878q-70 66 -148 154q91 93 152 148q65 -61 149 -152q-64 -68 -153 -150zM790 577q159 -65 295 -69l-4 -224q-117 -25 -213 -61t-224 -100q-140 -69 -286.5 -102t-330.5 -33q-14 0 -16.5 17t-2.5 115q0 95 3.5 111.5t23.5 16.5q351 4 550 85q105 42 133 50v4
q-17 4 -33.5 8t-36 9.5t-31.5 8.5q-142 35 -204 35q-73 0 -126.5 -13.5t-128.5 -45.5l-2 181q94 116 253 116q73 0 150 -23.5t231 -85.5z" />
    <glyph glyph-name="uniFEA8" unicode="&#x62e;" horiz-adv-x="1219" arabic-form="medial" 
d="M582 834q-70 66 -148 154q91 93 152 148q65 -61 149 -152q-64 -68 -153 -150zM1253 248q14 0 16.5 -17t2.5 -115q0 -95 -3.5 -111.5t-23.5 -16.5q-213 0 -325.5 49t-140.5 173q-116 -69 -140 -82q-133 -72 -280 -106t-332 -34q-14 0 -16.5 17t-2.5 115q0 95 3.5 111.5
t23.5 16.5q335 4 556 98q70 31 117 47v5q-42 8 -87 20q-123 30 -208 30q-73 0 -126.5 -13.5t-128.5 -45.5l-2 181q94 116 253 116q81 0 166 -23t235 -77q150 -55 275 -59l-12 -205q-84 -9 -144 -32v-3q47 -39 324 -39z" />
    <glyph glyph-name="uniFEAA" unicode="&#x62f;" horiz-adv-x="917" arabic-form="final" 
d="M952 248q13 0 15.5 -17t2.5 -115q0 -95 -3.5 -111.5t-22.5 -16.5q-109 0 -175 28t-118 94q-55 -62 -143.5 -94t-190.5 -32q-178 0 -248 84l13 218q99 -39 236 -39q131 0 231 33q-80 159 -179 435l180 118q84 -272 182 -458q38 -72 80.5 -99.5t139.5 -27.5z" />
    <glyph glyph-name="uniFEAC" unicode="&#x630;" horiz-adv-x="917" arabic-form="final" 
d="M380 919q-70 66 -148 154q91 93 152 148q65 -61 149 -152q-64 -68 -153 -150zM952 248q13 0 15.5 -17t2.5 -115q0 -95 -3.5 -111.5t-22.5 -16.5q-109 0 -175 28t-118 94q-55 -62 -143.5 -94t-190.5 -32q-178 0 -248 84l13 218q99 -39 236 -39q131 0 231 33
q-80 159 -179 435l180 118q84 -272 182 -458q38 -72 80.5 -99.5t139.5 -27.5z" />
    <glyph glyph-name="uniFEAE" unicode="&#x631;" horiz-adv-x="662" arabic-form="final" 
d="M697 248q13 0 15.5 -17t2.5 -115q0 -95 -3.5 -111.5t-22.5 -16.5q-126 0 -187 54q-66 -309 -430 -488l-144 204q231 108 322 195t91 192q0 63 -22.5 143.5t-71.5 214.5l230 34q31 -150 37 -260q61 -29 183 -29z" />
    <glyph glyph-name="uniFEB0" unicode="&#x632;" horiz-adv-x="662" arabic-form="final" 
d="M311 684q-70 66 -148 154q91 93 152 148q65 -61 149 -152q-64 -68 -153 -150zM697 248q13 0 15.5 -17t2.5 -115q0 -95 -3.5 -111.5t-22.5 -16.5q-126 0 -187 54q-66 -309 -430 -488l-144 204q231 108 322 195t91 192q0 63 -22.5 143.5t-71.5 214.5l230 34
q31 -150 37 -260q61 -29 183 -29z" />
    <glyph glyph-name="uniFEB2" unicode="&#x633;" horiz-adv-x="1881" arabic-form="final" 
d="M1916 248q13 0 15.5 -17t2.5 -115q0 -95 -3.5 -111.5t-22.5 -16.5q-186 0 -256 84q-73 -87 -206 -87q-146 0 -220 106q-72 -105 -194 -105q-45 0 -84 17q-2 -106 -56 -191t-165 -135t-245 -50q-204 0 -315.5 113.5t-111.5 293.5q0 145 68 302h157q-29 -114 -29 -200
q0 -130 66 -184.5t188 -54.5q91 0 171 25.5t128 65.5q-28 180 -133 518l224 27q27 -153 39 -280q32 -9 70 -9q63 0 98 24q36 103 71 271l169 -23q-10 -114 -42 -244q61 -27 131 -27q78 0 119 29q4 22 4 60q0 91 -17 185l178 14q22 -116 22 -215q0 -16 -2 -46q69 -24 181 -24
z" />
    <glyph glyph-name="uniFEB3" unicode="&#x633;" horiz-adv-x="1304" arabic-form="initial" 
d="M1191 658q18 -196 18 -308q0 -168 -42 -299q-88 -67 -227 -67q-172 0 -246 96q-78 -94 -206 -94q-154 0 -223 95q-81 -93 -238 -93q-14 0 -16.5 17t-2.5 115q0 95 3.5 111.5t23.5 16.5q75 0 120 25q35 99 70 266l169 -16q-12 -127 -41 -243q59 -35 130 -35t108 27
q43 133 69 267l169 -23q-10 -121 -43 -248q59 -24 149 -24q55 0 96 8q-12 146 -66 392z" />
    <glyph glyph-name="uniFEB4" unicode="&#x633;" horiz-adv-x="1361" arabic-form="medial" 
d="M1396 248q13 0 15.5 -17t2.5 -115q0 -95 -3.5 -111.5t-22.5 -16.5q-186 0 -255 83q-75 -86 -206 -86q-148 0 -222 108q-81 -107 -217 -107q-154 0 -223 95q-81 -93 -238 -93q-14 0 -16.5 17t-2.5 115q0 95 3.5 111.5t23.5 16.5q75 0 120 25q35 99 70 266l169 -16
q-12 -127 -41 -243q59 -35 130 -35t108 27q43 133 69 267l169 -23q-10 -116 -42 -246q59 -25 125 -25q78 0 119 29q4 22 4 60q0 91 -17 185l178 14q22 -116 22 -215q0 -16 -2 -46q69 -24 180 -24z" />
    <glyph glyph-name="uniFEB6" unicode="&#x634;" horiz-adv-x="1881" arabic-form="final" 
d="M1242 918q-76 72 -132 134q48 55 132 135q66 -59 136 -135q-63 -67 -136 -134zM1125 665q-57 54 -143 143q82 85 143 140q55 -49 121 -119q44 46 128 126q61 -55 141 -140q-60 -70 -141 -144q-67 65 -121 122q-76 -80 -128 -128zM1916 248q13 0 15.5 -17t2.5 -115
q0 -95 -3.5 -111.5t-22.5 -16.5q-186 0 -256 84q-73 -87 -206 -87q-146 0 -220 106q-72 -105 -194 -105q-45 0 -84 17q-2 -106 -56 -191t-165 -135t-245 -50q-204 0 -315.5 113.5t-111.5 293.5q0 145 68 302h157q-29 -114 -29 -200q0 -130 66 -184.5t188 -54.5
q91 0 171 25.5t128 65.5q-28 180 -133 518l224 27q27 -153 39 -280q32 -9 70 -9q63 0 98 24q36 103 71 271l169 -23q-10 -114 -42 -244q61 -27 131 -27q78 0 119 29q4 22 4 60q0 91 -17 185l178 14q22 -116 22 -215q0 -16 -2 -46q69 -24 181 -24z" />
    <glyph glyph-name="uniFEB7" unicode="&#x634;" horiz-adv-x="1304" arabic-form="initial" 
d="M726 918q-76 72 -132 134q48 55 132 135q66 -59 136 -135q-63 -67 -136 -134zM609 665q-57 54 -143 143q82 85 143 140q55 -49 121 -119q44 46 128 126q61 -55 141 -140q-60 -70 -141 -144q-67 65 -121 122q-76 -80 -128 -128zM1191 658q18 -196 18 -308q0 -168 -42 -299
q-88 -67 -227 -67q-172 0 -246 96q-78 -94 -206 -94q-154 0 -223 95q-81 -93 -238 -93q-14 0 -16.5 17t-2.5 115q0 95 3.5 111.5t23.5 16.5q75 0 120 25q35 99 70 266l169 -16q-12 -127 -41 -243q59 -35 130 -35t108 27q43 133 69 267l169 -23q-10 -121 -43 -248
q59 -24 149 -24q55 0 96 8q-12 146 -66 392z" />
    <glyph glyph-name="uniFEB8" unicode="&#x634;" horiz-adv-x="1361" arabic-form="medial" 
d="M726 918q-76 72 -132 134q48 55 132 135q66 -59 136 -135q-63 -67 -136 -134zM609 665q-57 54 -143 143q82 85 143 140q55 -49 121 -119q44 46 128 126q61 -55 141 -140q-60 -70 -141 -144q-67 65 -121 122q-76 -80 -128 -128zM1396 248q13 0 15.5 -17t2.5 -115
q0 -95 -3.5 -111.5t-22.5 -16.5q-186 0 -255 83q-75 -86 -206 -86q-148 0 -222 108q-81 -107 -217 -107q-154 0 -223 95q-81 -93 -238 -93q-14 0 -16.5 17t-2.5 115q0 95 3.5 111.5t23.5 16.5q75 0 120 25q35 99 70 266l169 -16q-12 -127 -41 -243q59 -35 130 -35t108 27
q43 133 69 267l169 -23q-10 -116 -42 -246q59 -25 125 -25q78 0 119 29q4 22 4 60q0 91 -17 185l178 14q22 -116 22 -215q0 -16 -2 -46q69 -24 180 -24z" />
    <glyph glyph-name="uniFEBA" unicode="&#x635;" horiz-adv-x="1935" arabic-form="final" 
d="M1970 248q13 0 15.5 -17t2.5 -115q0 -95 -3.5 -111.5t-22.5 -16.5q-172 0 -259 83q-152 -102 -431 -102q-185 0 -324 51v-10q0 -107 -57 -198q-53 -85 -164.5 -135t-245.5 -50q-203 0 -315 113.5t-112 293.5q0 147 69 302h156q-29 -114 -29 -200q0 -130 66 -184.5
t188 -54.5q91 0 171.5 25.5t127.5 65.5q-29 187 -132 518l223 27q26 -143 36 -244h4q111 184 254.5 296.5t289.5 112.5q148 0 232 -98.5t84 -249.5q0 -35 -5 -77q76 -25 181 -25zM1060 243q103 -14 212 -14q241 0 381 51q-6 73 -65.5 127.5t-156.5 54.5t-193.5 -60.5
t-177.5 -158.5z" />
    <glyph glyph-name="uniFEBB" unicode="&#x635;" horiz-adv-x="1293" arabic-form="initial" 
d="M899 691q149 0 233 -101t84 -259q0 -155 -63 -267q-79 -44 -196 -69.5t-248 -25.5q-146 0 -260 28t-183 74q-86 -83 -239 -83q-14 0 -16.5 17t-2.5 115q0 95 3.5 111.5t23.5 16.5q89 0 131 23q23 131 35 260l172 1q0 -100 -11 -237h4q113 182 250.5 289t282.5 107z
M488 243q109 -14 223 -14q211 0 370 41q-16 82 -76.5 133.5t-155.5 51.5q-183 0 -361 -212z" />
    <glyph glyph-name="uniFEBC" unicode="&#x635;" horiz-adv-x="1357" arabic-form="medial" 
d="M1392 248q13 0 15.5 -17t2.5 -115q0 -95 -3.5 -111.5t-22.5 -16.5q-172 0 -259 83q-152 -102 -431 -102q-135 0 -247.5 27.5t-181.5 75.5q-86 -84 -238 -84q-14 0 -16.5 17t-2.5 115q0 95 3.5 111.5t23.5 16.5q89 0 131 23q23 131 35 260l172 1q0 -119 -10 -225h4
q110 176 250.5 283.5t282.5 107.5q148 0 232 -98.5t84 -249.5q0 -35 -5 -77q76 -25 181 -25zM481 243q104 -14 213 -14q110 0 213.5 14t166.5 37q-6 73 -65 127.5t-156 54.5t-194 -60.5t-178 -158.5z" />
    <glyph glyph-name="uniFEBE" unicode="&#x636;" horiz-adv-x="1935" arabic-form="final" 
d="M1342 854q-70 66 -148 154q91 93 152 148q65 -61 149 -152q-64 -68 -153 -150zM1970 248q13 0 15.5 -17t2.5 -115q0 -95 -3.5 -111.5t-22.5 -16.5q-172 0 -259 83q-152 -102 -431 -102q-185 0 -324 51v-10q0 -107 -57 -198q-53 -85 -164.5 -135t-245.5 -50
q-203 0 -315 113.5t-112 293.5q0 147 69 302h156q-29 -114 -29 -200q0 -130 66 -184.5t188 -54.5q91 0 171.5 25.5t127.5 65.5q-29 187 -132 518l223 27q26 -143 36 -244h4q111 184 254.5 296.5t289.5 112.5q148 0 232 -98.5t84 -249.5q0 -35 -5 -77q76 -25 181 -25z
M1060 243q103 -14 212 -14q241 0 381 51q-6 73 -65.5 127.5t-156.5 54.5t-193.5 -60.5t-177.5 -158.5z" />
    <glyph glyph-name="uniFEBF" unicode="&#x636;" horiz-adv-x="1293" arabic-form="initial" 
d="M729 854q-70 66 -148 154q91 93 152 148q65 -61 149 -152q-64 -68 -153 -150zM899 691q149 0 233 -101t84 -259q0 -155 -63 -267q-79 -44 -196 -69.5t-248 -25.5q-146 0 -260 28t-183 74q-86 -83 -239 -83q-14 0 -16.5 17t-2.5 115q0 95 3.5 111.5t23.5 16.5q89 0 131 23
q23 131 35 260l172 1q0 -100 -11 -237h4q113 182 250.5 289t282.5 107zM488 243q109 -14 223 -14q211 0 370 41q-16 82 -76.5 133.5t-155.5 51.5q-183 0 -361 -212z" />
    <glyph glyph-name="uniFEC0" unicode="&#x636;" horiz-adv-x="1357" arabic-form="medial" 
d="M744 854q-70 66 -148 154q91 93 152 148q65 -61 149 -152q-64 -68 -153 -150zM1392 248q13 0 15.5 -17t2.5 -115q0 -95 -3.5 -111.5t-22.5 -16.5q-172 0 -259 83q-152 -102 -431 -102q-135 0 -247.5 27.5t-181.5 75.5q-86 -84 -238 -84q-14 0 -16.5 17t-2.5 115
q0 95 3.5 111.5t23.5 16.5q89 0 131 23q23 131 35 260l172 1q0 -119 -10 -225h4q110 176 250.5 283.5t282.5 107.5q148 0 232 -98.5t84 -249.5q0 -35 -5 -77q76 -25 181 -25zM481 243q104 -14 213 -14q110 0 213.5 14t166.5 37q-6 73 -65 127.5t-156 54.5t-194 -60.5
t-178 -158.5z" />
    <glyph glyph-name="uniFEC2" unicode="&#x637;" horiz-adv-x="1326" arabic-form="final" 
d="M1361 248q14 0 16.5 -17t2.5 -115q0 -95 -3.5 -111.5t-23.5 -16.5q-171 0 -258 89q-84 -45 -217 -72t-292 -27q-147 0 -279.5 21t-215.5 53l-39 238q110 -16 251 -30l15 27q-15 174 -16 340l-6 510l223 9l-6 -395q-4 -149 -10 -221l4 -2q166 185 363 185
q144 0 228.5 -98.5t84.5 -245.5q0 -51 -7 -92q77 -29 185 -29zM453 251q65 -4 155 -4q299 0 436 51q-8 73 -69 126t-161 53q-192 0 -361 -226z" />
    <glyph glyph-name="uniFEC3" unicode="&#x637;" horiz-adv-x="1108" arabic-form="initial" 
d="M708 710q148 0 235.5 -102.5t87.5 -254.5q0 -148 -69 -270q-143 -67 -515 -88q-145 -7 -420 -7q-14 0 -16.5 17t-2.5 115q0 95 3.5 111.5t23.5 16.5q66 0 101 1l24 44q-12 162 -15 334l-6 510l223 9l-6 -395q-4 -154 -11 -226l4 -1q172 186 359 186zM300 250q106 2 150 4
q310 14 444 43q-17 78 -78 127t-157 49q-194 0 -359 -223z" />
    <glyph glyph-name="uniFEC4" unicode="&#x637;" horiz-adv-x="1175" arabic-form="medial" 
d="M1210 248q13 0 15.5 -17t2.5 -115q0 -95 -3.5 -111.5t-22.5 -16.5q-88 0 -154 29t-101 80q-75 -44 -206 -68.5t-342 -35.5q-132 -5 -372 -5q-14 0 -16.5 17t-2.5 115q0 95 3.5 111.5t23.5 16.5q69 0 103 1q3 6 23 41q-13 153 -16 337l-6 510l223 9l-6 -395
q-4 -149 -9 -221l3 -2q174 190 366 190q147 0 232.5 -97t85.5 -239q0 -46 -8 -94q74 -40 184 -40zM301 250q96 0 168 3q310 13 423 53q-6 71 -65.5 122t-157.5 51q-195 0 -368 -229z" />
    <glyph glyph-name="uniFEC6" unicode="&#x638;" horiz-adv-x="1326" arabic-form="final" 
d="M1361 248q14 0 16.5 -17t2.5 -115q0 -95 -3.5 -111.5t-23.5 -16.5q-171 0 -258 89q-84 -45 -217 -72t-292 -27q-147 0 -279.5 21t-215.5 53l-39 238q110 -16 251 -30l15 27q-15 174 -16 340l-6 510l223 9l-6 -395q-4 -149 -10 -221l4 -2q166 185 363 185
q144 0 228.5 -98.5t84.5 -245.5q0 -51 -7 -92q77 -29 185 -29zM798 812q-70 66 -148 154q91 93 152 148q65 -61 149 -152q-64 -68 -153 -150zM453 251q65 -4 155 -4q299 0 436 51q-8 73 -69 126t-161 53q-192 0 -361 -226z" />
    <glyph glyph-name="uniFEC7" unicode="&#x638;" horiz-adv-x="1100" arabic-form="initial" 
d="M708 710q148 0 235.5 -102.5t87.5 -254.5q0 -148 -69 -270q-143 -67 -515 -88q-145 -7 -420 -7q-14 0 -16.5 17t-2.5 115q0 95 3.5 111.5t23.5 16.5q66 0 101 1l24 44q-12 162 -15 334l-6 510l223 9l-6 -395q-4 -154 -11 -226l4 -1q172 186 359 186zM654 800
q-70 66 -148 154q91 93 152 148q65 -61 149 -152q-64 -68 -153 -150zM300 250q106 2 150 4q310 14 444 43q-17 78 -78 127t-157 49q-194 0 -359 -223z" />
    <glyph glyph-name="uniFEC8" unicode="&#x638;" horiz-adv-x="1175" arabic-form="medial" 
d="M1210 248q13 0 15.5 -17t2.5 -115q0 -95 -3.5 -111.5t-22.5 -16.5q-88 0 -154 29t-101 80q-75 -44 -206 -68.5t-342 -35.5q-132 -5 -372 -5q-14 0 -16.5 17t-2.5 115q0 95 3.5 111.5t23.5 16.5q69 0 103 1q3 6 23 41q-13 153 -16 337l-6 510l223 9l-6 -395
q-4 -149 -9 -221l3 -2q174 190 366 190q147 0 232.5 -97t85.5 -239q0 -46 -8 -94q74 -40 184 -40zM656 813q-70 66 -148 154q91 93 152 148q65 -61 149 -152q-64 -68 -153 -150zM301 250q96 0 168 3q310 13 423 53q-6 71 -65.5 122t-157.5 51q-195 0 -368 -229z" />
    <glyph glyph-name="uniFECA" unicode="&#x639;" horiz-adv-x="1021" arabic-form="final" 
d="M1047 -12q-196 0 -318.5 37t-209.5 115q-145 -79 -214 -145.5t-69 -140.5q0 -91 100 -139t277 -48q174 0 324 41l11 -204q-146 -105 -385 -105q-246 0 -381.5 112.5t-135.5 290.5q0 283 349 480v2q-57 68 -123.5 135t-113.5 105q16 103 61 210q159 47 335 47
q147 0 222.5 -63.5t75.5 -165.5q0 -158 -161 -276v-2q94 -26 364 -26q14 0 16.5 -17t2.5 -115q0 -95 -3.5 -111.5t-23.5 -16.5zM385 557q78 -74 168 -188q143 80 143 138q0 62 -179 62q-68 0 -132 -8v-4z" />
    <glyph glyph-name="uniFECB" unicode="&#x639;" horiz-adv-x="891" arabic-form="initial" 
d="M605 311q107 25 221 54l-21 -234q-47 -10 -92 -21t-96 -23.5t-83 -20.5q-110 -26 -170.5 -39t-156 -26t-180.5 -13q-14 0 -16.5 17t-2.5 115q0 95 3.5 111.5t23.5 16.5q107 0 188 6q-48 54 -48 145q0 67 25.5 136t71.5 128t120.5 96.5t163.5 37.5q64 0 106.5 -19
t77.5 -59l-11 -188q-95 15 -178 15q-199 0 -199 -99q0 -110 253 -136z" />
    </font>
</defs>
</svg>
