<?xml version="1.0" standalone="no"?>
<!DOCTYPE svg PUBLIC "-//W3C//DTD SVG 1.1//EN" "http://www.w3.org/Graphics/SVG/1.1/DTD/svg11.dtd" >
<svg xmlns="http://www.w3.org/2000/svg" xmlns:xlink="http://www.w3.org/1999/xlink" version="1.1">
<metadata>
Created by FontForge 20170731 at Thu Oct 20 14:26:32 2016
 By Aleksey,,,
Copyright (c) 2016 TPTQ Arabic. All rights reserved.
</metadata>
<defs>
<font id="SymbioAR-Light" horiz-adv-x="0" >
  <font-face 
    font-family="Symbio AR Light"
    font-weight="300"
    font-stretch="normal"
    units-per-em="2048"
    panose-1="2 11 4 3 3 3 3 2 2 4"
    ascent="1622"
    descent="-426"
    bbox="-221 -816 2337 1607"
    underline-thickness="50"
    underline-position="-275"
    unicode-range="U+0020-FEFC"
  />
<missing-glyph horiz-adv-x="1458" 
d="M164 1438h55v-56h-55v56zM317 1438h56v-56h-56v56zM471 1438h55v-56h-55v56zM625 1438h55v-56h-55v56zM778 1438h56v-56h-56v56zM932 1438h55v-56h-55v56zM1085 1438h56v-56h-56v56zM1239 1438h55v-56h-55v56zM164 1284h55v-55h-55v55zM1239 1284h55v-55h-55v55z
M164 1130h55v-55h-55v55zM471 1130h55v-55h-55v55zM625 1130h55v-55h-55v55zM778 1130h56v-55h-56v55zM932 1130h55v-55h-55v55zM1239 1130h55v-55h-55v55zM164 977h55v-55h-55v55zM932 977h55v-55h-55v55zM1239 977h55v-55h-55v55zM164 823h55v-55h-55v55zM625 823h55v-55
h-55v55zM778 823h56v-55h-56v55zM932 823h55v-55h-55v55zM1239 823h55v-55h-55v55zM164 670h55v-56h-55v56zM625 670h55v-56h-55v56zM1239 670h55v-56h-55v56zM164 516h55v-55h-55v55zM1239 516h55v-55h-55v55zM164 362h55v-55h-55v55zM625 362h55v-55h-55v55zM1239 362h55
v-55h-55v55zM164 209h55v-55h-55v55zM1239 209h55v-55h-55v55zM164 55h55v-55h-55v55zM317 55h56v-55h-56v55zM471 55h55v-55h-55v55zM625 55h55v-55h-55v55zM778 55h56v-55h-56v55zM932 55h55v-55h-55v55zM1085 55h56v-55h-56v55zM1239 55h55v-55h-55v55z" />
    <glyph glyph-name="uniFC03" unicode="&#xfe8b;&#xfef0;" horiz-adv-x="1190" arabic-form="isolated" 
d="M1018 1104l102 24v-76q-166 -34 -330 -90l-2 70q44 16 93 33v1q-73 41 -73 110q0 63 50.5 115.5t121.5 52.5q44 0 80 -29l-3 -64q-35 5 -70 5q-50 0 -82.5 -17t-32.5 -47q0 -36 40.5 -58.5t105.5 -29.5zM946 648l109 7q22 -176 22 -310q0 -98 -18 -191q-79 -52 -205 -81
v-2q99 -44 99 -161q0 -157 -142.5 -262.5t-349.5 -105.5q-193 0 -299 100.5t-106 286.5q0 129 52 285h70q-34 -138 -34 -238q0 -316 325 -316q162 0 280 71.5t142 179.5q-33 68 -117 95t-264 29l8 95q137 5 264 30t210 63q-2 212 -46 425z" />
    <glyph glyph-name="uniFC04" unicode="&#xfe8b;&#xfef2;" horiz-adv-x="1190" arabic-form="isolated" 
d="M1018 1104l102 24v-76q-166 -34 -330 -90l-2 70q44 16 93 33v1q-73 41 -73 110q0 63 50.5 115.5t121.5 52.5q44 0 80 -29l-3 -64q-35 5 -70 5q-50 0 -82.5 -17t-32.5 -47q0 -36 40.5 -58.5t105.5 -29.5zM946 648l109 7q22 -176 22 -310q0 -98 -18 -191q-79 -52 -205 -81
v-2q99 -44 99 -161q0 -157 -142.5 -262.5t-349.5 -105.5q-193 0 -299 100.5t-106 286.5q0 129 52 285h70q-34 -138 -34 -238q0 -316 325 -316q162 0 280 71.5t142 179.5q-33 68 -117 95t-264 29l8 95q137 5 264 30t210 63q-2 212 -46 425zM216 -703q47 47 86 82
q58 -60 89 -97q-35 -38 -84 -80q-55 55 -91 95zM440 -703q41 42 85 82q47 -47 89 -97q-26 -29 -82 -80q-44 40 -92 95z" />
    <glyph glyph-name="uniFC09" unicode="&#xfe91;&#xfef0;" horiz-adv-x="1190" arabic-form="isolated" 
d="M1055 655q22 -176 22 -310q0 -98 -18 -191q-79 -52 -205 -81v-2q99 -44 99 -161q0 -157 -142.5 -262.5t-349.5 -105.5q-193 0 -299 100.5t-106 286.5q0 129 52 285h70q-34 -138 -34 -238q0 -316 325 -316q162 0 280 71.5t142 179.5q-33 68 -117 95t-264 29l8 95
q137 5 264 30t210 63q-2 212 -46 425zM884 -491q45 -44 94 -96q-45 -52 -83 -86q-55 48 -95 96q33 38 84 86z" />
    <glyph glyph-name="uniFC0A" unicode="&#xfe91;&#xfef2;" horiz-adv-x="1190" arabic-form="isolated" 
d="M1055 655q22 -176 22 -310q0 -98 -18 -191q-79 -52 -205 -81v-2q99 -44 99 -161q0 -157 -142.5 -262.5t-349.5 -105.5q-193 0 -299 100.5t-106 286.5q0 129 52 285h70q-34 -138 -34 -238q0 -316 325 -316q162 0 280 71.5t142 179.5q-33 68 -117 95t-264 29l8 95
q137 5 264 30t210 63q-2 212 -46 425zM884 -491q45 -44 94 -96q-45 -52 -83 -86q-55 48 -95 96q33 38 84 86zM216 -703q47 47 86 82q58 -60 89 -97q-35 -38 -84 -80q-55 55 -91 95zM440 -703q41 42 85 82q47 -47 89 -97q-26 -29 -82 -80q-44 40 -92 95z" />
    <glyph glyph-name="uniFC0F" unicode="&#xfe97;&#xfef0;" horiz-adv-x="1190" arabic-form="isolated" 
d="M944 957q-35 -38 -84 -80q-55 55 -91 95q47 47 86 82q58 -60 89 -97zM1078 1054q47 -47 89 -97q-26 -29 -82 -80q-44 40 -92 95q41 42 85 82zM946 648l109 7q22 -176 22 -310q0 -98 -18 -191q-79 -52 -205 -81v-2q99 -44 99 -161q0 -157 -142.5 -262.5t-349.5 -105.5
q-193 0 -299 100.5t-106 286.5q0 129 52 285h70q-34 -138 -34 -238q0 -316 325 -316q162 0 280 71.5t142 179.5q-33 68 -117 95t-264 29l8 95q137 5 264 30t210 63q-2 212 -46 425z" />
    <glyph glyph-name="uniFC10" unicode="&#xfe97;&#xfef2;" horiz-adv-x="1190" arabic-form="isolated" 
d="M944 957q-35 -38 -84 -80q-55 55 -91 95q47 47 86 82q58 -60 89 -97zM1078 1054q47 -47 89 -97q-26 -29 -82 -80q-44 40 -92 95q41 42 85 82zM946 648l109 7q22 -176 22 -310q0 -98 -18 -191q-79 -52 -205 -81v-2q99 -44 99 -161q0 -157 -142.5 -262.5t-349.5 -105.5
q-193 0 -299 100.5t-106 286.5q0 129 52 285h70q-34 -138 -34 -238q0 -316 325 -316q162 0 280 71.5t142 179.5q-33 68 -117 95t-264 29l8 95q137 5 264 30t210 63q-2 212 -46 425zM216 -703q47 47 86 82q58 -60 89 -97q-35 -38 -84 -80q-55 55 -91 95zM440 -703
q41 42 85 82q47 -47 89 -97q-26 -29 -82 -80q-44 40 -92 95z" />
    <glyph glyph-name="uniFC13" unicode="&#xfe9b;&#xfef0;" horiz-adv-x="1190" arabic-form="isolated" 
d="M963 1058q-45 41 -89 91q36 42 78 78q44 -37 90 -90q-42 -47 -79 -79zM1080 1051q47 -40 92 -93q-46 -50 -81 -80q-40 37 -91 92q43 48 80 81zM860 875q-48 44 -92 92q43 48 80 81q46 -40 94 -93q-36 -38 -82 -80zM946 648l109 7q22 -176 22 -310q0 -98 -18 -191
q-79 -52 -205 -81v-2q99 -44 99 -161q0 -157 -142.5 -262.5t-349.5 -105.5q-193 0 -299 100.5t-106 286.5q0 129 52 285h70q-34 -138 -34 -238q0 -316 325 -316q162 0 280 71.5t142 179.5q-33 68 -117 95t-264 29l8 95q137 5 264 30t210 63q-2 212 -46 425z" />
    <glyph glyph-name="uniFC14" unicode="&#xfe9b;&#xfef2;" horiz-adv-x="1190" arabic-form="isolated" 
d="M963 1058q-45 41 -89 91q36 42 78 78q44 -37 90 -90q-42 -47 -79 -79zM1080 1051q47 -40 92 -93q-46 -50 -81 -80q-40 37 -91 92q43 48 80 81zM860 875q-48 44 -92 92q43 48 80 81q46 -40 94 -93q-36 -38 -82 -80zM946 648l109 7q22 -176 22 -310q0 -98 -18 -191
q-79 -52 -205 -81v-2q99 -44 99 -161q0 -157 -142.5 -262.5t-349.5 -105.5q-193 0 -299 100.5t-106 286.5q0 129 52 285h70q-34 -138 -34 -238q0 -316 325 -316q162 0 280 71.5t142 179.5q-33 68 -117 95t-264 29l8 95q137 5 264 30t210 63q-2 212 -46 425zM216 -703
q47 47 86 82q58 -60 89 -97q-35 -38 -84 -80q-55 55 -91 95zM440 -703q41 42 85 82q47 -47 89 -97q-26 -29 -82 -80q-44 40 -92 95z" />
    <glyph glyph-name="uniFC31" unicode="&#xfed3;&#xfef0;" horiz-adv-x="1202" arabic-form="isolated" 
d="M799 1106q-55 48 -95 96q33 38 84 86q45 -44 94 -96q-45 -52 -83 -86zM1052 147q-65 -39 -194 -73v-2q95 -44 95 -160q0 -159 -142 -264.5t-351 -105.5q-193 0 -298.5 101t-105.5 286q0 129 52 285h70q-34 -138 -34 -238q0 -316 325 -316q162 0 280.5 72t142.5 180
q-27 69 -108.5 95t-273.5 28l8 95q306 15 481 95q10 68 13 134q-74 -26 -167 -26q-128 0 -202.5 53t-74.5 169q0 56 16.5 112t47 103.5t80.5 77t111 29.5q129 0 198.5 -117.5t69.5 -303.5q0 -161 -39 -309zM643 586q0 -84 59 -116.5t167 -32.5q75 0 144 13q-5 138 -58.5 229
t-149.5 91q-54 0 -92 -30t-54 -70.5t-16 -83.5z" />
    <glyph glyph-name="uniFC32" unicode="&#xfed3;&#xfef2;" horiz-adv-x="1202" arabic-form="isolated" 
d="M799 1106q-55 48 -95 96q33 38 84 86q45 -44 94 -96q-45 -52 -83 -86zM1052 147q-65 -39 -194 -73v-2q95 -44 95 -160q0 -159 -142 -264.5t-351 -105.5q-193 0 -298.5 101t-105.5 286q0 129 52 285h70q-34 -138 -34 -238q0 -316 325 -316q162 0 280.5 72t142.5 180
q-27 69 -108.5 95t-273.5 28l8 95q306 15 481 95q10 68 13 134q-74 -26 -167 -26q-128 0 -202.5 53t-74.5 169q0 56 16.5 112t47 103.5t80.5 77t111 29.5q129 0 198.5 -117.5t69.5 -303.5q0 -161 -39 -309zM643 586q0 -84 59 -116.5t167 -32.5q75 0 144 13q-5 138 -58.5 229
t-149.5 91q-54 0 -92 -30t-54 -70.5t-16 -83.5zM216 -703q47 47 86 82q58 -60 89 -97q-35 -38 -84 -80q-55 55 -91 95zM440 -703q41 42 85 82q47 -47 89 -97q-26 -29 -82 -80q-44 40 -92 95z" />
    <glyph glyph-name="uniFC35" unicode="&#xfed7;&#xfef0;" horiz-adv-x="1202" arabic-form="isolated" 
d="M770 1181q-35 -38 -84 -80q-55 55 -91 95q47 47 86 82q58 -60 89 -97zM911 1101q-44 40 -92 95q41 42 85 82q47 -47 89 -97q-26 -29 -82 -80zM1052 147q-65 -39 -194 -73v-2q95 -44 95 -160q0 -159 -142 -264.5t-351 -105.5q-193 0 -298.5 101t-105.5 286q0 129 52 285
h70q-34 -138 -34 -238q0 -316 325 -316q162 0 280.5 72t142.5 180q-27 69 -108.5 95t-273.5 28l8 95q306 15 481 95q10 68 13 134q-74 -26 -167 -26q-128 0 -202.5 53t-74.5 169q0 56 16.5 112t47 103.5t80.5 77t111 29.5q129 0 198.5 -117.5t69.5 -303.5q0 -161 -39 -309z
M643 586q0 -84 59 -116.5t167 -32.5q75 0 144 13q-5 138 -58.5 229t-149.5 91q-54 0 -92 -30t-54 -70.5t-16 -83.5z" />
    <glyph glyph-name="uniFC36" unicode="&#xfed7;&#xfef2;" horiz-adv-x="1202" arabic-form="isolated" 
d="M770 1181q-35 -38 -84 -80q-55 55 -91 95q47 47 86 82q58 -60 89 -97zM911 1101q-44 40 -92 95q41 42 85 82q47 -47 89 -97q-26 -29 -82 -80zM1052 147q-65 -39 -194 -73v-2q95 -44 95 -160q0 -159 -142 -264.5t-351 -105.5q-193 0 -298.5 101t-105.5 286q0 129 52 285
h70q-34 -138 -34 -238q0 -316 325 -316q162 0 280.5 72t142.5 180q-27 69 -108.5 95t-273.5 28l8 95q306 15 481 95q10 68 13 134q-74 -26 -167 -26q-128 0 -202.5 53t-74.5 169q0 56 16.5 112t47 103.5t80.5 77t111 29.5q129 0 198.5 -117.5t69.5 -303.5q0 -161 -39 -309z
M643 586q0 -84 59 -116.5t167 -32.5q75 0 144 13q-5 138 -58.5 229t-149.5 91q-54 0 -92 -30t-54 -70.5t-16 -83.5zM216 -703q47 47 86 82q58 -60 89 -97q-35 -38 -84 -80q-55 55 -91 95zM440 -703q41 42 85 82q47 -47 89 -97q-26 -29 -82 -80q-44 40 -92 95z" />
    <glyph glyph-name="uniFC3D" unicode="&#xfedb;&#xfef0;" horiz-adv-x="1250" arabic-form="isolated" 
d="M1194 1051l-585 -256v-3q189 -106 295.5 -240.5t106.5 -265.5q0 -62 -21 -113q-49 -51 -162 -81v-3q65 -28 95 -70t30 -107q0 -159 -142 -264.5t-351 -105.5q-193 0 -298.5 101t-105.5 286q0 129 52 285h70q-34 -138 -34 -238q0 -316 325 -316q162 0 280.5 72t142.5 180
q-27 69 -108.5 95t-273.5 28l6 93q133 10 247 42.5t181 77.5q-13 135 -128.5 264t-307.5 228v93l687 325z" />
    <glyph glyph-name="uniFC3E" unicode="&#xfedb;&#xfef2;" horiz-adv-x="1250" arabic-form="isolated" 
d="M1194 1051l-585 -256v-3q189 -106 295.5 -240.5t106.5 -265.5q0 -62 -21 -113q-49 -51 -162 -81v-3q65 -28 95 -70t30 -107q0 -159 -142 -264.5t-351 -105.5q-193 0 -298.5 101t-105.5 286q0 129 52 285h70q-34 -138 -34 -238q0 -316 325 -316q162 0 280.5 72t142.5 180
q-27 69 -108.5 95t-273.5 28l6 93q133 10 247 42.5t181 77.5q-13 135 -128.5 264t-307.5 228v93l687 325zM210 -703q47 47 86 82q58 -60 89 -97q-35 -38 -84 -80q-55 55 -91 95zM434 -703q41 42 85 82q47 -47 89 -97q-26 -29 -82 -80q-44 40 -92 95z" />
    <glyph glyph-name="uniFC43" unicode="&#xfedf;&#xfef0;" horiz-adv-x="1196" arabic-form="isolated" 
d="M972 1140l99 4l-3 -725q0 -137 -7 -265q-79 -51 -203 -80v-2q95 -44 95 -160q0 -159 -142 -264.5t-351 -105.5q-193 0 -298.5 101t-105.5 286q0 129 52 285h70q-34 -138 -34 -238q0 -316 325 -316q162 0 280.5 71.5t142.5 178.5q-29 70 -112 96.5t-270 28.5l8 95
q280 11 459 87q0 112 -1 190z" />
    <glyph glyph-name="uniFC44" unicode="&#xfedf;&#xfef2;" horiz-adv-x="1196" arabic-form="isolated" 
d="M972 1140l99 4l-3 -725q0 -137 -7 -265q-79 -51 -203 -80v-2q95 -44 95 -160q0 -159 -142 -264.5t-351 -105.5q-193 0 -298.5 101t-105.5 286q0 129 52 285h70q-34 -138 -34 -238q0 -316 325 -316q162 0 280.5 71.5t142.5 178.5q-29 70 -112 96.5t-270 28.5l8 95
q280 11 459 87q0 112 -1 190zM218 -703q47 47 86 82q58 -60 89 -97q-35 -38 -84 -80q-55 55 -91 95zM442 -703q41 42 85 82q47 -47 89 -97q-26 -29 -82 -80q-44 40 -92 95z" />
    <glyph glyph-name="uniFC4F" unicode="&#xfee7;&#xfef0;" horiz-adv-x="1190" arabic-form="isolated" 
d="M973 882q-55 48 -95 96q33 38 84 86q45 -44 94 -96q-45 -52 -83 -86zM1059 154q-79 -52 -205 -81v-2q99 -44 99 -161q0 -157 -142.5 -262.5t-349.5 -105.5q-193 0 -299 100.5t-106 286.5q0 129 52 285h70q-34 -138 -34 -238q0 -316 325 -316q162 0 280 71.5t142 179.5
q-33 68 -117 95t-264 29l8 95q137 5 264 30t210 63q-2 212 -46 425l109 7q22 -176 22 -310q0 -98 -18 -191z" />
    <glyph glyph-name="uniFC50" unicode="&#xfee7;&#xfef2;" horiz-adv-x="1190" arabic-form="isolated" 
d="M973 882q-55 48 -95 96q33 38 84 86q45 -44 94 -96q-45 -52 -83 -86zM1059 154q-79 -52 -205 -81v-2q99 -44 99 -161q0 -157 -142.5 -262.5t-349.5 -105.5q-193 0 -299 100.5t-106 286.5q0 129 52 285h70q-34 -138 -34 -238q0 -316 325 -316q162 0 280 71.5t142 179.5
q-33 68 -117 95t-264 29l8 95q137 5 264 30t210 63q-2 212 -46 425l109 7q22 -176 22 -310q0 -98 -18 -191zM216 -703q47 47 86 82q58 -60 89 -97q-35 -38 -84 -80q-55 55 -91 95zM440 -703q41 42 85 82q47 -47 89 -97q-26 -29 -82 -80q-44 40 -92 95z" />
    <glyph glyph-name="uniFC64" unicode="&#xfe8c;&#xfeae;" horiz-adv-x="987" arabic-form="final" 
d="M550 927q44 17 93 33v1q-73 41 -73 110q0 63 50.5 115.5t121.5 52.5q44 0 80 -29l-3 -64q-35 5 -70 5q-50 0 -82.5 -17t-32.5 -47q0 -36 40.5 -58.5t105.5 -29.5l102 24v-76q-166 -34 -330 -90zM1022 100q13 0 15.5 -8t2.5 -50q0 -41 -3.5 -48.5t-22.5 -7.5q-59 0 -104 9
t-78 25t-56 45t-37.5 62t-22.5 83t-11.5 101.5t-3.5 123.5q-121 -50 -278 -54q34 -115 34 -227q0 -82 -22 -157.5t-69.5 -148.5t-129.5 -137.5t-194 -114.5l-73 92q215 91 311 198.5t96 236.5q0 120 -75 295l40 80q25 -4 70 -4q165 0 303 65l67 -11q1 -121 4.5 -180.5
t16 -123t38.5 -88t69.5 -40.5t112.5 -16z" />
    <glyph glyph-name="uniFC65" unicode="&#xfe8c;&#xfeb0;" horiz-adv-x="987" arabic-form="final" 
d="M550 927q44 17 93 33v1q-73 41 -73 110q0 63 50.5 115.5t121.5 52.5q44 0 80 -29l-3 -64q-35 5 -70 5q-50 0 -82.5 -17t-32.5 -47q0 -36 40.5 -58.5t105.5 -29.5l102 24v-76q-166 -34 -330 -90zM231 706q-55 48 -95 96q33 38 84 86q45 -44 94 -96q-45 -52 -83 -86z
M1022 100q13 0 15.5 -8t2.5 -50q0 -41 -3.5 -48.5t-22.5 -7.5q-59 0 -104 9t-78 25t-56 45t-37.5 62t-22.5 83t-11.5 101.5t-3.5 123.5q-121 -50 -278 -54q34 -115 34 -227q0 -82 -22 -157.5t-69.5 -148.5t-129.5 -137.5t-194 -114.5l-73 92q215 91 311 198.5t96 236.5
q0 120 -75 295l40 80q25 -4 70 -4q165 0 303 65l67 -11q1 -121 4.5 -180.5t16 -123t38.5 -88t69.5 -40.5t112.5 -16z" />
    <glyph glyph-name="uniFC67" unicode="&#xfe8c;&#xfee6;" horiz-adv-x="1395" arabic-form="final" 
d="M936 944q44 16 93 33v1q-73 41 -73 110q0 63 50.5 115.5t121.5 52.5q44 0 80 -29l-3 -64q-35 5 -70 5q-50 0 -82.5 -17t-32.5 -47q0 -36 40.5 -58.5t105.5 -29.5q11 3 32 8t38 9t32 7v-76q-166 -34 -330 -90zM476 742q-55 48 -95 96q33 38 84 86q45 -44 94 -96
q-45 -52 -83 -86zM1430 102q13 0 15.5 -8t2.5 -50q0 -41 -3.5 -48.5t-23.5 -7.5q-60 0 -105 9t-78 24.5t-55.5 45t-36.5 62t-22 85t-11 104t-4 128.5q-110 -52 -253 -52q-21 0 -31 1q53 -212 53 -365q0 -129 -40 -189q-50 -72 -163.5 -119t-236.5 -47q-171 0 -267 92.5
t-96 263.5q0 126 49 268h72q-33 -122 -33 -218q0 -288 287 -288q111 0 207.5 37.5t146.5 100.5q-3 214 -97 528l57 55q40 -8 98 -8q70 0 143 18.5t120 46.5l64 -10q1 -64 1.5 -102t3 -85t6 -73t10 -58.5t15.5 -48.5t22.5 -35t30 -27t39.5 -16.5t50.5 -11t62.5 -2.5z" />
    <glyph glyph-name="uniFC6A" unicode="&#xfe92;&#xfeae;" horiz-adv-x="987" arabic-form="final" 
d="M1022 100q13 0 15.5 -8t2.5 -50q0 -41 -3.5 -48.5t-22.5 -7.5q-59 0 -104 9t-78 25t-56 45t-37.5 62t-22.5 83t-11.5 101.5t-3.5 123.5q-121 -50 -278 -54q34 -115 34 -227q0 -82 -22 -157.5t-69.5 -148.5t-129.5 -137.5t-194 -114.5l-73 92q215 91 311 198.5t96 236.5
q0 120 -75 295l40 80q25 -4 70 -4q165 0 303 65l67 -11q1 -121 4.5 -180.5t16 -123t38.5 -88t69.5 -40.5t112.5 -16zM811 -200q45 -44 94 -96q-45 -52 -83 -86q-55 48 -95 96q33 38 84 86z" />
    <glyph glyph-name="uniFC6B" unicode="&#xfe92;&#xfeb0;" horiz-adv-x="987" arabic-form="final" 
d="M231 706q-55 48 -95 96q33 38 84 86q45 -44 94 -96q-45 -52 -83 -86zM1022 100q13 0 15.5 -8t2.5 -50q0 -41 -3.5 -48.5t-22.5 -7.5q-59 0 -104 9t-78 25t-56 45t-37.5 62t-22.5 83t-11.5 101.5t-3.5 123.5q-121 -50 -278 -54q34 -115 34 -227q0 -82 -22 -157.5
t-69.5 -148.5t-129.5 -137.5t-194 -114.5l-73 92q215 91 311 198.5t96 236.5q0 120 -75 295l40 80q25 -4 70 -4q165 0 303 65l67 -11q1 -121 4.5 -180.5t16 -123t38.5 -88t69.5 -40.5t112.5 -16zM811 -200q45 -44 94 -96q-45 -52 -83 -86q-55 48 -95 96q33 38 84 86z" />
    <glyph glyph-name="uniFC6D" unicode="&#xfe92;&#xfee6;" horiz-adv-x="1395" arabic-form="final" 
d="M476 742q-55 48 -95 96q33 38 84 86q45 -44 94 -96q-45 -52 -83 -86zM1430 102q13 0 15.5 -8t2.5 -50q0 -41 -3.5 -48.5t-23.5 -7.5q-60 0 -105 9t-78 24.5t-55.5 45t-36.5 62t-22 85t-11 104t-4 128.5q-110 -52 -253 -52q-21 0 -31 1q53 -212 53 -365q0 -129 -40 -189
q-50 -72 -163.5 -119t-236.5 -47q-171 0 -267 92.5t-96 263.5q0 126 49 268h72q-33 -122 -33 -218q0 -288 287 -288q111 0 207.5 37.5t146.5 100.5q-3 214 -97 528l57 55q40 -8 98 -8q70 0 143 18.5t120 46.5l64 -10q1 -64 1.5 -102t3 -85t6 -73t10 -58.5t15.5 -48.5
t22.5 -35t30 -27t39.5 -16.5t50.5 -11t62.5 -2.5zM1172 -228q45 -44 94 -96q-45 -52 -83 -86q-55 48 -95 96q33 38 84 86z" />
    <glyph glyph-name="uniFC70" unicode="&#xfe98;&#xfeae;" horiz-adv-x="987" arabic-form="final" 
d="M706 852q-35 -38 -84 -80q-55 55 -91 95q47 47 86 82q58 -60 89 -97zM847 772q-44 40 -92 95q41 42 85 82q47 -47 89 -97q-26 -29 -82 -80zM1022 100q13 0 15.5 -8t2.5 -50q0 -41 -3.5 -48.5t-22.5 -7.5q-59 0 -104 9t-78 25t-56 45t-37.5 62t-22.5 83t-11.5 101.5
t-3.5 123.5q-121 -50 -278 -54q34 -115 34 -227q0 -82 -22 -157.5t-69.5 -148.5t-129.5 -137.5t-194 -114.5l-73 92q215 91 311 198.5t96 236.5q0 120 -75 295l40 80q25 -4 70 -4q165 0 303 65l67 -11q1 -121 4.5 -180.5t16 -123t38.5 -88t69.5 -40.5t112.5 -16z" />
    <glyph glyph-name="uniFC71" unicode="&#xfe98;&#xfeb0;" horiz-adv-x="987" arabic-form="final" 
d="M706 852q-35 -38 -84 -80q-55 55 -91 95q47 47 86 82q58 -60 89 -97zM847 772q-44 40 -92 95q41 42 85 82q47 -47 89 -97q-26 -29 -82 -80zM231 706q-55 48 -95 96q33 38 84 86q45 -44 94 -96q-45 -52 -83 -86zM1022 100q13 0 15.5 -8t2.5 -50q0 -41 -3.5 -48.5
t-22.5 -7.5q-59 0 -104 9t-78 25t-56 45t-37.5 62t-22.5 83t-11.5 101.5t-3.5 123.5q-121 -50 -278 -54q34 -115 34 -227q0 -82 -22 -157.5t-69.5 -148.5t-129.5 -137.5t-194 -114.5l-73 92q215 91 311 198.5t96 236.5q0 120 -75 295l40 80q25 -4 70 -4q165 0 303 65l67 -11
q1 -121 4.5 -180.5t16 -123t38.5 -88t69.5 -40.5t112.5 -16z" />
    <glyph glyph-name="uniFC73" unicode="&#xfe98;&#xfee6;" horiz-adv-x="1395" arabic-form="final" 
d="M1092 869q-35 -38 -84 -80q-55 55 -91 95q47 47 86 82q58 -60 89 -97zM1233 789q-44 40 -92 95q41 42 85 82q47 -47 89 -97q-26 -29 -82 -80zM476 742q-55 48 -95 96q33 38 84 86q45 -44 94 -96q-45 -52 -83 -86zM1430 102q13 0 15.5 -8t2.5 -50q0 -41 -3.5 -48.5
t-23.5 -7.5q-60 0 -105 9t-78 24.5t-55.5 45t-36.5 62t-22 85t-11 104t-4 128.5q-110 -52 -253 -52q-21 0 -31 1q53 -212 53 -365q0 -129 -40 -189q-50 -72 -163.5 -119t-236.5 -47q-171 0 -267 92.5t-96 263.5q0 126 49 268h72q-33 -122 -33 -218q0 -288 287 -288
q111 0 207.5 37.5t146.5 100.5q-3 214 -97 528l57 55q40 -8 98 -8q70 0 143 18.5t120 46.5l64 -10q1 -64 1.5 -102t3 -85t6 -73t10 -58.5t15.5 -48.5t22.5 -35t30 -27t39.5 -16.5t50.5 -11t62.5 -2.5z" />
    <glyph glyph-name="uniFC76" unicode="&#xfe9c;&#xfeae;" horiz-adv-x="987" arabic-form="final" 
d="M725 953q-45 41 -89 91q36 42 78 78q44 -37 90 -90q-42 -47 -79 -79zM853 773q-40 37 -91 92q43 48 80 81q47 -40 92 -93q-46 -50 -81 -80zM622 770q-48 44 -92 92q43 48 80 81q46 -40 94 -93q-36 -38 -82 -80zM1022 100q13 0 15.5 -8t2.5 -50q0 -41 -3.5 -48.5
t-22.5 -7.5q-59 0 -104 9t-78 25t-56 45t-37.5 62t-22.5 83t-11.5 101.5t-3.5 123.5q-121 -50 -278 -54q34 -115 34 -227q0 -82 -22 -157.5t-69.5 -148.5t-129.5 -137.5t-194 -114.5l-73 92q215 91 311 198.5t96 236.5q0 120 -75 295l40 80q25 -4 70 -4q165 0 303 65l67 -11
q1 -121 4.5 -180.5t16 -123t38.5 -88t69.5 -40.5t112.5 -16z" />
    <glyph glyph-name="uniFC77" unicode="&#xfe9c;&#xfeb0;" horiz-adv-x="987" arabic-form="final" 
d="M725 953q-45 41 -89 91q36 42 78 78q44 -37 90 -90q-42 -47 -79 -79zM853 773q-40 37 -91 92q43 48 80 81q47 -40 92 -93q-46 -50 -81 -80zM622 770q-48 44 -92 92q43 48 80 81q46 -40 94 -93q-36 -38 -82 -80zM231 706q-55 48 -95 96q33 38 84 86q45 -44 94 -96
q-45 -52 -83 -86zM1022 100q13 0 15.5 -8t2.5 -50q0 -41 -3.5 -48.5t-22.5 -7.5q-59 0 -104 9t-78 25t-56 45t-37.5 62t-22.5 83t-11.5 101.5t-3.5 123.5q-121 -50 -278 -54q34 -115 34 -227q0 -82 -22 -157.5t-69.5 -148.5t-129.5 -137.5t-194 -114.5l-73 92
q215 91 311 198.5t96 236.5q0 120 -75 295l40 80q25 -4 70 -4q165 0 303 65l67 -11q1 -121 4.5 -180.5t16 -123t38.5 -88t69.5 -40.5t112.5 -16z" />
    <glyph glyph-name="uniFC79" unicode="&#xfe9c;&#xfee6;" horiz-adv-x="1395" arabic-form="final" 
d="M1111 970q-45 41 -89 91q36 42 78 78q44 -37 90 -90q-42 -47 -79 -79zM1239 790q-40 37 -91 92q43 48 80 81q47 -40 92 -93q-46 -50 -81 -80zM1008 787q-48 44 -92 92q43 48 80 81q46 -40 94 -93q-36 -38 -82 -80zM476 742q-55 48 -95 96q33 38 84 86q45 -44 94 -96
q-45 -52 -83 -86zM1430 102q13 0 15.5 -8t2.5 -50q0 -41 -3.5 -48.5t-23.5 -7.5q-60 0 -105 9t-78 24.5t-55.5 45t-36.5 62t-22 85t-11 104t-4 128.5q-110 -52 -253 -52q-21 0 -31 1q53 -212 53 -365q0 -129 -40 -189q-50 -72 -163.5 -119t-236.5 -47q-171 0 -267 92.5
t-96 263.5q0 126 49 268h72q-33 -122 -33 -218q0 -288 287 -288q111 0 207.5 37.5t146.5 100.5q-3 214 -97 528l57 55q40 -8 98 -8q70 0 143 18.5t120 46.5l64 -10q1 -64 1.5 -102t3 -85t6 -73t10 -58.5t15.5 -48.5t22.5 -35t30 -27t39.5 -16.5t50.5 -11t62.5 -2.5z" />
    <glyph glyph-name="uniFC83" unicode="&#xfedc;&#xfef0;" horiz-adv-x="1276" arabic-form="final" 
d="M1311 102q13 0 15.5 -8t2.5 -50q0 -41 -3.5 -48.5t-22.5 -7.5q-110 0 -185.5 49.5t-160.5 168.5h-2q-13 -35 -52 -64.5t-85 -39.5v-2q135 -50 135 -186q0 -108 -66.5 -194.5t-178.5 -133.5t-247 -47q-194 0 -299.5 100.5t-105.5 286.5q0 130 52 286h70q-34 -138 -34 -239
q0 -316 325 -316q162 0 280.5 72t142.5 180q-25 75 -104 107t-256 40l14 96q296 6 363 123q-192 281 -392 467v91l685 325l-1 -107l-596 -264v-2q193 -184 384 -466q90 -132 153.5 -174.5t168.5 -42.5z" />
    <glyph glyph-name="uniFC84" unicode="&#xfedc;&#xfef2;" horiz-adv-x="1276" arabic-form="final" 
d="M1311 102q13 0 15.5 -8t2.5 -50q0 -41 -3.5 -48.5t-22.5 -7.5q-110 0 -185.5 49.5t-160.5 168.5h-2q-13 -35 -52 -64.5t-85 -39.5v-2q135 -50 135 -186q0 -108 -66.5 -194.5t-178.5 -133.5t-247 -47q-194 0 -299.5 100.5t-105.5 286.5q0 130 52 286h70q-34 -138 -34 -239
q0 -316 325 -316q162 0 280.5 72t142.5 180q-25 75 -104 107t-256 40l14 96q296 6 363 123q-192 281 -392 467v91l685 325l-1 -107l-596 -264v-2q193 -184 384 -466q90 -132 153.5 -174.5t168.5 -42.5zM215 -703q47 47 86 82q58 -60 89 -97q-35 -38 -84 -80q-55 55 -91 95z
M439 -703q41 42 85 82q47 -47 89 -97q-26 -29 -82 -80q-44 40 -92 95z" />
    <glyph glyph-name="uniFC86" unicode="&#xfee0;&#xfef0;" horiz-adv-x="1238" arabic-form="final" 
d="M1273 102q13 0 15.5 -8t2.5 -50q0 -41 -3.5 -48.5t-22.5 -7.5q-64 0 -110 10.5t-85 38t-61 80t-27 131.5h-2q-81 -67 -223 -111v-2q98 -31 142.5 -85t44.5 -139q0 -161 -142.5 -266.5t-349.5 -105.5q-193 0 -299 100.5t-106 286.5q0 127 51 286h71q-34 -138 -34 -239
q0 -316 325 -316q162 0 281 72.5t142 181.5q-28 80 -114.5 115.5t-265.5 46.5l3 98q148 27 274 78.5t200 120.5l-5 770l99 4l-5 -810q-1 -135 44 -183.5t160 -48.5z" />
    <glyph glyph-name="uniFC87" unicode="&#xfee0;&#xfef2;" horiz-adv-x="1238" arabic-form="final" 
d="M1273 102q13 0 15.5 -8t2.5 -50q0 -41 -3.5 -48.5t-22.5 -7.5q-64 0 -110 10.5t-85 38t-61 80t-27 131.5h-2q-81 -67 -223 -111v-2q98 -31 142.5 -85t44.5 -139q0 -161 -142.5 -266.5t-349.5 -105.5q-193 0 -299 100.5t-106 286.5q0 127 51 286h71q-34 -138 -34 -239
q0 -316 325 -316q162 0 281 72.5t142 181.5q-28 80 -114.5 115.5t-265.5 46.5l3 98q148 27 274 78.5t200 120.5l-5 770l99 4l-5 -810q-1 -135 44 -183.5t160 -48.5zM113 -652q47 47 86 82q58 -60 89 -97q-35 -38 -84 -80q-55 55 -91 95zM337 -652q41 42 85 82q47 -47 89 -97
q-26 -29 -82 -80q-44 40 -92 95z" />
    <glyph glyph-name="uniFC8A" unicode="&#xfee8;&#xfeae;" horiz-adv-x="987" arabic-form="final" 
d="M735 777q-55 48 -95 96q33 38 84 86q45 -44 94 -96q-45 -52 -83 -86zM1022 100q13 0 15.5 -8t2.5 -50q0 -41 -3.5 -48.5t-22.5 -7.5q-59 0 -104 9t-78 25t-56 45t-37.5 62t-22.5 83t-11.5 101.5t-3.5 123.5q-121 -50 -278 -54q34 -115 34 -227q0 -82 -22 -157.5
t-69.5 -148.5t-129.5 -137.5t-194 -114.5l-73 92q215 91 311 198.5t96 236.5q0 120 -75 295l40 80q25 -4 70 -4q165 0 303 65l67 -11q1 -121 4.5 -180.5t16 -123t38.5 -88t69.5 -40.5t112.5 -16z" />
    <glyph glyph-name="uniFC8B" unicode="&#xfee8;&#xfeb0;" horiz-adv-x="987" arabic-form="final" 
d="M735 777q-55 48 -95 96q33 38 84 86q45 -44 94 -96q-45 -52 -83 -86zM231 706q-55 48 -95 96q33 38 84 86q45 -44 94 -96q-45 -52 -83 -86zM1022 100q13 0 15.5 -8t2.5 -50q0 -41 -3.5 -48.5t-22.5 -7.5q-59 0 -104 9t-78 25t-56 45t-37.5 62t-22.5 83t-11.5 101.5
t-3.5 123.5q-121 -50 -278 -54q34 -115 34 -227q0 -82 -22 -157.5t-69.5 -148.5t-129.5 -137.5t-194 -114.5l-73 92q215 91 311 198.5t96 236.5q0 120 -75 295l40 80q25 -4 70 -4q165 0 303 65l67 -11q1 -121 4.5 -180.5t16 -123t38.5 -88t69.5 -40.5t112.5 -16z" />
    <glyph glyph-name="uniFC8D" unicode="&#xfee8;&#xfee6;" horiz-adv-x="1395" arabic-form="final" 
d="M1121 794q-55 48 -95 96q33 38 84 86q45 -44 94 -96q-45 -52 -83 -86zM476 742q-55 48 -95 96q33 38 84 86q45 -44 94 -96q-45 -52 -83 -86zM1430 102q13 0 15.5 -8t2.5 -50q0 -41 -3.5 -48.5t-23.5 -7.5q-60 0 -105 9t-78 24.5t-55.5 45t-36.5 62t-22 85t-11 104
t-4 128.5q-110 -52 -253 -52q-21 0 -31 1q53 -212 53 -365q0 -129 -40 -189q-50 -72 -163.5 -119t-236.5 -47q-171 0 -267 92.5t-96 263.5q0 126 49 268h72q-33 -122 -33 -218q0 -288 287 -288q111 0 207.5 37.5t146.5 100.5q-3 214 -97 528l57 55q40 -8 98 -8
q70 0 143 18.5t120 46.5l64 -10q1 -64 1.5 -102t3 -85t6 -73t10 -58.5t15.5 -48.5t22.5 -35t30 -27t39.5 -16.5t50.5 -11t62.5 -2.5z" />
    <glyph glyph-name="uniFC91" unicode="&#xfef4;&#xfeae;" horiz-adv-x="987" arabic-form="final" 
d="M1022 100q13 0 15.5 -8t2.5 -50q0 -41 -3.5 -48.5t-22.5 -7.5q-59 0 -104 9t-78 25t-56 45t-37.5 62t-22.5 83t-11.5 101.5t-3.5 123.5q-121 -50 -278 -54q34 -115 34 -227q0 -82 -22 -157.5t-69.5 -148.5t-129.5 -137.5t-194 -114.5l-73 92q215 91 311 198.5t96 236.5
q0 120 -75 295l40 80q25 -4 70 -4q165 0 303 65l67 -11q1 -121 4.5 -180.5t16 -123t38.5 -88t69.5 -40.5t112.5 -16zM617 -268q47 47 86 82q58 -60 89 -97q-35 -38 -84 -80q-55 55 -91 95zM841 -268q41 42 85 82q47 -47 89 -97q-26 -29 -82 -80q-44 40 -92 95z" />
    <glyph glyph-name="uniFC92" unicode="&#xfef4;&#xfeb0;" horiz-adv-x="987" arabic-form="final" 
d="M231 706q-55 48 -95 96q33 38 84 86q45 -44 94 -96q-45 -52 -83 -86zM1022 100q13 0 15.5 -8t2.5 -50q0 -41 -3.5 -48.5t-22.5 -7.5q-59 0 -104 9t-78 25t-56 45t-37.5 62t-22.5 83t-11.5 101.5t-3.5 123.5q-121 -50 -278 -54q34 -115 34 -227q0 -82 -22 -157.5
t-69.5 -148.5t-129.5 -137.5t-194 -114.5l-73 92q215 91 311 198.5t96 236.5q0 120 -75 295l40 80q25 -4 70 -4q165 0 303 65l67 -11q1 -121 4.5 -180.5t16 -123t38.5 -88t69.5 -40.5t112.5 -16zM617 -268q47 47 86 82q58 -60 89 -97q-35 -38 -84 -80q-55 55 -91 95z
M841 -268q41 42 85 82q47 -47 89 -97q-26 -29 -82 -80q-44 40 -92 95z" />
    <glyph glyph-name="uniFC94" unicode="&#xfef4;&#xfee6;" horiz-adv-x="1395" arabic-form="final" 
d="M476 742q-55 48 -95 96q33 38 84 86q45 -44 94 -96q-45 -52 -83 -86zM1430 102q13 0 15.5 -8t2.5 -50q0 -41 -3.5 -48.5t-23.5 -7.5q-60 0 -105 9t-78 24.5t-55.5 45t-36.5 62t-22 85t-11 104t-4 128.5q-110 -52 -253 -52q-21 0 -31 1q53 -212 53 -365q0 -129 -40 -189
q-50 -72 -163.5 -119t-236.5 -47q-171 0 -267 92.5t-96 263.5q0 126 49 268h72q-33 -122 -33 -218q0 -288 287 -288q111 0 207.5 37.5t146.5 100.5q-3 214 -97 528l57 55q40 -8 98 -8q70 0 143 18.5t120 46.5l64 -10q1 -64 1.5 -102t3 -85t6 -73t10 -58.5t15.5 -48.5
t22.5 -35t30 -27t39.5 -16.5t50.5 -11t62.5 -2.5zM978 -296q47 47 86 82q58 -60 89 -97q-35 -38 -84 -80q-55 55 -91 95zM1202 -296q41 42 85 82q47 -47 89 -97q-26 -29 -82 -80q-44 40 -92 95z" />
    <glyph glyph-name="uniFCFB" unicode="&#xfeb3;&#xfef0;" horiz-adv-x="2000" arabic-form="isolated" 
d="M1858 573q22 -171 22 -327q0 -107 -18 -205q-86 -57 -209 -57q-161 0 -224 85q-65 -85 -172 -85q-51 0 -86 13.5t-61 47.5t-42.5 70t-39.5 103q-23 68 -38.5 102.5t-41 62t-59.5 36.5t-89 9q-124 0 -200.5 -50t-76.5 -121q0 -45 42.5 -68.5t168.5 -59.5q137 -39 189 -84
t52 -130q0 -112 -69.5 -200t-186 -134.5t-257.5 -46.5q-195 0 -300 95.5t-105 269.5q0 118 48 260h70q-29 -124 -29 -214q0 -291 319 -291q166 0 288.5 64t155.5 169q-20 53 -63.5 79t-149.5 57q-142 40 -198 81t-56 127q0 128 104.5 218.5t268.5 90.5q69 0 114.5 -14
t76 -48.5t48.5 -73t40 -108.5q36 -113 70 -157t96 -44q76 0 119 53q45 169 64 306l80 -13q-9 -117 -45 -285q65 -60 184 -60q62 0 134 24v44q0 165 -45 401z" />
    <glyph glyph-name="uniFCFC" unicode="&#xfeb3;&#xfef2;" horiz-adv-x="2000" arabic-form="isolated" 
d="M1858 573q22 -171 22 -327q0 -107 -18 -205q-86 -57 -209 -57q-161 0 -224 85q-65 -85 -172 -85q-51 0 -86 13.5t-61 47.5t-42.5 70t-39.5 103q-23 68 -38.5 102.5t-41 62t-59.5 36.5t-89 9q-124 0 -200.5 -50t-76.5 -121q0 -45 42.5 -68.5t168.5 -59.5q137 -39 189 -84
t52 -130q0 -112 -69.5 -200t-186 -134.5t-257.5 -46.5q-195 0 -300 95.5t-105 269.5q0 118 48 260h70q-29 -124 -29 -214q0 -291 319 -291q166 0 288.5 64t155.5 169q-20 53 -63.5 79t-149.5 57q-142 40 -198 81t-56 127q0 128 104.5 218.5t268.5 90.5q69 0 114.5 -14
t76 -48.5t48.5 -73t40 -108.5q36 -113 70 -157t96 -44q76 0 119 53q45 169 64 306l80 -13q-9 -117 -45 -285q65 -60 184 -60q62 0 134 24v44q0 165 -45 401zM287 -708q47 47 86 82q58 -60 89 -97q-35 -38 -84 -80q-55 55 -91 95zM511 -708q41 42 85 82q47 -47 89 -97
q-26 -29 -82 -80q-44 40 -92 95z" />
    <glyph glyph-name="uniFCFD" unicode="&#xfeb7;&#xfef0;" horiz-adv-x="2000" arabic-form="isolated" 
d="M1470 891q-45 41 -89 91q36 42 78 78q44 -37 90 -90q-42 -47 -79 -79zM1598 711q-40 37 -91 92q43 48 80 81q47 -40 92 -93q-46 -50 -81 -80zM1367 708q-48 44 -92 92q43 48 80 81q46 -40 94 -93q-36 -38 -82 -80zM1858 573q22 -171 22 -327q0 -107 -18 -205
q-86 -57 -209 -57q-161 0 -224 85q-65 -85 -172 -85q-51 0 -86 13.5t-61 47.5t-42.5 70t-39.5 103q-23 68 -38.5 102.5t-41 62t-59.5 36.5t-89 9q-124 0 -200.5 -50t-76.5 -121q0 -45 42.5 -68.5t168.5 -59.5q137 -39 189 -84t52 -130q0 -112 -69.5 -200t-186 -134.5
t-257.5 -46.5q-195 0 -300 95.5t-105 269.5q0 118 48 260h70q-29 -124 -29 -214q0 -291 319 -291q166 0 288.5 64t155.5 169q-20 53 -63.5 79t-149.5 57q-142 40 -198 81t-56 127q0 128 104.5 218.5t268.5 90.5q69 0 114.5 -14t76 -48.5t48.5 -73t40 -108.5q36 -113 70 -157
t96 -44q76 0 119 53q45 169 64 306l80 -13q-9 -117 -45 -285q65 -60 184 -60q62 0 134 24v44q0 165 -45 401z" />
    <glyph glyph-name="uniFCFE" unicode="&#xfeb7;&#xfef2;" horiz-adv-x="2000" arabic-form="isolated" 
d="M1470 891q-45 41 -89 91q36 42 78 78q44 -37 90 -90q-42 -47 -79 -79zM1598 711q-40 37 -91 92q43 48 80 81q47 -40 92 -93q-46 -50 -81 -80zM1367 708q-48 44 -92 92q43 48 80 81q46 -40 94 -93q-36 -38 -82 -80zM1858 573q22 -171 22 -327q0 -107 -18 -205
q-86 -57 -209 -57q-161 0 -224 85q-65 -85 -172 -85q-51 0 -86 13.5t-61 47.5t-42.5 70t-39.5 103q-23 68 -38.5 102.5t-41 62t-59.5 36.5t-89 9q-124 0 -200.5 -50t-76.5 -121q0 -45 42.5 -68.5t168.5 -59.5q137 -39 189 -84t52 -130q0 -112 -69.5 -200t-186 -134.5
t-257.5 -46.5q-195 0 -300 95.5t-105 269.5q0 118 48 260h70q-29 -124 -29 -214q0 -291 319 -291q166 0 288.5 64t155.5 169q-20 53 -63.5 79t-149.5 57q-142 40 -198 81t-56 127q0 128 104.5 218.5t268.5 90.5q69 0 114.5 -14t76 -48.5t48.5 -73t40 -108.5q36 -113 70 -157
t96 -44q76 0 119 53q45 169 64 306l80 -13q-9 -117 -45 -285q65 -60 184 -60q62 0 134 24v44q0 165 -45 401zM287 -708q47 47 86 82q58 -60 89 -97q-35 -38 -84 -80q-55 55 -91 95zM511 -708q41 42 85 82q47 -47 89 -97q-26 -29 -82 -80q-44 40 -92 95z" />
    <glyph glyph-name="uniFD05" unicode="&#xfebb;&#xfef0;" horiz-adv-x="2098" arabic-form="isolated" 
d="M1714 588q131 0 205 -94.5t74 -233.5q0 -94 -30 -195q-78 -44 -216 -70t-289 -26q-93 0 -157.5 8.5t-107 23.5t-72.5 46t-47.5 65t-38.5 91q-22 60 -35 90.5t-32 62t-40.5 44t-53 20.5t-77.5 8q-122 0 -198 -50t-76 -121q0 -45 43 -69t168 -59q137 -39 189 -84t52 -130
q0 -112 -69.5 -200t-186 -134.5t-257.5 -46.5q-196 0 -301 95.5t-105 269.5q0 112 48 260h71q-30 -128 -30 -214q0 -291 320 -291q166 0 288.5 64t155.5 169q-20 53 -64 79t-150 57q-142 40 -198 81.5t-56 126.5q0 128 105 218.5t269 90.5q67 0 112.5 -14t76 -48.5
t47.5 -70.5t40 -103q42 -126 71 -158q125 205 266.5 323.5t285.5 118.5zM1215 111q70 -29 266 -29q119 0 237.5 17.5t195.5 46.5q2 32 2 50q0 122 -58.5 199t-163.5 77q-118 0 -242.5 -98t-236.5 -263z" />
    <glyph glyph-name="uniFD06" unicode="&#xfebb;&#xfef2;" horiz-adv-x="2098" arabic-form="isolated" 
d="M1714 588q131 0 205 -94.5t74 -233.5q0 -94 -30 -195q-78 -44 -216 -70t-289 -26q-93 0 -157.5 8.5t-107 23.5t-72.5 46t-47.5 65t-38.5 91q-22 60 -35 90.5t-32 62t-40.5 44t-53 20.5t-77.5 8q-122 0 -198 -50t-76 -121q0 -45 43 -69t168 -59q137 -39 189 -84t52 -130
q0 -112 -69.5 -200t-186 -134.5t-257.5 -46.5q-196 0 -301 95.5t-105 269.5q0 112 48 260h71q-30 -128 -30 -214q0 -291 320 -291q166 0 288.5 64t155.5 169q-20 53 -64 79t-150 57q-142 40 -198 81.5t-56 126.5q0 128 105 218.5t269 90.5q67 0 112.5 -14t76 -48.5
t47.5 -70.5t40 -103q42 -126 71 -158q125 205 266.5 323.5t285.5 118.5zM1215 111q70 -29 266 -29q119 0 237.5 17.5t195.5 46.5q2 32 2 50q0 122 -58.5 199t-163.5 77q-118 0 -242.5 -98t-236.5 -263zM281 -721q47 47 86 82q58 -60 89 -97q-35 -38 -84 -80q-55 55 -91 95z
M505 -721q41 42 85 82q47 -47 89 -97q-26 -29 -82 -80q-44 40 -92 95z" />
    <glyph glyph-name="uniFD07" unicode="&#xfebf;&#xfef0;" horiz-adv-x="2098" arabic-form="isolated" 
d="M1590 801q-55 48 -95 96q33 38 84 86q45 -44 94 -96q-45 -52 -83 -86zM1714 588q131 0 205 -94.5t74 -233.5q0 -94 -30 -195q-78 -44 -216 -70t-289 -26q-93 0 -157.5 8.5t-107 23.5t-72.5 46t-47.5 65t-38.5 91q-22 60 -35 90.5t-32 62t-40.5 44t-53 20.5t-77.5 8
q-122 0 -198 -50t-76 -121q0 -45 43 -69t168 -59q137 -39 189 -84t52 -130q0 -112 -69.5 -200t-186 -134.5t-257.5 -46.5q-196 0 -301 95.5t-105 269.5q0 112 48 260h71q-30 -128 -30 -214q0 -291 320 -291q166 0 288.5 64t155.5 169q-20 53 -64 79t-150 57
q-142 40 -198 81.5t-56 126.5q0 128 105 218.5t269 90.5q67 0 112.5 -14t76 -48.5t47.5 -70.5t40 -103q42 -126 71 -158q125 205 266.5 323.5t285.5 118.5zM1215 111q70 -29 266 -29q119 0 237.5 17.5t195.5 46.5q2 32 2 50q0 122 -58.5 199t-163.5 77q-118 0 -242.5 -98
t-236.5 -263z" />
    <glyph glyph-name="uniFD08" unicode="&#xfebf;&#xfef2;" horiz-adv-x="2098" arabic-form="isolated" 
d="M1590 801q-55 48 -95 96q33 38 84 86q45 -44 94 -96q-45 -52 -83 -86zM1714 588q131 0 205 -94.5t74 -233.5q0 -94 -30 -195q-78 -44 -216 -70t-289 -26q-93 0 -157.5 8.5t-107 23.5t-72.5 46t-47.5 65t-38.5 91q-22 60 -35 90.5t-32 62t-40.5 44t-53 20.5t-77.5 8
q-122 0 -198 -50t-76 -121q0 -45 43 -69t168 -59q137 -39 189 -84t52 -130q0 -112 -69.5 -200t-186 -134.5t-257.5 -46.5q-196 0 -301 95.5t-105 269.5q0 112 48 260h71q-30 -128 -30 -214q0 -291 320 -291q166 0 288.5 64t155.5 169q-20 53 -64 79t-150 57
q-142 40 -198 81.5t-56 126.5q0 128 105 218.5t269 90.5q67 0 112.5 -14t76 -48.5t47.5 -70.5t40 -103q42 -126 71 -158q125 205 266.5 323.5t285.5 118.5zM1215 111q70 -29 266 -29q119 0 237.5 17.5t195.5 46.5q2 32 2 50q0 122 -58.5 199t-163.5 77q-118 0 -242.5 -98
t-236.5 -263zM281 -721q47 47 86 82q58 -60 89 -97q-35 -38 -84 -80q-55 55 -91 95zM505 -721q41 42 85 82q47 -47 89 -97q-26 -29 -82 -80q-44 40 -92 95z" />
    <glyph glyph-name="uniFD0D" unicode="&#xfeb7;&#xfeae;" horiz-adv-x="1694" arabic-form="isolated" 
d="M1172 891q-45 41 -89 91q36 42 78 78q44 -37 90 -90q-42 -47 -79 -79zM1300 711q-40 37 -91 92q43 48 80 81q47 -40 92 -93q-46 -50 -81 -80zM1069 708q-48 44 -92 92q43 48 80 81q46 -40 94 -93q-36 -38 -82 -80zM1559 573q22 -171 22 -327q0 -107 -18 -205
q-85 -57 -209 -57q-157 0 -222 82q-63 -78 -193 -78q-61 0 -104.5 15t-71 41.5t-44 71t-23.5 95t-10 122.5q-148 -4 -260 -15q25 -87 25 -181q0 -78 -21.5 -150t-68 -142.5t-128 -134.5t-193.5 -114l-71 93q215 90 308.5 193t93.5 223q0 104 -58 226l8 90q223 30 443 32
q1 -85 5 -136.5t14.5 -97.5t31 -69t52.5 -35.5t80 -12.5q94 0 133 46q37 131 64 307l80 -13q-7 -116 -44 -286q63 -60 183 -60q62 0 134 24v44q0 165 -45 401z" />
    <glyph glyph-name="uniFD0E" unicode="&#xfeb3;&#xfeae;" horiz-adv-x="1694" arabic-form="isolated" 
d="M1559 573q22 -171 22 -327q0 -107 -18 -205q-85 -57 -209 -57q-157 0 -222 82q-63 -78 -193 -78q-61 0 -104.5 15t-71 41.5t-44 71t-23.5 95t-10 122.5q-148 -4 -260 -15q25 -87 25 -181q0 -78 -21.5 -150t-68 -142.5t-128 -134.5t-193.5 -114l-71 93q215 90 308.5 193
t93.5 223q0 104 -58 226l8 90q223 30 443 32q1 -85 5 -136.5t14.5 -97.5t31 -69t52.5 -35.5t80 -12.5q94 0 133 46q37 131 64 307l80 -13q-7 -116 -44 -286q63 -60 183 -60q62 0 134 24v44q0 165 -45 401z" />
    <glyph glyph-name="uniFD0F" unicode="&#xfebb;&#xfeae;" horiz-adv-x="1789" arabic-form="isolated" 
d="M1406 588q129 0 203 -94t74 -234q0 -110 -29 -195q-80 -44 -216 -70t-297 -26q-84 0 -142.5 5.5t-109.5 21.5t-84 42t-60 69t-44.5 100.5t-31.5 139.5q-99 0 -249 -12q33 -102 33 -201q0 -77 -22.5 -150t-69.5 -143t-128.5 -133.5t-191.5 -111.5l-72 93q403 166 403 416
q0 109 -67 237l6 92q186 28 418 32q20 -132 45.5 -207t74.5 -115q128 206 271 325t286 119zM903 113q81 -31 261 -31q261 0 441 63q2 36 2 56q0 117 -60 194t-166 77q-117 0 -241 -97.5t-237 -261.5z" />
    <glyph glyph-name="uniFD10" unicode="&#xfebf;&#xfeae;" horiz-adv-x="1789" arabic-form="isolated" 
d="M1275 799q-55 48 -95 96q33 38 84 86q45 -44 94 -96q-45 -52 -83 -86zM1406 588q129 0 203 -94t74 -234q0 -110 -29 -195q-80 -44 -216 -70t-297 -26q-84 0 -142.5 5.5t-109.5 21.5t-84 42t-60 69t-44.5 100.5t-31.5 139.5q-99 0 -249 -12q33 -102 33 -201
q0 -77 -22.5 -150t-69.5 -143t-128.5 -133.5t-191.5 -111.5l-72 93q403 166 403 416q0 109 -67 237l6 92q186 28 418 32q20 -132 45.5 -207t74.5 -115q128 206 271 325t286 119zM903 113q81 -31 261 -31q261 0 441 63q2 36 2 56q0 117 -60 194t-166 77q-117 0 -241 -97.5
t-237 -261.5z" />
    <glyph glyph-name="uniFD17" unicode="&#xfeb4;&#xfef0;" horiz-adv-x="2041" arabic-form="final" 
d="M2076 102q13 0 15.5 -8t2.5 -50q0 -41 -3.5 -48.5t-22.5 -7.5q-166 0 -238 67q-63 -70 -193 -70q-141 0 -206 85q-67 -86 -174 -86q-51 0 -86 13.5t-61 47.5t-42.5 70t-39.5 103q-23 68 -38.5 102.5t-41 62t-59.5 36.5t-89 9q-124 0 -200.5 -50t-76.5 -121
q0 -45 42.5 -68.5t168.5 -59.5q137 -39 189 -84t52 -130q0 -112 -69.5 -200t-186 -134.5t-257.5 -46.5q-195 0 -300 95.5t-105 269.5q0 118 48 260h70q-29 -124 -29 -214q0 -291 319 -291q166 0 288.5 64t155.5 169q-20 53 -63.5 79t-149.5 57q-142 40 -198 81t-56 127
q0 128 104.5 218.5t268.5 90.5q69 0 114.5 -14t76 -48.5t48.5 -73t40 -108.5q36 -113 70 -157t96 -44q76 0 119 53q45 169 64 306l80 -13q-9 -113 -46 -292q60 -51 165 -51q101 0 146 50q2 20 2 86q0 105 -13 211l86 7q18 -126 18 -224q0 -50 -4 -86q65 -40 199 -40z" />
    <glyph glyph-name="uniFD18" unicode="&#xfeb4;&#xfef2;" horiz-adv-x="2041" arabic-form="final" 
d="M2076 102q13 0 15.5 -8t2.5 -50q0 -41 -3.5 -48.5t-22.5 -7.5q-166 0 -238 67q-63 -70 -193 -70q-141 0 -206 85q-67 -86 -174 -86q-51 0 -86 13.5t-61 47.5t-42.5 70t-39.5 103q-23 68 -38.5 102.5t-41 62t-59.5 36.5t-89 9q-124 0 -200.5 -50t-76.5 -121
q0 -45 42.5 -68.5t168.5 -59.5q137 -39 189 -84t52 -130q0 -112 -69.5 -200t-186 -134.5t-257.5 -46.5q-195 0 -300 95.5t-105 269.5q0 118 48 260h70q-29 -124 -29 -214q0 -291 319 -291q166 0 288.5 64t155.5 169q-20 53 -63.5 79t-149.5 57q-142 40 -198 81t-56 127
q0 128 104.5 218.5t268.5 90.5q69 0 114.5 -14t76 -48.5t48.5 -73t40 -108.5q36 -113 70 -157t96 -44q76 0 119 53q45 169 64 306l80 -13q-9 -113 -46 -292q60 -51 165 -51q101 0 146 50q2 20 2 86q0 105 -13 211l86 7q18 -126 18 -224q0 -50 -4 -86q65 -40 199 -40z
M288 -708q47 47 86 82q58 -60 89 -97q-35 -38 -84 -80q-55 55 -91 95zM512 -708q41 42 85 82q47 -47 89 -97q-26 -29 -82 -80q-44 40 -92 95z" />
    <glyph glyph-name="uniFD19" unicode="&#xfeb8;&#xfef0;" horiz-adv-x="2041" arabic-form="final" 
d="M1476 887q-45 41 -89 91q36 42 78 78q44 -37 90 -90q-42 -47 -79 -79zM1604 707q-40 37 -91 92q43 48 80 81q47 -40 92 -93q-46 -50 -81 -80zM1373 704q-48 44 -92 92q43 48 80 81q46 -40 94 -93q-36 -38 -82 -80zM2076 102q13 0 15.5 -8t2.5 -50q0 -41 -3.5 -48.5
t-22.5 -7.5q-166 0 -238 67q-63 -70 -193 -70q-141 0 -206 85q-67 -86 -174 -86q-51 0 -86 13.5t-61 47.5t-42.5 70t-39.5 103q-23 68 -38.5 102.5t-41 62t-59.5 36.5t-89 9q-124 0 -200.5 -50t-76.5 -121q0 -45 42.5 -68.5t168.5 -59.5q137 -39 189 -84t52 -130
q0 -112 -69.5 -200t-186 -134.5t-257.5 -46.5q-195 0 -300 95.5t-105 269.5q0 118 48 260h70q-29 -124 -29 -214q0 -291 319 -291q166 0 288.5 64t155.5 169q-20 53 -63.5 79t-149.5 57q-142 40 -198 81t-56 127q0 128 104.5 218.5t268.5 90.5q69 0 114.5 -14t76 -48.5
t48.5 -73t40 -108.5q36 -113 70 -157t96 -44q76 0 119 53q45 169 64 306l80 -13q-9 -113 -46 -292q60 -51 165 -51q101 0 146 50q2 20 2 86q0 105 -13 211l86 7q18 -126 18 -224q0 -50 -4 -86q65 -40 199 -40z" />
    <glyph glyph-name="uniFD1A" unicode="&#xfeb8;&#xfef2;" horiz-adv-x="2041" arabic-form="final" 
d="M1476 887q-45 41 -89 91q36 42 78 78q44 -37 90 -90q-42 -47 -79 -79zM1604 707q-40 37 -91 92q43 48 80 81q47 -40 92 -93q-46 -50 -81 -80zM1373 704q-48 44 -92 92q43 48 80 81q46 -40 94 -93q-36 -38 -82 -80zM2076 102q13 0 15.5 -8t2.5 -50q0 -41 -3.5 -48.5
t-22.5 -7.5q-166 0 -238 67q-63 -70 -193 -70q-141 0 -206 85q-67 -86 -174 -86q-51 0 -86 13.5t-61 47.5t-42.5 70t-39.5 103q-23 68 -38.5 102.5t-41 62t-59.5 36.5t-89 9q-124 0 -200.5 -50t-76.5 -121q0 -45 42.5 -68.5t168.5 -59.5q137 -39 189 -84t52 -130
q0 -112 -69.5 -200t-186 -134.5t-257.5 -46.5q-195 0 -300 95.5t-105 269.5q0 118 48 260h70q-29 -124 -29 -214q0 -291 319 -291q166 0 288.5 64t155.5 169q-20 53 -63.5 79t-149.5 57q-142 40 -198 81t-56 127q0 128 104.5 218.5t268.5 90.5q69 0 114.5 -14t76 -48.5
t48.5 -73t40 -108.5q36 -113 70 -157t96 -44q76 0 119 53q45 169 64 306l80 -13q-9 -113 -46 -292q60 -51 165 -51q101 0 146 50q2 20 2 86q0 105 -13 211l86 7q18 -126 18 -224q0 -50 -4 -86q65 -40 199 -40zM288 -708q47 47 86 82q58 -60 89 -97q-35 -38 -84 -80
q-55 55 -91 95zM512 -708q41 42 85 82q47 -47 89 -97q-26 -29 -82 -80q-44 40 -92 95z" />
    <glyph glyph-name="uniFD21" unicode="&#xfebc;&#xfef0;" horiz-adv-x="2164" arabic-form="final" 
d="M2199 102q13 0 15.5 -8t2.5 -50q0 -41 -3.5 -48.5t-23.5 -7.5q-179 0 -264 78q-76 -46 -198 -71.5t-259 -25.5q-91 0 -149 5.5t-106 19t-79 41.5t-54.5 67t-45.5 101q-18 50 -28.5 77.5t-26.5 57t-30.5 43.5t-37 26.5t-50 16.5t-65.5 4q-122 0 -198 -50t-76 -121
q0 -45 43 -69t168 -59q137 -39 189 -84t52 -130q0 -112 -69.5 -200t-186 -134.5t-257.5 -46.5q-196 0 -301 95.5t-105 269.5q0 112 48 260h71q-30 -128 -30 -214q0 -291 320 -291q166 0 288.5 64t155.5 169q-20 53 -64 79t-150 57q-142 40 -198 81.5t-56 126.5
q0 128 105 218.5t269 90.5q67 0 112.5 -14t76 -48.5t47.5 -70.5t40 -103q40 -118 71 -154q124 201 271.5 322t290.5 121q127 0 200.5 -89t73.5 -220q0 -64 -18 -129q81 -53 219 -53zM1213 112q69 -30 274 -30q126 0 242 23t185 64q4 34 4 57q0 108 -57 180t-159 72
q-119 0 -250 -101.5t-239 -264.5z" />
    <glyph glyph-name="uniFD22" unicode="&#xfebc;&#xfef2;" horiz-adv-x="2164" arabic-form="final" 
d="M2199 102q13 0 15.5 -8t2.5 -50q0 -41 -3.5 -48.5t-23.5 -7.5q-179 0 -264 78q-76 -46 -198 -71.5t-259 -25.5q-91 0 -149 5.5t-106 19t-79 41.5t-54.5 67t-45.5 101q-18 50 -28.5 77.5t-26.5 57t-30.5 43.5t-37 26.5t-50 16.5t-65.5 4q-122 0 -198 -50t-76 -121
q0 -45 43 -69t168 -59q137 -39 189 -84t52 -130q0 -112 -69.5 -200t-186 -134.5t-257.5 -46.5q-196 0 -301 95.5t-105 269.5q0 112 48 260h71q-30 -128 -30 -214q0 -291 320 -291q166 0 288.5 64t155.5 169q-20 53 -64 79t-150 57q-142 40 -198 81.5t-56 126.5
q0 128 105 218.5t269 90.5q67 0 112.5 -14t76 -48.5t47.5 -70.5t40 -103q40 -118 71 -154q124 201 271.5 322t290.5 121q127 0 200.5 -89t73.5 -220q0 -64 -18 -129q81 -53 219 -53zM1213 112q69 -30 274 -30q126 0 242 23t185 64q4 34 4 57q0 108 -57 180t-159 72
q-119 0 -250 -101.5t-239 -264.5zM290 -708q47 47 86 82q58 -60 89 -97q-35 -38 -84 -80q-55 55 -91 95zM514 -708q41 42 85 82q47 -47 89 -97q-26 -29 -82 -80q-44 40 -92 95z" />
    <glyph glyph-name="uniFD23" unicode="&#xfec0;&#xfef0;" horiz-adv-x="2164" arabic-form="final" 
d="M1589 801q-55 48 -95 96q33 38 84 86q45 -44 94 -96q-45 -52 -83 -86zM2199 102q13 0 15.5 -8t2.5 -50q0 -41 -3.5 -48.5t-23.5 -7.5q-179 0 -264 78q-76 -46 -198 -71.5t-259 -25.5q-91 0 -149 5.5t-106 19t-79 41.5t-54.5 67t-45.5 101q-18 50 -28.5 77.5t-26.5 57
t-30.5 43.5t-37 26.5t-50 16.5t-65.5 4q-122 0 -198 -50t-76 -121q0 -45 43 -69t168 -59q137 -39 189 -84t52 -130q0 -112 -69.5 -200t-186 -134.5t-257.5 -46.5q-196 0 -301 95.5t-105 269.5q0 112 48 260h71q-30 -128 -30 -214q0 -291 320 -291q166 0 288.5 64t155.5 169
q-20 53 -64 79t-150 57q-142 40 -198 81.5t-56 126.5q0 128 105 218.5t269 90.5q67 0 112.5 -14t76 -48.5t47.5 -70.5t40 -103q40 -118 71 -154q124 201 271.5 322t290.5 121q127 0 200.5 -89t73.5 -220q0 -64 -18 -129q81 -53 219 -53zM1213 112q69 -30 274 -30
q126 0 242 23t185 64q4 34 4 57q0 108 -57 180t-159 72q-119 0 -250 -101.5t-239 -264.5z" />
    <glyph glyph-name="uniFD24" unicode="&#xfec0;&#xfef2;" horiz-adv-x="2164" arabic-form="final" 
d="M1589 801q-55 48 -95 96q33 38 84 86q45 -44 94 -96q-45 -52 -83 -86zM2199 102q13 0 15.5 -8t2.5 -50q0 -41 -3.5 -48.5t-23.5 -7.5q-179 0 -264 78q-76 -46 -198 -71.5t-259 -25.5q-91 0 -149 5.5t-106 19t-79 41.5t-54.5 67t-45.5 101q-18 50 -28.5 77.5t-26.5 57
t-30.5 43.5t-37 26.5t-50 16.5t-65.5 4q-122 0 -198 -50t-76 -121q0 -45 43 -69t168 -59q137 -39 189 -84t52 -130q0 -112 -69.5 -200t-186 -134.5t-257.5 -46.5q-196 0 -301 95.5t-105 269.5q0 112 48 260h71q-30 -128 -30 -214q0 -291 320 -291q166 0 288.5 64t155.5 169
q-20 53 -64 79t-150 57q-142 40 -198 81.5t-56 126.5q0 128 105 218.5t269 90.5q67 0 112.5 -14t76 -48.5t47.5 -70.5t40 -103q40 -118 71 -154q124 201 271.5 322t290.5 121q127 0 200.5 -89t73.5 -220q0 -64 -18 -129q81 -53 219 -53zM1213 112q69 -30 274 -30
q126 0 242 23t185 64q4 34 4 57q0 108 -57 180t-159 72q-119 0 -250 -101.5t-239 -264.5zM290 -708q47 47 86 82q58 -60 89 -97q-35 -38 -84 -80q-55 55 -91 95zM514 -708q41 42 85 82q47 -47 89 -97q-26 -29 -82 -80q-44 40 -92 95z" />
    <glyph glyph-name="uniFD29" unicode="&#xfeb8;&#xfeae;" horiz-adv-x="1744" arabic-form="final" 
d="M1172 891q-45 41 -89 91q36 42 78 78q44 -37 90 -90q-42 -47 -79 -79zM1300 711q-40 37 -91 92q43 48 80 81q47 -40 92 -93q-46 -50 -81 -80zM1069 708q-48 44 -92 92q43 48 80 81q46 -40 94 -93q-36 -38 -82 -80zM1779 102q13 0 15.5 -8t2.5 -50q0 -41 -3.5 -48.5
t-22.5 -7.5q-166 0 -238 67q-64 -71 -194 -71q-141 0 -205 84q-62 -80 -195 -80q-61 0 -104.5 15t-71 41.5t-44 71t-23.5 95t-10 122.5q-148 -4 -260 -15q25 -87 25 -181q0 -78 -21.5 -150t-68 -142.5t-128 -134.5t-193.5 -114l-71 93q215 90 308.5 193t93.5 223
q0 104 -58 226l8 90q223 30 443 32q1 -85 5 -136.5t14.5 -97.5t31 -69t52.5 -35.5t80 -12.5q94 0 133 46q37 131 64 307l80 -13q-7 -120 -46 -293q59 -52 166 -52q101 0 146 50q2 20 2 86q0 105 -13 211l86 7q18 -126 18 -224q0 -49 -4 -84q64 -41 200 -41z" />
    <glyph glyph-name="uniFD2A" unicode="&#xfeb4;&#xfeae;" horiz-adv-x="1744" arabic-form="final" 
d="M1779 102q13 0 15.5 -8t2.5 -50q0 -41 -3.5 -48.5t-22.5 -7.5q-166 0 -238 67q-64 -71 -194 -71q-141 0 -205 84q-62 -80 -195 -80q-61 0 -104.5 15t-71 41.5t-44 71t-23.5 95t-10 122.5q-148 -4 -260 -15q25 -87 25 -181q0 -78 -21.5 -150t-68 -142.5t-128 -134.5
t-193.5 -114l-71 93q215 90 308.5 193t93.5 223q0 104 -58 226l8 90q223 30 443 32q1 -85 5 -136.5t14.5 -97.5t31 -69t52.5 -35.5t80 -12.5q94 0 133 46q37 131 64 307l80 -13q-7 -120 -46 -293q59 -52 166 -52q101 0 146 50q2 20 2 86q0 105 -13 211l86 7q18 -126 18 -224
q0 -49 -4 -84q64 -41 200 -41z" />
    <glyph glyph-name="uniFD2B" unicode="&#xfebc;&#xfeae;" horiz-adv-x="1858" arabic-form="final" 
d="M1892 102q14 0 16.5 -8t2.5 -50q0 -41 -3.5 -48.5t-23.5 -7.5q-184 0 -267 77q-76 -44 -197.5 -70t-265.5 -26q-86 0 -145 5.5t-111.5 20.5t-86.5 41t-62.5 69t-46.5 101t-32 141q-98 0 -250 -12q34 -100 34 -201q0 -77 -22.5 -150t-70 -143t-129 -133.5t-191.5 -111.5
l-72 93q404 166 404 416q0 107 -68 237l6 92q186 28 419 32q19 -129 45 -205.5t75 -116.5q128 204 277 326.5t292 122.5q126 0 198.5 -89t72.5 -219q0 -62 -17 -132q79 -51 219 -51zM904 113q81 -31 265 -31q129 0 248 23t191 64q3 30 3 60q0 104 -57.5 176.5t-158.5 72.5
q-118 0 -250 -101.5t-241 -263.5z" />
    <glyph glyph-name="uniFD2C" unicode="&#xfec0;&#xfeae;" horiz-adv-x="1858" arabic-form="final" 
d="M1278 799q-55 48 -95 96q33 38 84 86q45 -44 94 -96q-45 -52 -83 -86zM1892 102q14 0 16.5 -8t2.5 -50q0 -41 -3.5 -48.5t-23.5 -7.5q-184 0 -267 77q-76 -44 -197.5 -70t-265.5 -26q-86 0 -145 5.5t-111.5 20.5t-86.5 41t-62.5 69t-46.5 101t-32 141q-98 0 -250 -12
q34 -100 34 -201q0 -77 -22.5 -150t-70 -143t-129 -133.5t-191.5 -111.5l-72 93q404 166 404 416q0 107 -68 237l6 92q186 28 419 32q19 -129 45 -205.5t75 -116.5q128 204 277 326.5t292 122.5q126 0 198.5 -89t72.5 -219q0 -62 -17 -132q79 -51 219 -51zM904 113
q81 -31 265 -31q129 0 248 23t191 64q3 30 3 60q0 104 -57.5 176.5t-158.5 72.5q-118 0 -250 -101.5t-241 -263.5z" />
    <glyph glyph-name="uniFDF2" unicode="&#x627;&#xfedf;&#xfee0;&#xfeea;" horiz-adv-x="1845" arabic-form="isolated" 
d="M944 1309l-67 -15q-5 79 -24 298l90 10q6 -82 6 -192q0 -77 -5 -101zM818 946q-44 0 -70 37.5t-26 98.5q0 47 13 99l49 17q0 -80 10.5 -118.5t44.5 -38.5q30 0 41.5 29.5t11.5 65.5q0 40 -7 87l58 18q4 -85 17.5 -124.5t43.5 -39.5q22 0 36 21.5t14 60.5q0 49 -19 115
l59 16q16 -46 16 -114q0 -80 -28.5 -134.5t-81.5 -54.5q-27 0 -48.5 14t-31.5 37h-3q-10 -43 -37 -67.5t-62 -24.5zM1621 1140l99 4l-6 -1151l-87 -5zM1282 269l-3 598l99 4l-3 -536q-1 -203 -13 -297q-87 -50 -226 -50q-149 0 -212 75q-75 -75 -214 -75q-97 0 -151 45
t-74 137q-83 -71 -187 -71q-96 0 -158 58t-62 155q0 75 39 141.5t115 111.5q84 50 218 68l-4 132l100 6q0 -423 9 -509q9 -89 45 -124.5t117 -35.5q98 0 152 40q1 33 1 130l-3 595l100 4l-4 -567q0 -96 -3 -153q59 -49 182 -49q75 0 139 15q0 18 0.5 69t0.5 83zM330 200
q82 0 144 42q-14 100 -20 292q-68 -8 -118 -20.5t-92.5 -33t-64.5 -53.5t-22 -78q0 -67 46.5 -108t126.5 -41z" />
    <glyph glyph-name="uniFEF5" unicode="&#xfedf;&#xfe82;" horiz-adv-x="885" arabic-form="isolated" 
d="M187 1122q-31 0 -81.5 8.5t-63.5 8.5q-53 0 -66 -63l-47 18q11 65 42.5 96.5t76.5 31.5q19 0 68 -10.5t83 -10.5q75 0 101 51l42 -19q-34 -111 -155 -111zM674 456q99 -130 99 -267q0 -83 -36 -157q-130 -68 -337 -68q-138 0 -263 36q-14 51 -19 105q334 176 454 330
q-11 13 -35 39q-162 169 -506 425l69 84q327 -262 490 -431q8 -9 25 -26q23 93 21 228l-4 390l99 4l-4 -389q-1 -183 -53 -303zM272 89q75 -16 151 -16q174 0 273 40q2 20 2 34q0 113 -76 224q-106 -139 -350 -279v-3z" />
    <glyph glyph-name="uniFEF6" unicode="&#xfee0;&#xfe82;" horiz-adv-x="901" arabic-form="final" 
d="M195 1140q-31 0 -81.5 8.5t-63.5 8.5q-53 0 -66 -63l-47 18q11 65 42.5 96.5t76.5 31.5q19 0 68 -10.5t83 -10.5q75 0 101 51l42 -19q-34 -111 -155 -111zM936 102q13 0 15.5 -8t2.5 -50q0 -41 -3.5 -48.5t-23.5 -7.5q-190 0 -253 104q-84 -129 -361 -129q-143 0 -238 30
l-16 102q156 -23 278 -23q48 0 87 3v9q0 136 -123 385q-114 231 -279 471l89 54q167 -259 268 -474q121 -254 121 -425v-10q83 18 114 67.5t30 153.5l-6 834l99 4l-4 -815q-1 -109 -15 -153q60 -74 218 -74z" />
    <glyph glyph-name="uniFEF7" unicode="&#xfedf;&#xfe84;" horiz-adv-x="885" arabic-form="isolated" 
d="M286 1217v-76q-166 -34 -330 -90l-2 70q44 17 93 33v1q-73 41 -73 110q0 63 50.5 115.5t121.5 52.5q44 0 80 -29l-3 -64q-35 5 -70 5q-50 0 -82.5 -17t-32.5 -47q0 -36 40.5 -58.5t105.5 -29.5zM674 456q99 -130 99 -267q0 -83 -36 -157q-130 -68 -337 -68
q-138 0 -263 36q-14 51 -19 105q334 176 454 330q-11 13 -35 39q-162 169 -506 425l69 84q327 -262 490 -431q8 -9 25 -26q23 93 21 228l-4 390l99 4l-4 -389q-1 -183 -53 -303zM272 89q75 -16 151 -16q174 0 273 40q2 20 2 34q0 113 -76 224q-106 -139 -350 -279v-3z" />
    <glyph glyph-name="uniFEF8" unicode="&#xfee0;&#xfe84;" horiz-adv-x="901" arabic-form="final" 
d="M294 1235v-76q-166 -34 -330 -90l-2 70q44 17 93 33v1q-73 41 -73 110q0 63 50.5 115.5t121.5 52.5q44 0 80 -29l-3 -64q-35 5 -70 5q-50 0 -82.5 -17t-32.5 -47q0 -36 40.5 -58.5t105.5 -29.5q11 3 32 8t38 9t32 7zM936 102q13 0 15.5 -8t2.5 -50q0 -41 -3.5 -48.5
t-23.5 -7.5q-190 0 -253 104q-84 -129 -361 -129q-143 0 -238 30l-16 102q156 -23 278 -23q48 0 87 3v9q0 136 -123 385q-114 231 -279 471l89 54q167 -259 268 -474q121 -254 121 -425v-10q83 18 114 67.5t30 153.5l-6 834l99 4l-4 -815q-1 -109 -15 -153q60 -74 218 -74z
" />
    <glyph glyph-name="uniFEF9" unicode="&#xfedf;&#xfe88;" horiz-adv-x="885" arabic-form="isolated" 
d="M674 456q99 -130 99 -267q0 -83 -36 -157q-130 -68 -337 -68q-138 0 -263 36q-14 51 -19 105q334 176 454 330q-11 13 -35 39q-162 169 -506 425l69 84q327 -262 490 -431q8 -9 25 -26q23 93 21 228l-4 390l99 4l-4 -389q-1 -183 -53 -303zM272 89q75 -16 151 -16
q174 0 273 40q2 20 2 34q0 113 -76 224q-106 -139 -350 -279v-3zM139 -309q0 -35 40 -57.5t103 -29.5q7 2 44.5 11t56.5 13v-75q-170 -36 -325 -89l-2 69q39 15 92 33v1q-72 39 -72 108q0 62 50 114t119 52q45 0 79 -29l-3 -63q-33 5 -69 5q-49 0 -81 -17t-32 -46z" />
    <glyph glyph-name="uniFEFA" unicode="&#xfee0;&#xfe88;" horiz-adv-x="901" arabic-form="final" 
d="M936 102q13 0 15.5 -8t2.5 -50q0 -41 -3.5 -48.5t-23.5 -7.5q-190 0 -253 104q-84 -129 -361 -129q-143 0 -238 30l-16 102q156 -23 278 -23q48 0 87 3v9q0 136 -123 385q-114 231 -279 471l89 54q167 -259 268 -474q121 -254 121 -425v-10q83 18 114 67.5t30 153.5
l-6 834l99 4l-4 -815q-1 -109 -15 -153q60 -74 218 -74zM129 -314q0 -35 40 -57.5t103 -29.5q7 2 44.5 11t56.5 13v-75q-170 -36 -325 -89l-2 69q39 15 92 33v1q-72 39 -72 108q0 62 50 114t119 52q45 0 79 -29l-3 -63q-33 5 -69 5q-49 0 -81 -17t-32 -46z" />
    <glyph glyph-name="uniFEFB" unicode="&#xfedf;&#xfe8e;" horiz-adv-x="885" arabic-form="isolated" 
d="M674 456q99 -130 99 -267q0 -83 -36 -157q-130 -68 -337 -68q-138 0 -263 36q-14 51 -19 105q334 176 454 330q-11 13 -35 39q-162 169 -506 425l69 84q327 -262 490 -431q8 -9 25 -26q23 93 21 228l-4 390l99 4l-4 -389q-1 -183 -53 -303zM272 89q75 -16 151 -16
q174 0 273 40q2 20 2 34q0 113 -76 224q-106 -139 -350 -279v-3z" />
    <glyph glyph-name="uniFEFC" unicode="&#xfee0;&#xfe8e;" horiz-adv-x="901" arabic-form="final" 
d="M936 102q13 0 15.5 -8t2.5 -50q0 -41 -3.5 -48.5t-23.5 -7.5q-190 0 -253 104q-84 -129 -361 -129q-143 0 -238 30l-16 102q156 -23 278 -23q48 0 87 3v9q0 136 -123 385q-114 231 -279 471l89 54q167 -259 268 -474q121 -254 121 -425v-10q83 18 114 67.5t30 153.5
l-6 834l99 4l-4 -815q-1 -109 -15 -153q60 -74 218 -74z" />
    <glyph glyph-name="uni06440671" unicode="&#xfedf;&#xfb51;" horiz-adv-x="885" 
d="M329 1229q0 -66 -37.5 -103t-99.5 -37q-43 0 -103.5 24t-84.5 24q-45 0 -71 -41l-24 42q31 76 104 76q18 0 31 -4q37 70 77 110t95 40q50 0 81.5 -36t31.5 -95zM197 1283q-64 0 -114 -85q2 -1 26 -10.5t32.5 -12t28 -6.5t36.5 -4q52 0 75 34q-1 37 -23 60.5t-61 23.5z
M674 456q99 -130 99 -267q0 -83 -36 -157q-130 -68 -337 -68q-138 0 -263 36q-14 51 -19 105q334 176 454 330q-11 13 -35 39q-162 169 -506 425l69 84q327 -262 490 -431q8 -9 25 -26q23 93 21 228l-4 390l99 4l-4 -389q-1 -183 -53 -303zM272 89q75 -16 151 -16
q174 0 273 40q2 20 2 34q0 113 -76 224q-106 -139 -350 -279v-3z" />
    <glyph glyph-name="uni06440671.fina" unicode="&#xfee0;&#xfb51;" horiz-adv-x="901" 
d="M337 1247q0 -66 -37.5 -103t-99.5 -37q-43 0 -103.5 24t-84.5 24q-45 0 -71 -41l-24 42q31 76 104 76q18 0 31 -4q37 70 77 110t95 40q50 0 81.5 -36t31.5 -95zM205 1301q-64 0 -114 -85q2 -1 26 -10.5t32.5 -12t28 -6.5t36.5 -4q52 0 75 34q-1 37 -23 60.5t-61 23.5z
M936 102q13 0 15.5 -8t2.5 -50q0 -41 -3.5 -48.5t-23.5 -7.5q-190 0 -253 104q-84 -129 -361 -129q-143 0 -238 30l-16 102q156 -23 278 -23q48 0 87 3v9q0 136 -123 385q-114 231 -279 471l89 54q167 -259 268 -474q121 -254 121 -425v-10q83 18 114 67.5t30 153.5l-6 834
l99 4l-4 -815q-1 -109 -15 -153q60 -74 218 -74z" />
    <glyph glyph-name="uni06280626" unicode="&#xfe91;&#xfe8a;" horiz-adv-x="1190" 
d="M231 469q43 17 93 33v1q-73 41 -73 110q0 63 50.5 115.5t121.5 52.5q44 0 80 -29l-3 -64q-35 5 -70 5q-50 0 -82.5 -17t-32.5 -47q0 -36 40.5 -58.5t105.5 -29.5q11 3 32 8t38 9t32 7v-76q-166 -34 -330 -90zM1055 655q22 -176 22 -310q0 -98 -18 -191q-79 -52 -205 -81
v-2q99 -44 99 -161q0 -157 -142.5 -262.5t-349.5 -105.5q-193 0 -299 100.5t-106 286.5q0 129 52 285h70q-34 -138 -34 -238q0 -316 325 -316q162 0 280 71.5t142 179.5q-33 68 -117 95t-264 29l8 95q137 5 264 30t210 63q-2 212 -46 425zM884 -491q45 -44 94 -96
q-45 -52 -83 -86q-55 48 -95 96q33 38 84 86z" />
    <glyph glyph-name="uni067E0631.fina" unicode="&#xfb59;&#xfeae;" horiz-adv-x="987" 
d="M1022 100q13 0 15.5 -8t2.5 -50q0 -41 -3.5 -48.5t-22.5 -7.5q-59 0 -104 9t-78 25t-56 45t-37.5 62t-22.5 83t-11.5 101.5t-3.5 123.5q-121 -50 -278 -54q34 -115 34 -227q0 -82 -22 -157.5t-69.5 -148.5t-129.5 -137.5t-194 -114.5l-73 92q215 91 311 198.5t96 236.5
q0 120 -75 295l40 80q25 -4 70 -4q165 0 303 65l67 -11q1 -121 4.5 -180.5t16 -123t38.5 -88t69.5 -40.5t112.5 -16zM925 -186q48 -44 92 -92q-43 -48 -80 -81q-46 40 -94 93q36 38 82 80zM694 -189q40 -37 91 -92q-43 -48 -80 -81q-47 40 -92 93q46 50 81 80zM822 -369
q45 -41 89 -91q-36 -42 -78 -78q-44 37 -90 90q42 47 79 79z" />
    <glyph glyph-name="uni067E0632.fina" unicode="&#xfb59;&#xfeb0;" horiz-adv-x="987" 
d="M231 706q-55 48 -95 96q33 38 84 86q45 -44 94 -96q-45 -52 -83 -86zM1022 100q13 0 15.5 -8t2.5 -50q0 -41 -3.5 -48.5t-22.5 -7.5q-59 0 -104 9t-78 25t-56 45t-37.5 62t-22.5 83t-11.5 101.5t-3.5 123.5q-121 -50 -278 -54q34 -115 34 -227q0 -82 -22 -157.5
t-69.5 -148.5t-129.5 -137.5t-194 -114.5l-73 92q215 91 311 198.5t96 236.5q0 120 -75 295l40 80q25 -4 70 -4q165 0 303 65l67 -11q1 -121 4.5 -180.5t16 -123t38.5 -88t69.5 -40.5t112.5 -16zM925 -186q48 -44 92 -92q-43 -48 -80 -81q-46 40 -94 93q36 38 82 80z
M694 -189q40 -37 91 -92q-43 -48 -80 -81q-47 40 -92 93q46 50 81 80zM822 -369q45 -41 89 -91q-36 -42 -78 -78q-44 37 -90 90q42 47 79 79z" />
    <glyph glyph-name="uni067E0646.fina" unicode="&#xfb59;&#xfee6;" horiz-adv-x="1395" 
d="M476 742q-55 48 -95 96q33 38 84 86q45 -44 94 -96q-45 -52 -83 -86zM1430 102q13 0 15.5 -8t2.5 -50q0 -41 -3.5 -48.5t-23.5 -7.5q-60 0 -105 9t-78 24.5t-55.5 45t-36.5 62t-22 85t-11 104t-4 128.5q-110 -52 -253 -52q-21 0 -31 1q53 -212 53 -365q0 -129 -40 -189
q-50 -72 -163.5 -119t-236.5 -47q-171 0 -267 92.5t-96 263.5q0 126 49 268h72q-33 -122 -33 -218q0 -288 287 -288q111 0 207.5 37.5t146.5 100.5q-3 214 -97 528l57 55q40 -8 98 -8q70 0 143 18.5t120 46.5l64 -10q1 -64 1.5 -102t3 -85t6 -73t10 -58.5t15.5 -48.5
t22.5 -35t30 -27t39.5 -16.5t50.5 -11t62.5 -2.5zM1286 -214q48 -44 92 -92q-43 -48 -80 -81q-46 40 -94 93q36 38 82 80zM1055 -217q40 -37 91 -92q-43 -48 -80 -81q-47 40 -92 93q46 50 81 80zM1183 -397q45 -41 89 -91q-36 -42 -78 -78q-44 37 -90 90q42 47 79 79z" />
    <glyph glyph-name="uni062A0626" unicode="&#xfe97;&#xfe8a;" horiz-adv-x="1190" 
d="M944 957q-35 -38 -84 -80q-55 55 -91 95q47 47 86 82q58 -60 89 -97zM1078 1054q47 -47 89 -97q-26 -29 -82 -80q-44 40 -92 95q41 42 85 82zM231 469q43 17 93 33v1q-73 41 -73 110q0 63 50.5 115.5t121.5 52.5q44 0 80 -29l-3 -64q-35 5 -70 5q-50 0 -82.5 -17
t-32.5 -47q0 -36 40.5 -58.5t105.5 -29.5q11 3 32 8t38 9t32 7v-76q-166 -34 -330 -90zM946 648l109 7q22 -176 22 -310q0 -98 -18 -191q-79 -52 -205 -81v-2q99 -44 99 -161q0 -157 -142.5 -262.5t-349.5 -105.5q-193 0 -299 100.5t-106 286.5q0 129 52 285h70
q-34 -138 -34 -238q0 -316 325 -316q162 0 280 71.5t142 179.5q-33 68 -117 95t-264 29l8 95q137 5 264 30t210 63q-2 212 -46 425z" />
    <glyph glyph-name="uni062B0626" unicode="&#xfe9b;&#xfe8a;" horiz-adv-x="1190" 
d="M963 1058q-45 41 -89 91q36 42 78 78q44 -37 90 -90q-42 -47 -79 -79zM1080 1051q47 -40 92 -93q-46 -50 -81 -80q-40 37 -91 92q43 48 80 81zM860 875q-48 44 -92 92q43 48 80 81q46 -40 94 -93q-36 -38 -82 -80zM231 469q43 17 93 33v1q-73 41 -73 110q0 63 50.5 115.5
t121.5 52.5q44 0 80 -29l-3 -64q-35 5 -70 5q-50 0 -82.5 -17t-32.5 -47q0 -36 40.5 -58.5t105.5 -29.5q11 3 32 8t38 9t32 7v-76q-166 -34 -330 -90zM946 648l109 7q22 -176 22 -310q0 -98 -18 -191q-79 -52 -205 -81v-2q99 -44 99 -161q0 -157 -142.5 -262.5
t-349.5 -105.5q-193 0 -299 100.5t-106 286.5q0 129 52 285h70q-34 -138 -34 -238q0 -316 325 -316q162 0 280 71.5t142 179.5q-33 68 -117 95t-264 29l8 95q137 5 264 30t210 63q-2 212 -46 425z" />
    <glyph glyph-name="uni06330632" unicode="&#xfeb3;&#xfeb0;" horiz-adv-x="1694" 
d="M223 663q-55 48 -95 96q33 38 84 86q45 -44 94 -96q-45 -52 -83 -86zM1559 573q22 -171 22 -327q0 -107 -18 -205q-85 -57 -209 -57q-157 0 -222 82q-63 -78 -193 -78q-61 0 -104.5 15t-71 41.5t-44 71t-23.5 95t-10 122.5q-148 -4 -260 -15q25 -87 25 -181
q0 -78 -21.5 -150t-68 -142.5t-128 -134.5t-193.5 -114l-71 93q215 90 308.5 193t93.5 223q0 104 -58 226l8 90q223 30 443 32q1 -85 5 -136.5t14.5 -97.5t31 -69t52.5 -35.5t80 -12.5q94 0 133 46q37 131 64 307l80 -13q-7 -116 -44 -286q63 -60 183 -60q62 0 134 24v44
q0 165 -45 401z" />
    <glyph glyph-name="uni06330632.fina" unicode="&#xfeb4;&#xfeb0;" horiz-adv-x="1744" 
d="M229 663q-55 48 -95 96q33 38 84 86q45 -44 94 -96q-45 -52 -83 -86zM1779 102q13 0 15.5 -8t2.5 -50q0 -41 -3.5 -48.5t-22.5 -7.5q-166 0 -238 67q-64 -71 -194 -71q-141 0 -205 84q-62 -80 -195 -80q-61 0 -104.5 15t-71 41.5t-44 71t-23.5 95t-10 122.5
q-148 -4 -260 -15q25 -87 25 -181q0 -78 -21.5 -150t-68 -142.5t-128 -134.5t-193.5 -114l-71 93q215 90 308.5 193t93.5 223q0 104 -58 226l8 90q223 30 443 32q1 -85 5 -136.5t14.5 -97.5t31 -69t52.5 -35.5t80 -12.5q94 0 133 46q37 131 64 307l80 -13q-7 -120 -46 -293
q59 -52 166 -52q101 0 146 50q2 20 2 86q0 105 -13 211l86 7q18 -126 18 -224q0 -49 -4 -84q64 -41 200 -41z" />
    <glyph glyph-name="uni06330626" unicode="&#xfeb3;&#xfe8a;" horiz-adv-x="2000" 
d="M354 495v-76q-166 -34 -330 -90l-2 70q44 17 93 33v1q-73 41 -73 110q0 63 50.5 115.5t121.5 52.5q44 0 80 -29l-3 -64q-35 5 -70 5q-50 0 -82.5 -17t-32.5 -47q0 -36 40.5 -58.5t105.5 -29.5q11 3 32 8t38 9t32 7zM1858 573q22 -171 22 -327q0 -107 -18 -205
q-86 -57 -209 -57q-161 0 -224 85q-65 -85 -172 -85q-51 0 -86 13.5t-61 47.5t-42.5 70t-39.5 103q-23 68 -38.5 102.5t-41 62t-59.5 36.5t-89 9q-124 0 -200.5 -50t-76.5 -121q0 -45 42.5 -68.5t168.5 -59.5q137 -39 189 -84t52 -130q0 -112 -69.5 -200t-186 -134.5
t-257.5 -46.5q-195 0 -300 95.5t-105 269.5q0 118 48 260h70q-29 -124 -29 -214q0 -291 319 -291q166 0 288.5 64t155.5 169q-20 53 -63.5 79t-149.5 57q-142 40 -198 81t-56 127q0 128 104.5 218.5t268.5 90.5q69 0 114.5 -14t76 -48.5t48.5 -73t40 -108.5q36 -113 70 -157
t96 -44q76 0 119 53q45 169 64 306l80 -13q-9 -117 -45 -285q65 -60 184 -60q62 0 134 24v44q0 165 -45 401z" />
    <glyph glyph-name="uni06330626.fina" unicode="&#xfeb4;&#xfe8a;" horiz-adv-x="2041" 
d="M355 495v-76q-166 -34 -330 -90l-2 70q43 17 93 33v1q-73 41 -73 110q0 63 50.5 115.5t121.5 52.5q44 0 80 -29l-3 -64q-35 5 -70 5q-50 0 -82.5 -17t-32.5 -47q0 -36 40.5 -58.5t105.5 -29.5zM2076 102q13 0 15.5 -8t2.5 -50q0 -41 -3.5 -48.5t-22.5 -7.5
q-166 0 -238 67q-63 -70 -193 -70q-141 0 -206 85q-67 -86 -174 -86q-51 0 -86 13.5t-61 47.5t-42.5 70t-39.5 103q-23 68 -38.5 102.5t-41 62t-59.5 36.5t-89 9q-124 0 -200.5 -50t-76.5 -121q0 -45 42.5 -68.5t168.5 -59.5q137 -39 189 -84t52 -130q0 -112 -69.5 -200
t-186 -134.5t-257.5 -46.5q-195 0 -300 95.5t-105 269.5q0 118 48 260h70q-29 -124 -29 -214q0 -291 319 -291q166 0 288.5 64t155.5 169q-20 53 -63.5 79t-149.5 57q-142 40 -198 81t-56 127q0 128 104.5 218.5t268.5 90.5q69 0 114.5 -14t76 -48.5t48.5 -73t40 -108.5
q36 -113 70 -157t96 -44q76 0 119 53q45 169 64 306l80 -13q-9 -113 -46 -292q60 -51 165 -51q101 0 146 50q2 20 2 86q0 105 -13 211l86 7q18 -126 18 -224q0 -50 -4 -86q65 -40 199 -40z" />
    <glyph glyph-name="uni06340632" unicode="&#xfeb7;&#xfeb0;" horiz-adv-x="1694" 
d="M1172 891q-45 41 -89 91q36 42 78 78q44 -37 90 -90q-42 -47 -79 -79zM1300 711q-40 37 -91 92q43 48 80 81q47 -40 92 -93q-46 -50 -81 -80zM1069 708q-48 44 -92 92q43 48 80 81q46 -40 94 -93q-36 -38 -82 -80zM223 663q-55 48 -95 96q33 38 84 86q45 -44 94 -96
q-45 -52 -83 -86zM1559 573q22 -171 22 -327q0 -107 -18 -205q-85 -57 -209 -57q-157 0 -222 82q-63 -78 -193 -78q-61 0 -104.5 15t-71 41.5t-44 71t-23.5 95t-10 122.5q-148 -4 -260 -15q25 -87 25 -181q0 -78 -21.5 -150t-68 -142.5t-128 -134.5t-193.5 -114l-71 93
q215 90 308.5 193t93.5 223q0 104 -58 226l8 90q223 30 443 32q1 -85 5 -136.5t14.5 -97.5t31 -69t52.5 -35.5t80 -12.5q94 0 133 46q37 131 64 307l80 -13q-7 -116 -44 -286q63 -60 183 -60q62 0 134 24v44q0 165 -45 401z" />
    <glyph glyph-name="uni06340632.fina" unicode="&#xfeb8;&#xfeb0;" horiz-adv-x="1744" 
d="M1172 891q-45 41 -89 91q36 42 78 78q44 -37 90 -90q-42 -47 -79 -79zM1300 711q-40 37 -91 92q43 48 80 81q47 -40 92 -93q-46 -50 -81 -80zM1069 708q-48 44 -92 92q43 48 80 81q46 -40 94 -93q-36 -38 -82 -80zM229 663q-55 48 -95 96q33 38 84 86q45 -44 94 -96
q-45 -52 -83 -86zM1779 102q13 0 15.5 -8t2.5 -50q0 -41 -3.5 -48.5t-22.5 -7.5q-166 0 -238 67q-64 -71 -194 -71q-141 0 -205 84q-62 -80 -195 -80q-61 0 -104.5 15t-71 41.5t-44 71t-23.5 95t-10 122.5q-148 -4 -260 -15q25 -87 25 -181q0 -78 -21.5 -150t-68 -142.5
t-128 -134.5t-193.5 -114l-71 93q215 90 308.5 193t93.5 223q0 104 -58 226l8 90q223 30 443 32q1 -85 5 -136.5t14.5 -97.5t31 -69t52.5 -35.5t80 -12.5q94 0 133 46q37 131 64 307l80 -13q-7 -120 -46 -293q59 -52 166 -52q101 0 146 50q2 20 2 86q0 105 -13 211l86 7
q18 -126 18 -224q0 -49 -4 -84q64 -41 200 -41z" />
    <glyph glyph-name="uni06340626" unicode="&#xfeb7;&#xfe8a;" horiz-adv-x="2000" 
d="M1470 891q-45 41 -89 91q36 42 78 78q44 -37 90 -90q-42 -47 -79 -79zM1598 711q-40 37 -91 92q43 48 80 81q47 -40 92 -93q-46 -50 -81 -80zM1367 708q-48 44 -92 92q43 48 80 81q46 -40 94 -93q-36 -38 -82 -80zM354 495v-76q-166 -34 -330 -90l-2 70q44 17 93 33v1
q-73 41 -73 110q0 63 50.5 115.5t121.5 52.5q44 0 80 -29l-3 -64q-35 5 -70 5q-50 0 -82.5 -17t-32.5 -47q0 -36 40.5 -58.5t105.5 -29.5q11 3 32 8t38 9t32 7zM1858 573q22 -171 22 -327q0 -107 -18 -205q-86 -57 -209 -57q-161 0 -224 85q-65 -85 -172 -85q-51 0 -86 13.5
t-61 47.5t-42.5 70t-39.5 103q-23 68 -38.5 102.5t-41 62t-59.5 36.5t-89 9q-124 0 -200.5 -50t-76.5 -121q0 -45 42.5 -68.5t168.5 -59.5q137 -39 189 -84t52 -130q0 -112 -69.5 -200t-186 -134.5t-257.5 -46.5q-195 0 -300 95.5t-105 269.5q0 118 48 260h70
q-29 -124 -29 -214q0 -291 319 -291q166 0 288.5 64t155.5 169q-20 53 -63.5 79t-149.5 57q-142 40 -198 81t-56 127q0 128 104.5 218.5t268.5 90.5q69 0 114.5 -14t76 -48.5t48.5 -73t40 -108.5q36 -113 70 -157t96 -44q76 0 119 53q45 169 64 306l80 -13q-9 -117 -45 -285
q65 -60 184 -60q62 0 134 24v44q0 165 -45 401z" />
    <glyph glyph-name="uni06340626.fina" unicode="&#xfeb8;&#xfe8a;" horiz-adv-x="2041" 
d="M1476 887q-45 41 -89 91q36 42 78 78q44 -37 90 -90q-42 -47 -79 -79zM1604 707q-40 37 -91 92q43 48 80 81q47 -40 92 -93q-46 -50 -81 -80zM1373 704q-48 44 -92 92q43 48 80 81q46 -40 94 -93q-36 -38 -82 -80zM355 495v-76q-166 -34 -330 -90l-2 70q43 17 93 33v1
q-73 41 -73 110q0 63 50.5 115.5t121.5 52.5q44 0 80 -29l-3 -64q-35 5 -70 5q-50 0 -82.5 -17t-32.5 -47q0 -36 40.5 -58.5t105.5 -29.5zM2076 102q13 0 15.5 -8t2.5 -50q0 -41 -3.5 -48.5t-22.5 -7.5q-166 0 -238 67q-63 -70 -193 -70q-141 0 -206 85q-67 -86 -174 -86
q-51 0 -86 13.5t-61 47.5t-42.5 70t-39.5 103q-23 68 -38.5 102.5t-41 62t-59.5 36.5t-89 9q-124 0 -200.5 -50t-76.5 -121q0 -45 42.5 -68.5t168.5 -59.5q137 -39 189 -84t52 -130q0 -112 -69.5 -200t-186 -134.5t-257.5 -46.5q-195 0 -300 95.5t-105 269.5q0 118 48 260
h70q-29 -124 -29 -214q0 -291 319 -291q166 0 288.5 64t155.5 169q-20 53 -63.5 79t-149.5 57q-142 40 -198 81t-56 127q0 128 104.5 218.5t268.5 90.5q69 0 114.5 -14t76 -48.5t48.5 -73t40 -108.5q36 -113 70 -157t96 -44q76 0 119 53q45 169 64 306l80 -13
q-9 -113 -46 -292q60 -51 165 -51q101 0 146 50q2 20 2 86q0 105 -13 211l86 7q18 -126 18 -224q0 -50 -4 -86q65 -40 199 -40z" />
    <glyph glyph-name="uni06350632" unicode="&#xfebb;&#xfeb0;" horiz-adv-x="1789" 
d="M229 663q-55 48 -95 96q33 38 84 86q45 -44 94 -96q-45 -52 -83 -86zM1406 588q129 0 203 -94t74 -234q0 -110 -29 -195q-80 -44 -216 -70t-297 -26q-84 0 -142.5 5.5t-109.5 21.5t-84 42t-60 69t-44.5 100.5t-31.5 139.5q-99 0 -249 -12q33 -102 33 -201
q0 -77 -22.5 -150t-69.5 -143t-128.5 -133.5t-191.5 -111.5l-72 93q403 166 403 416q0 109 -67 237l6 92q186 28 418 32q20 -132 45.5 -207t74.5 -115q128 206 271 325t286 119zM903 113q81 -31 261 -31q261 0 441 63q2 36 2 56q0 117 -60 194t-166 77q-117 0 -241 -97.5
t-237 -261.5z" />
    <glyph glyph-name="uni06350632.fina" unicode="&#xfebc;&#xfeb0;" horiz-adv-x="1858" 
d="M238 663q-55 48 -95 96q33 38 84 86q45 -44 94 -96q-45 -52 -83 -86zM1892 102q14 0 16.5 -8t2.5 -50q0 -41 -3.5 -48.5t-23.5 -7.5q-184 0 -267 77q-76 -44 -197.5 -70t-265.5 -26q-86 0 -145 5.5t-111.5 20.5t-86.5 41t-62.5 69t-46.5 101t-32 141q-98 0 -250 -12
q34 -100 34 -201q0 -77 -22.5 -150t-70 -143t-129 -133.5t-191.5 -111.5l-72 93q404 166 404 416q0 107 -68 237l6 92q186 28 419 32q19 -129 45 -205.5t75 -116.5q128 204 277 326.5t292 122.5q126 0 198.5 -89t72.5 -219q0 -62 -17 -132q79 -51 219 -51zM904 113
q81 -31 265 -31q129 0 248 23t191 64q3 30 3 60q0 104 -57.5 176.5t-158.5 72.5q-118 0 -250 -101.5t-241 -263.5z" />
    <glyph glyph-name="uni06350626" unicode="&#xfebb;&#xfe8a;" horiz-adv-x="2098" 
d="M355 495v-76q-166 -34 -330 -90l-2 70q43 17 93 33v1q-73 41 -73 110q0 63 50.5 115.5t121.5 52.5q44 0 80 -29l-3 -64q-35 5 -70 5q-50 0 -82.5 -17t-32.5 -47q0 -36 40.5 -58.5t105.5 -29.5zM1714 588q131 0 205 -94.5t74 -233.5q0 -94 -30 -195q-78 -44 -216 -70
t-289 -26q-93 0 -157.5 8.5t-107 23.5t-72.5 46t-47.5 65t-38.5 91q-22 60 -35 90.5t-32 62t-40.5 44t-53 20.5t-77.5 8q-122 0 -198 -50t-76 -121q0 -45 43 -69t168 -59q137 -39 189 -84t52 -130q0 -112 -69.5 -200t-186 -134.5t-257.5 -46.5q-196 0 -301 95.5t-105 269.5
q0 112 48 260h71q-30 -128 -30 -214q0 -291 320 -291q166 0 288.5 64t155.5 169q-20 53 -64 79t-150 57q-142 40 -198 81.5t-56 126.5q0 128 105 218.5t269 90.5q67 0 112.5 -14t76 -48.5t47.5 -70.5t40 -103q42 -126 71 -158q125 205 266.5 323.5t285.5 118.5zM1215 111
q70 -29 266 -29q119 0 237.5 17.5t195.5 46.5q2 32 2 50q0 122 -58.5 199t-163.5 77q-118 0 -242.5 -98t-236.5 -263z" />
    <glyph glyph-name="uni06350626.fina" unicode="&#xfebc;&#xfe8a;" horiz-adv-x="2164" 
d="M354 495v-76q-166 -34 -330 -90l-2 70q44 17 93 33v1q-73 41 -73 110q0 63 50.5 115.5t121.5 52.5q44 0 80 -29l-3 -64q-35 5 -70 5q-50 0 -82.5 -17t-32.5 -47q0 -36 40.5 -58.5t105.5 -29.5q11 3 32 8t38 9t32 7zM2199 102q13 0 15.5 -8t2.5 -50q0 -41 -3.5 -48.5
t-23.5 -7.5q-179 0 -264 78q-76 -46 -198 -71.5t-259 -25.5q-91 0 -149 5.5t-106 19t-79 41.5t-54.5 67t-45.5 101q-18 50 -28.5 77.5t-26.5 57t-30.5 43.5t-37 26.5t-50 16.5t-65.5 4q-122 0 -198 -50t-76 -121q0 -45 43 -69t168 -59q137 -39 189 -84t52 -130
q0 -112 -69.5 -200t-186 -134.5t-257.5 -46.5q-196 0 -301 95.5t-105 269.5q0 112 48 260h71q-30 -128 -30 -214q0 -291 320 -291q166 0 288.5 64t155.5 169q-20 53 -64 79t-150 57q-142 40 -198 81.5t-56 126.5q0 128 105 218.5t269 90.5q67 0 112.5 -14t76 -48.5
t47.5 -70.5t40 -103q40 -118 71 -154q124 201 271.5 322t290.5 121q127 0 200.5 -89t73.5 -220q0 -64 -18 -129q81 -53 219 -53zM1213 112q69 -30 274 -30q126 0 242 23t185 64q4 34 4 57q0 108 -57 180t-159 72q-119 0 -250 -101.5t-239 -264.5z" />
    <glyph glyph-name="uni06360632" unicode="&#xfebf;&#xfeb0;" horiz-adv-x="1789" 
d="M1275 799q-55 48 -95 96q33 38 84 86q45 -44 94 -96q-45 -52 -83 -86zM229 663q-55 48 -95 96q33 38 84 86q45 -44 94 -96q-45 -52 -83 -86zM1406 588q129 0 203 -94t74 -234q0 -110 -29 -195q-80 -44 -216 -70t-297 -26q-84 0 -142.5 5.5t-109.5 21.5t-84 42t-60 69
t-44.5 100.5t-31.5 139.5q-99 0 -249 -12q33 -102 33 -201q0 -77 -22.5 -150t-69.5 -143t-128.5 -133.5t-191.5 -111.5l-72 93q403 166 403 416q0 109 -67 237l6 92q186 28 418 32q20 -132 45.5 -207t74.5 -115q128 206 271 325t286 119zM903 113q81 -31 261 -31
q261 0 441 63q2 36 2 56q0 117 -60 194t-166 77q-117 0 -241 -97.5t-237 -261.5z" />
    <glyph glyph-name="uni06360632.fina" unicode="&#xfec0;&#xfeb0;" horiz-adv-x="1858" 
d="M1278 799q-55 48 -95 96q33 38 84 86q45 -44 94 -96q-45 -52 -83 -86zM238 663q-55 48 -95 96q33 38 84 86q45 -44 94 -96q-45 -52 -83 -86zM1892 102q14 0 16.5 -8t2.5 -50q0 -41 -3.5 -48.5t-23.5 -7.5q-184 0 -267 77q-76 -44 -197.5 -70t-265.5 -26q-86 0 -145 5.5
t-111.5 20.5t-86.5 41t-62.5 69t-46.5 101t-32 141q-98 0 -250 -12q34 -100 34 -201q0 -77 -22.5 -150t-70 -143t-129 -133.5t-191.5 -111.5l-72 93q404 166 404 416q0 107 -68 237l6 92q186 28 419 32q19 -129 45 -205.5t75 -116.5q128 204 277 326.5t292 122.5
q126 0 198.5 -89t72.5 -219q0 -62 -17 -132q79 -51 219 -51zM904 113q81 -31 265 -31q129 0 248 23t191 64q3 30 3 60q0 104 -57.5 176.5t-158.5 72.5q-118 0 -250 -101.5t-241 -263.5z" />
    <glyph glyph-name="uni06360626" unicode="&#xfebf;&#xfe8a;" horiz-adv-x="2098" 
d="M1590 801q-55 48 -95 96q33 38 84 86q45 -44 94 -96q-45 -52 -83 -86zM355 495v-76q-166 -34 -330 -90l-2 70q43 17 93 33v1q-73 41 -73 110q0 63 50.5 115.5t121.5 52.5q44 0 80 -29l-3 -64q-35 5 -70 5q-50 0 -82.5 -17t-32.5 -47q0 -36 40.5 -58.5t105.5 -29.5z
M1714 588q131 0 205 -94.5t74 -233.5q0 -94 -30 -195q-78 -44 -216 -70t-289 -26q-93 0 -157.5 8.5t-107 23.5t-72.5 46t-47.5 65t-38.5 91q-22 60 -35 90.5t-32 62t-40.5 44t-53 20.5t-77.5 8q-122 0 -198 -50t-76 -121q0 -45 43 -69t168 -59q137 -39 189 -84t52 -130
q0 -112 -69.5 -200t-186 -134.5t-257.5 -46.5q-196 0 -301 95.5t-105 269.5q0 112 48 260h71q-30 -128 -30 -214q0 -291 320 -291q166 0 288.5 64t155.5 169q-20 53 -64 79t-150 57q-142 40 -198 81.5t-56 126.5q0 128 105 218.5t269 90.5q67 0 112.5 -14t76 -48.5
t47.5 -70.5t40 -103q42 -126 71 -158q125 205 266.5 323.5t285.5 118.5zM1215 111q70 -29 266 -29q119 0 237.5 17.5t195.5 46.5q2 32 2 50q0 122 -58.5 199t-163.5 77q-118 0 -242.5 -98t-236.5 -263z" />
    <glyph glyph-name="uni06360626.fina" unicode="&#xfec0;&#xfe8a;" horiz-adv-x="2164" 
d="M1589 801q-55 48 -95 96q33 38 84 86q45 -44 94 -96q-45 -52 -83 -86zM354 495v-76q-166 -34 -330 -90l-2 70q44 17 93 33v1q-73 41 -73 110q0 63 50.5 115.5t121.5 52.5q44 0 80 -29l-3 -64q-35 5 -70 5q-50 0 -82.5 -17t-32.5 -47q0 -36 40.5 -58.5t105.5 -29.5
q11 3 32 8t38 9t32 7zM2199 102q13 0 15.5 -8t2.5 -50q0 -41 -3.5 -48.5t-23.5 -7.5q-179 0 -264 78q-76 -46 -198 -71.5t-259 -25.5q-91 0 -149 5.5t-106 19t-79 41.5t-54.5 67t-45.5 101q-18 50 -28.5 77.5t-26.5 57t-30.5 43.5t-37 26.5t-50 16.5t-65.5 4
q-122 0 -198 -50t-76 -121q0 -45 43 -69t168 -59q137 -39 189 -84t52 -130q0 -112 -69.5 -200t-186 -134.5t-257.5 -46.5q-196 0 -301 95.5t-105 269.5q0 112 48 260h71q-30 -128 -30 -214q0 -291 320 -291q166 0 288.5 64t155.5 169q-20 53 -64 79t-150 57
q-142 40 -198 81.5t-56 126.5q0 128 105 218.5t269 90.5q67 0 112.5 -14t76 -48.5t47.5 -70.5t40 -103q40 -118 71 -154q124 201 271.5 322t290.5 121q127 0 200.5 -89t73.5 -220q0 -64 -18 -129q81 -53 219 -53zM1213 112q69 -30 274 -30q126 0 242 23t185 64q4 34 4 57
q0 108 -57 180t-159 72q-119 0 -250 -101.5t-239 -264.5z" />
    <glyph glyph-name="uni06410626" unicode="&#xfed3;&#xfe8a;" horiz-adv-x="1202" 
d="M799 1106q-55 48 -95 96q33 38 84 86q45 -44 94 -96q-45 -52 -83 -86zM1052 147q-65 -39 -194 -73v-2q95 -44 95 -160q0 -159 -142 -264.5t-351 -105.5q-193 0 -298.5 101t-105.5 286q0 129 52 285h70q-34 -138 -34 -238q0 -316 325 -316q162 0 280.5 72t142.5 180
q-27 69 -108.5 95t-273.5 28l8 95q306 15 481 95q10 68 13 134q-74 -26 -167 -26q-128 0 -202.5 53t-74.5 169q0 56 16.5 112t47 103.5t80.5 77t111 29.5q129 0 198.5 -117.5t69.5 -303.5q0 -161 -39 -309zM643 586q0 -84 59 -116.5t167 -32.5q75 0 144 13q-5 138 -58.5 229
t-149.5 91q-54 0 -92 -30t-54 -70.5t-16 -83.5zM64 455q44 17 93 33v1q-73 41 -73 110q0 63 50.5 115.5t121.5 52.5q44 0 80 -29l-3 -64q-35 5 -70 5q-50 0 -82.5 -17t-32.5 -47q0 -36 40.5 -58.5t105.5 -29.5q11 3 32 8t38 9t32 7v-76q-166 -34 -330 -90z" />
    <glyph glyph-name="uni06420626" unicode="&#xfed7;&#xfe8a;" horiz-adv-x="1202" 
d="M770 1181q-35 -38 -84 -80q-55 55 -91 95q47 47 86 82q58 -60 89 -97zM911 1101q-44 40 -92 95q41 42 85 82q47 -47 89 -97q-26 -29 -82 -80zM1052 147q-65 -39 -194 -73v-2q95 -44 95 -160q0 -159 -142 -264.5t-351 -105.5q-193 0 -298.5 101t-105.5 286q0 129 52 285
h70q-34 -138 -34 -238q0 -316 325 -316q162 0 280.5 72t142.5 180q-27 69 -108.5 95t-273.5 28l8 95q306 15 481 95q10 68 13 134q-74 -26 -167 -26q-128 0 -202.5 53t-74.5 169q0 56 16.5 112t47 103.5t80.5 77t111 29.5q129 0 198.5 -117.5t69.5 -303.5q0 -161 -39 -309z
M643 586q0 -84 59 -116.5t167 -32.5q75 0 144 13q-5 138 -58.5 229t-149.5 91q-54 0 -92 -30t-54 -70.5t-16 -83.5zM64 455q44 17 93 33v1q-73 41 -73 110q0 63 50.5 115.5t121.5 52.5q44 0 80 -29l-3 -64q-35 5 -70 5q-50 0 -82.5 -17t-32.5 -47q0 -36 40.5 -58.5
t105.5 -29.5q11 3 32 8t38 9t32 7v-76q-166 -34 -330 -90z" />
    <glyph glyph-name="uni06430626" unicode="&#xfedb;&#xfe8a;" horiz-adv-x="1250" 
d="M1194 1051l-585 -256v-3q189 -106 295.5 -240.5t106.5 -265.5q0 -62 -21 -113q-49 -51 -162 -81v-3q65 -28 95 -70t30 -107q0 -159 -142 -264.5t-351 -105.5q-193 0 -298.5 101t-105.5 286q0 129 52 285h70q-34 -138 -34 -238q0 -316 325 -316q162 0 280.5 72t142.5 180
q-27 69 -108.5 95t-273.5 28l6 93q133 10 247 42.5t181 77.5q-13 135 -128.5 264t-307.5 228v93l687 325zM58 455q44 17 93 33v1q-73 41 -73 110q0 63 50.5 115.5t121.5 52.5q44 0 80 -29l-3 -64q-35 5 -70 5q-50 0 -82.5 -17t-32.5 -47q0 -36 40.5 -58.5t105.5 -29.5
l102 24v-76q-166 -34 -330 -90z" />
    <glyph glyph-name="uni06430626.fina" unicode="&#xfedc;&#xfe8a;" horiz-adv-x="1276" 
d="M1311 102q13 0 15.5 -8t2.5 -50q0 -41 -3.5 -48.5t-22.5 -7.5q-110 0 -185.5 49.5t-160.5 168.5h-2q-13 -35 -52 -64.5t-85 -39.5v-2q135 -50 135 -186q0 -108 -66.5 -194.5t-178.5 -133.5t-247 -47q-194 0 -299.5 100.5t-105.5 286.5q0 130 52 286h70q-34 -138 -34 -239
q0 -316 325 -316q162 0 280.5 72t142.5 180q-25 75 -104 107t-256 40l14 96q296 6 363 123q-192 281 -392 467v91l685 325l-1 -107l-596 -264v-2q193 -184 384 -466q90 -132 153.5 -174.5t168.5 -42.5zM63 455q43 17 93 33v1q-73 41 -73 110q0 63 50.5 115.5t121.5 52.5
q44 0 80 -29l-3 -64q-35 5 -70 5q-50 0 -82.5 -17t-32.5 -47q0 -36 40.5 -58.5t105.5 -29.5l102 24v-76q-166 -34 -330 -90z" />
    <glyph glyph-name="uni06A9064A" unicode="&#xfb90;&#xfef2;" horiz-adv-x="1276" 
d="M1311 102q13 0 15.5 -8t2.5 -50q0 -41 -3.5 -48.5t-22.5 -7.5q-110 0 -185.5 49.5t-160.5 168.5h-2q-13 -35 -52 -64.5t-85 -39.5v-2q135 -50 135 -186q0 -108 -66.5 -194.5t-178.5 -133.5t-247 -47q-194 0 -299.5 100.5t-105.5 286.5q0 130 52 286h70q-34 -138 -34 -239
q0 -316 325 -316q162 0 280.5 72t142.5 180q-25 75 -104 107t-256 40l14 96q296 6 363 123q-192 281 -392 467v91l685 325l-1 -107l-596 -264v-2q193 -184 384 -466q90 -132 153.5 -174.5t168.5 -42.5zM215 -703q47 47 86 82q58 -60 89 -97q-35 -38 -84 -80q-55 55 -91 95z
M439 -703q41 42 85 82q47 -47 89 -97q-26 -29 -82 -80q-44 40 -92 95z" />
    <glyph glyph-name="uni06AF0649" unicode="&#xfb94;&#xfef0;" horiz-adv-x="1256" 
d="M1121 1246v-88l-589 -278v77zM1193 963l-584 -256v-4q189 -90 295.5 -200.5t106.5 -223.5q0 -52 -21 -106q-49 -51 -162 -81v-3q65 -28 95 -70t30 -107q0 -159 -142 -264.5t-351 -105.5q-193 0 -298.5 101t-105.5 286q0 129 52 285h70q-34 -138 -34 -238q0 -316 325 -316
q162 0 280.5 72t142.5 180q-27 69 -108.5 95t-273.5 28l6 93q133 10 247 42.5t181 77.5q-13 110 -129 214.5t-308 190.5v92l687 323z" />
    <glyph glyph-name="uni06AF0649.fina" unicode="&#xfb95;&#xfef0;" horiz-adv-x="1281" 
d="M1141 1246v-88l-588 -278v77zM1316 102q13 0 15.5 -8t2.5 -50q0 -41 -3.5 -48.5t-22.5 -7.5q-110 0 -185 49.5t-160 169.5h-2q-16 -35 -55.5 -64t-87.5 -42v-2q135 -49 135 -185q0 -108 -66.5 -194.5t-179 -133.5t-247.5 -47q-193 0 -298.5 101t-105.5 289q0 126 52 282
h70q-34 -138 -34 -235q0 -319 325 -319q161 0 279.5 71.5t143.5 178.5q-27 72 -106 100t-254 37l12 97q146 6 243 43.5t127 92.5q-147 203 -392 379v89l685 323l-1 -105l-594 -264v-2q234 -171 382 -379q93 -131 155.5 -173.5t166.5 -42.5z" />
    <glyph glyph-name="uni06AF064A" unicode="&#xfb94;&#xfef2;" horiz-adv-x="1256" 
d="M1121 1246v-88l-589 -278v77zM1193 963l-584 -256v-4q189 -90 295.5 -200.5t106.5 -223.5q0 -52 -21 -106q-49 -51 -162 -81v-3q65 -28 95 -70t30 -107q0 -159 -142 -264.5t-351 -105.5q-193 0 -298.5 101t-105.5 286q0 129 52 285h70q-34 -138 -34 -238q0 -316 325 -316
q162 0 280.5 72t142.5 180q-27 69 -108.5 95t-273.5 28l6 93q133 10 247 42.5t181 77.5q-13 110 -129 214.5t-308 190.5v92l687 323zM210 -703q47 47 86 82q58 -60 89 -97q-35 -38 -84 -80q-55 55 -91 95zM434 -703q41 42 85 82q47 -47 89 -97q-26 -29 -82 -80
q-44 40 -92 95z" />
    <glyph glyph-name="uni06AF064A.fina" unicode="&#xfb95;&#xfef2;" horiz-adv-x="1281" 
d="M1141 1246v-88l-588 -278v77zM1316 102q13 0 15.5 -8t2.5 -50q0 -41 -3.5 -48.5t-22.5 -7.5q-110 0 -185 49.5t-160 169.5h-2q-16 -35 -55.5 -64t-87.5 -42v-2q135 -49 135 -185q0 -108 -66.5 -194.5t-179 -133.5t-247.5 -47q-193 0 -298.5 101t-105.5 289q0 126 52 282
h70q-34 -138 -34 -235q0 -319 325 -319q161 0 279.5 71.5t143.5 178.5q-27 72 -106 100t-254 37l12 97q146 6 243 43.5t127 92.5q-147 203 -392 379v89l685 323l-1 -105l-594 -264v-2q234 -171 382 -379q93 -131 155.5 -173.5t166.5 -42.5zM225 -704q27 28 84 81
q57 -58 88 -96q-44 -46 -83 -78q-54 54 -89 93zM445 -704q40 42 84 81q58 -60 87 -96q-26 -28 -80 -78q-34 30 -91 93z" />
    <glyph glyph-name="uni06AF0626" unicode="&#xfb94;&#xfe8a;" horiz-adv-x="1256" 
d="M1121 1246v-88l-589 -278v77zM1193 963l-584 -256v-4q189 -90 295.5 -200.5t106.5 -223.5q0 -52 -21 -106q-49 -51 -162 -81v-3q65 -28 95 -70t30 -107q0 -159 -142 -264.5t-351 -105.5q-193 0 -298.5 101t-105.5 286q0 129 52 285h70q-34 -138 -34 -238q0 -316 325 -316
q162 0 280.5 72t142.5 180q-27 69 -108.5 95t-273.5 28l6 93q133 10 247 42.5t181 77.5q-13 110 -129 214.5t-308 190.5v92l687 323zM58 455q44 17 93 33v1q-73 41 -73 110q0 63 50.5 115.5t121.5 52.5q44 0 80 -29l-3 -64q-35 5 -70 5q-50 0 -82.5 -17t-32.5 -47
q0 -36 40.5 -58.5t105.5 -29.5l102 24v-76q-166 -34 -330 -90z" />
    <glyph glyph-name="uni06AF0626.fina" unicode="&#xfb95;&#xfe8a;" horiz-adv-x="1281" 
d="M1141 1246v-88l-588 -278v77zM1316 102q13 0 15.5 -8t2.5 -50q0 -41 -3.5 -48.5t-22.5 -7.5q-110 0 -185 49.5t-160 169.5h-2q-16 -35 -55.5 -64t-87.5 -42v-2q135 -49 135 -185q0 -108 -66.5 -194.5t-179 -133.5t-247.5 -47q-193 0 -298.5 101t-105.5 289q0 126 52 282
h70q-34 -138 -34 -235q0 -319 325 -319q161 0 279.5 71.5t143.5 178.5q-27 72 -106 100t-254 37l12 97q146 6 243 43.5t127 92.5q-147 203 -392 379v89l685 323l-1 -105l-594 -264v-2q234 -171 382 -379q93 -131 155.5 -173.5t166.5 -42.5zM70 455q44 17 93 33v1
q-73 41 -73 110q0 63 50.5 115.5t121.5 52.5q44 0 80 -29l-3 -64q-35 5 -70 5q-50 0 -82.5 -17t-32.5 -47q0 -36 40.5 -58.5t105.5 -29.5q11 3 32 8t38 9t32 7v-76q-166 -34 -330 -90z" />
    <glyph glyph-name="uni06440626" unicode="&#xfedf;&#xfe8a;" horiz-adv-x="1196" 
d="M972 1140l99 4l-3 -725q0 -137 -7 -265q-79 -51 -203 -80v-2q95 -44 95 -160q0 -159 -142 -264.5t-351 -105.5q-193 0 -298.5 101t-105.5 286q0 129 52 285h70q-34 -138 -34 -238q0 -316 325 -316q162 0 280.5 71.5t142.5 178.5q-29 70 -112 96.5t-270 28.5l8 95
q280 11 459 87q0 112 -1 190zM233 469q43 17 93 33v1q-73 41 -73 110q0 63 50.5 115.5t121.5 52.5q44 0 80 -29l-3 -64q-35 5 -70 5q-50 0 -82.5 -17t-32.5 -47q0 -36 40.5 -58.5t105.5 -29.5l102 24v-76q-166 -34 -330 -90z" />
    <glyph glyph-name="uni06440626.fina" unicode="&#xfee0;&#xfe8a;" horiz-adv-x="1238" 
d="M1273 102q13 0 15.5 -8t2.5 -50q0 -41 -3.5 -48.5t-22.5 -7.5q-64 0 -110 10.5t-85 38t-61 80t-27 131.5h-2q-81 -67 -223 -111v-2q98 -31 142.5 -85t44.5 -139q0 -161 -142.5 -266.5t-349.5 -105.5q-193 0 -299 100.5t-106 286.5q0 127 51 286h71q-34 -138 -34 -239
q0 -316 325 -316q162 0 281 72.5t142 181.5q-28 80 -114.5 115.5t-265.5 46.5l3 98q148 27 274 78.5t200 120.5l-5 770l99 4l-5 -810q-1 -135 44 -183.5t160 -48.5zM117 528q43 16 93 33v1q-73 41 -73 110q0 63 50.5 115.5t121.5 52.5q44 0 80 -29l-3 -64q-35 5 -70 5
q-50 0 -82.5 -17t-32.5 -47q0 -36 40.5 -58.5t105.5 -29.5l102 24v-76q-166 -34 -330 -90z" />
    <glyph glyph-name="uni06460626" unicode="&#xfee7;&#xfe8a;" horiz-adv-x="1190" 
d="M973 882q-55 48 -95 96q33 38 84 86q45 -44 94 -96q-45 -52 -83 -86zM231 469q43 17 93 33v1q-73 41 -73 110q0 63 50.5 115.5t121.5 52.5q44 0 80 -29l-3 -64q-35 5 -70 5q-50 0 -82.5 -17t-32.5 -47q0 -36 40.5 -58.5t105.5 -29.5q11 3 32 8t38 9t32 7v-76
q-166 -34 -330 -90zM1059 154q-79 -52 -205 -81v-2q99 -44 99 -161q0 -157 -142.5 -262.5t-349.5 -105.5q-193 0 -299 100.5t-106 286.5q0 129 52 285h70q-34 -138 -34 -238q0 -316 325 -316q162 0 280 71.5t142 179.5q-33 68 -117 95t-264 29l8 95q137 5 264 30t210 63
q-2 212 -46 425l109 7q22 -176 22 -310q0 -98 -18 -191z" />
    <glyph glyph-name="uni06260626" unicode="&#xfe8b;&#xfe8a;" horiz-adv-x="1190" 
d="M1018 1104l102 24v-76q-166 -34 -330 -90l-2 70q44 16 93 33v1q-73 41 -73 110q0 63 50.5 115.5t121.5 52.5q44 0 80 -29l-3 -64q-35 5 -70 5q-50 0 -82.5 -17t-32.5 -47q0 -36 40.5 -58.5t105.5 -29.5zM231 469q43 17 93 33v1q-73 41 -73 110q0 63 50.5 115.5
t121.5 52.5q44 0 80 -29l-3 -64q-35 5 -70 5q-50 0 -82.5 -17t-32.5 -47q0 -36 40.5 -58.5t105.5 -29.5q11 3 32 8t38 9t32 7v-76q-166 -34 -330 -90zM946 648l109 7q22 -176 22 -310q0 -98 -18 -191q-79 -52 -205 -81v-2q99 -44 99 -161q0 -157 -142.5 -262.5
t-349.5 -105.5q-193 0 -299 100.5t-106 286.5q0 129 52 285h70q-34 -138 -34 -238q0 -316 325 -316q162 0 280 71.5t142 179.5q-33 68 -117 95t-264 29l8 95q137 5 264 30t210 63q-2 212 -46 425z" />
    <glyph glyph-name="uni064406440647" unicode="&#x644;&#x644;&#x647;" horiz-adv-x="1495" 
d="M940 1314l-67 -15q-5 79 -24 298l90 10q6 -83 6 -192q0 -77 -5 -101zM816 946q-44 0 -70 37.5t-26 98.5q0 47 13 99l49 17q0 -80 10.5 -118.5t44.5 -38.5q30 0 41.5 29.5t11.5 65.5q0 40 -7 87l58 18q4 -85 17.5 -124.5t43.5 -39.5q22 0 36 21.5t14 60.5q0 49 -19 115
l59 16q16 -46 16 -114q0 -80 -28.5 -134.5t-81.5 -54.5q-27 0 -48.5 14t-31.5 37h-3q-10 -43 -37 -67.5t-62 -24.5zM1279 867l99 4l-3 -536q-1 -203 -13 -297q-87 -50 -226 -50q-149 0 -212 75q-75 -75 -214 -75q-97 0 -151 45t-74 137q-83 -71 -187 -71q-96 0 -158 58
t-62 155q0 75 39 141.5t115 111.5q84 50 218 68l-4 132l100 6q0 -392 11 -509q9 -90 44.5 -125t115.5 -35q98 0 152 40q1 33 1 130l-3 595l100 4l-4 -567q0 -96 -3 -153q59 -49 182 -49q75 0 139 15q0 18 0.5 69t0.5 83zM330 200q82 0 144 42q-14 100 -20 292
q-68 -8 -118 -20.5t-92.5 -33t-64.5 -53.5t-22 -78q0 -67 46.5 -108t126.5 -41z" />
    <glyph glyph-name="uni066E.init" unicode="&#x66e;" horiz-adv-x="440" 
d="M301 571q22 -171 22 -324q0 -118 -17 -209q-92 -50 -279 -50q-14 0 -16.5 8t-2.5 50q0 41 3.5 48.5t23.5 7.5q126 0 203 20v38q0 162 -44 403z" />
    <glyph glyph-name="uni066E.medi" unicode="&#x66e;" horiz-adv-x="496" 
d="M531 102q13 0 15.5 -8t2.5 -50q0 -41 -3.5 -48.5t-22.5 -7.5q-196 0 -258 91q-71 -91 -238 -91q-14 0 -16.5 8t-2.5 50q0 41 3.5 48.5t23.5 7.5q114 0 170 54q19 115 27 299l86 -3q0 -179 -17 -286q63 -64 230 -64z" />
    <glyph glyph-name="uni066E.fina" unicode="&#x66e;" horiz-adv-x="1448" 
d="M1483 102q13 0 15.5 -8t2.5 -50q0 -41 -3.5 -48.5t-22.5 -7.5q-182 0 -250 84q-97 -70 -264.5 -107t-338.5 -37q-273 0 -409 79.5t-136 251.5q0 83 36 200h69q-18 -86 -18 -153q0 -148 113 -204t361 -56q155 0 301.5 29.5t232.5 77.5q22 130 27 304l84 -2
q-2 -175 -19 -296q65 -57 219 -57z" />
    <glyph glyph-name="uni066F.fina" unicode="&#x66f;" horiz-adv-x="1064" 
d="M1099 102q13 0 15.5 -8t2.5 -50q0 -41 -3.5 -48.5t-22.5 -7.5q-102 0 -155 1q-6 -161 -36 -225q-44 -95 -171 -151t-277 -56q-184 0 -288.5 92.5t-104.5 260.5q0 109 47 252h74q-29 -123 -29 -203q0 -288 316 -288q128 0 227.5 42.5t152.5 104.5q9 70 13 171h-101
q-67 0 -118 5.5t-98 20.5t-76.5 40.5t-47 67t-17.5 97.5q0 59 16 116t46.5 105.5t81.5 78.5t114 30q132 0 205 -120.5t73 -323.5v-4h161zM477 249q0 -33 9 -57.5t29.5 -40.5t44.5 -26t63.5 -15t77 -6.5t93.5 -1.5h67q-6 148 -60.5 244t-154.5 96q-83 0 -126 -59t-43 -134z
" />
    <glyph glyph-name="uni06A1.init" unicode="&#x6a1;" horiz-adv-x="786" 
d="M408 810q129 0 198 -117t69 -304q0 -186 -46 -332q-228 -69 -602 -69q-14 0 -16.5 8t-2.5 50q0 41 3.5 48.5t23.5 7.5q334 0 545 43q13 68 16 147q-74 -26 -167 -26q-127 0 -201.5 53t-74.5 169q0 77 27 148.5t87.5 122.5t140.5 51zM227 519q0 -84 59.5 -116t167.5 -32
q75 0 144 13q-5 138 -59 228.5t-150 90.5q-54 0 -92 -30t-54 -70.5t-16 -83.5z" />
    <glyph glyph-name="uni06A1.medi" unicode="&#x6a1;" horiz-adv-x="866" 
d="M901 102q14 0 16.5 -8t2.5 -50q0 -41 -3.5 -48.5t-23.5 -7.5q-259 0 -435 103q-89 -46 -208.5 -74.5t-222.5 -28.5q-14 0 -16.5 8t-2.5 50q0 41 3.5 48.5t23.5 7.5q162 0 308 43v2q-160 96 -160 249q0 79 39.5 154t108 123t146.5 48q102 0 176 -81.5t74 -200.5
q0 -80 -38 -154.5t-116 -128.5v-3q166 -51 328 -51zM266 423q0 -134 204 -231q171 78 171 209q0 89 -59.5 152.5t-136.5 63.5q-73 0 -126 -59.5t-53 -134.5z" />
    <glyph glyph-name="uni06A1.fina" unicode="&#x6a1;" horiz-adv-x="1657" 
d="M1692 102q13 0 15.5 -8t2.5 -50q0 -41 -3.5 -48.5t-23.5 -7.5q-252 0 -426 98q-263 -158 -645 -158q-266 0 -400.5 80t-134.5 250q0 84 36 201h69q-18 -86 -18 -151q0 -147 111.5 -204.5t349.5 -57.5q286 0 516 95v2q-168 97 -168 253q0 78 39.5 153.5t108 123.5
t145.5 48q102 0 177 -81.5t75 -200.5q0 -78 -37 -154t-113 -131v-2q158 -50 324 -50zM1056 423q0 -135 209 -233q168 86 168 210q0 89 -60.5 153t-137.5 64q-72 0 -125.5 -59.5t-53.5 -134.5z" />
    <glyph glyph-name="uni06C2.fina" unicode="&#x6c2;" horiz-adv-x="800" 
d="M329 1088q43 16 93 33v1q-73 41 -73 110q0 63 50.5 115.5t121.5 52.5q44 0 80 -29l-3 -64q-35 5 -70 5q-50 0 -82.5 -17t-32.5 -47q0 -36 40.5 -58.5t105.5 -29.5l102 24v-76q-166 -34 -330 -90zM835 102q13 0 15.5 -8t2.5 -50q0 -41 -3.5 -48.5t-23.5 -7.5
q-133 0 -196 49t-86 153q-94 -77 -217 -77q-108 0 -178.5 64t-70.5 171q0 83 46 160t139 126q89 46 243 71l-3 148l100 8q0 -460 11 -568t58.5 -149.5t162.5 -41.5zM361 215q92 0 171 47q-13 109 -22 340q-78 -8 -137 -22.5t-109.5 -39t-77.5 -64t-27 -92.5
q0 -78 55.5 -123.5t146.5 -45.5z" />
    <glyph glyph-name="uni06C3.fina" unicode="&#x6c3;" horiz-adv-x="844" 
d="M415 712q-35 -38 -84 -80q-55 55 -91 95q47 47 86 82q58 -60 89 -97zM638 712q-26 -29 -82 -80q-44 40 -92 95q41 42 85 82q47 -47 89 -97zM870 -12q-48 0 -84 4.5t-66 19t-50 28.5t-43 45t-38 56t-42 74q-16 31 -24.5 44.5t-21.5 29t-27 21t-33 5.5q-53 0 -145 -44.5
t-253 -146.5l6 92q150 108 249 161.5t163 53.5q44 0 71 -28t68 -102q29 -53 46.5 -81t41 -55t48.5 -38t59 -18t84 -7q13 0 15.5 -8t2.5 -50q0 -41 -3.5 -48.5t-23.5 -7.5z" />
    <glyph glyph-name="uniFB51" unicode="&#x671;" horiz-adv-x="386" arabic-form="final" 
d="M364 1395q0 -66 -37.5 -103t-99.5 -37q-43 0 -103.5 24t-84.5 24q-45 0 -71 -41l-24 42q31 76 104 76q18 0 31 -4q37 70 77 110t95 40q50 0 81.5 -36t31.5 -95zM232 1449q-64 0 -114 -85q2 -1 26 -10.5t32.5 -12t28 -6.5t36.5 -4q52 0 75 34q-1 37 -23 60.5t-61 23.5z
M421 102q13 0 15.5 -8t2.5 -50q0 -41 -3.5 -48.5t-22.5 -7.5q-72 0 -121 10.5t-87.5 37t-56.5 75t-19 122.5l-8 907l99 4l-5 -872q0 -100 44.5 -135t161.5 -35z" />
    <glyph glyph-name="uniFB57" unicode="&#x67e;" horiz-adv-x="1448" arabic-form="final" 
d="M1483 102q13 0 15.5 -8t2.5 -50q0 -41 -3.5 -48.5t-22.5 -7.5q-182 0 -250 84q-97 -70 -264.5 -107t-338.5 -37q-273 0 -409 79.5t-136 251.5q0 83 36 200h69q-18 -86 -18 -153q0 -148 113 -204t361 -56q155 0 301.5 29.5t232.5 77.5q22 130 27 304l84 -2
q-2 -175 -19 -296q65 -57 219 -57zM808 -265q48 -44 92 -92q-43 -48 -80 -81q-46 40 -94 93q36 38 82 80zM577 -268q40 -37 91 -92q-43 -48 -80 -81q-47 40 -92 93q46 50 81 80zM705 -448q45 -41 89 -91q-36 -42 -78 -78q-44 37 -90 90q42 47 79 79z" />
    <glyph glyph-name="uniFB58" unicode="&#x67e;" horiz-adv-x="440" arabic-form="initial" 
d="M27 -12q-14 0 -16.5 8t-2.5 50q0 41 3.5 48.5t23.5 7.5q126 0 203 20v38q0 162 -44 403l107 8q22 -171 22 -324q0 -118 -17 -209q-92 -50 -279 -50zM279 -193q48 -44 92 -92q-43 -48 -80 -81q-46 40 -94 93q36 38 82 80zM48 -196q40 -37 91 -92q-43 -48 -80 -81
q-47 40 -92 93q46 50 81 80zM176 -376q45 -41 89 -91q-36 -42 -78 -78q-44 37 -90 90q42 47 79 79z" />
    <glyph glyph-name="uniFB59" unicode="&#x67e;" horiz-adv-x="496" arabic-form="medial" 
d="M531 102q13 0 15.5 -8t2.5 -50q0 -41 -3.5 -48.5t-22.5 -7.5q-196 0 -258 91q-71 -91 -238 -91q-14 0 -16.5 8t-2.5 50q0 41 3.5 48.5t23.5 7.5q114 0 170 54q19 115 27 299l86 -3q0 -179 -17 -286q63 -64 230 -64zM363 -195q48 -44 92 -92q-43 -48 -80 -81
q-46 40 -94 93q36 38 82 80zM132 -198q40 -37 91 -92q-43 -48 -80 -81q-47 40 -92 93q46 50 81 80zM260 -378q45 -41 89 -91q-36 -42 -78 -78q-44 37 -90 90q42 47 79 79z" />
    <glyph glyph-name="uniFB67" unicode="&#x679;" horiz-adv-x="1448" arabic-form="final" 
d="M425 889q56 -9 115 -14q11 22 29 49l-18 280l75 4l1 -139q0 -44 -5 -81h2q58 61 128 61q60 0 95 -38.5t35 -96.5q0 -41 -18 -86q-71 -37 -218 -37q-129 0 -207 29zM738 978q-83 0 -151 -105q44 -2 68 -2q116 0 184 16q-3 41 -30 66t-71 25zM1483 102q13 0 15.5 -8
t2.5 -50q0 -41 -3.5 -48.5t-22.5 -7.5q-182 0 -250 84q-97 -70 -264.5 -107t-338.5 -37q-273 0 -409 79.5t-136 251.5q0 83 36 200h69q-18 -86 -18 -153q0 -148 113 -204t361 -56q155 0 301.5 29.5t232.5 77.5q22 130 27 304l84 -2q-2 -175 -19 -296q65 -57 219 -57z" />
    <glyph glyph-name="uniFB68" unicode="&#x679;" horiz-adv-x="440" arabic-form="initial" 
d="M278 1166q60 0 95 -38.5t35 -96.5q0 -41 -18 -86q-71 -37 -218 -37q-129 0 -207 29l-14 69q56 -9 115 -14q11 22 29 49l-18 280l75 4l1 -139q0 -44 -5 -81h2q58 61 128 61zM113 990q44 -2 68 -2q116 0 184 16q-3 41 -30 66t-71 25q-83 0 -151 -105zM194 563l107 8
q22 -171 22 -324q0 -118 -17 -209q-92 -50 -279 -50q-14 0 -16.5 8t-2.5 50q0 41 3.5 48.5t23.5 7.5q126 0 203 20v38q0 162 -44 403z" />
    <glyph glyph-name="uniFB69" unicode="&#x679;" horiz-adv-x="496" arabic-form="medial" 
d="M1 893q56 -9 115 -14q11 22 29 49l-18 280l75 4l1 -139q0 -44 -5 -81h2q58 61 128 61q60 0 95 -38.5t35 -96.5q0 -41 -18 -86q-71 -37 -218 -37q-129 0 -207 29zM314 982q-83 0 -151 -105q44 -2 68 -2q116 0 184 16q-3 41 -30 66t-71 25zM531 102q13 0 15.5 -8t2.5 -50
q0 -41 -3.5 -48.5t-22.5 -7.5q-196 0 -258 91q-71 -91 -238 -91q-14 0 -16.5 8t-2.5 50q0 41 3.5 48.5t23.5 7.5q114 0 170 54q19 115 27 299l86 -3q0 -179 -17 -286q63 -64 230 -64z" />
    <glyph glyph-name="uniFB6B" unicode="&#x6a4;" horiz-adv-x="1657" arabic-form="final" 
d="M1234 1123q-45 41 -89 91q36 42 78 78q44 -37 90 -90q-42 -47 -79 -79zM1362 943q-40 37 -91 92q43 48 80 81q47 -40 92 -93q-46 -50 -81 -80zM1131 940q-48 44 -92 92q43 48 80 81q46 -40 94 -93q-36 -38 -82 -80zM1692 102q13 0 15.5 -8t2.5 -50q0 -41 -3.5 -48.5
t-23.5 -7.5q-252 0 -426 98q-263 -158 -645 -158q-266 0 -400.5 80t-134.5 250q0 84 36 201h69q-18 -86 -18 -151q0 -147 111.5 -204.5t349.5 -57.5q286 0 516 95v2q-168 97 -168 253q0 78 39.5 153.5t108 123.5t145.5 48q102 0 177 -81.5t75 -200.5q0 -78 -37 -154
t-113 -131v-2q158 -50 324 -50zM1056 423q0 -135 209 -233q168 86 168 210q0 89 -60.5 153t-137.5 64q-72 0 -125.5 -59.5t-53.5 -134.5z" />
    <glyph glyph-name="uniFB6C" unicode="&#x6a4;" horiz-adv-x="786" arabic-form="initial" 
d="M373 1215q-45 41 -89 91q36 42 78 78q44 -37 90 -90q-42 -47 -79 -79zM501 1035q-40 37 -91 92q43 48 80 81q47 -40 92 -93q-46 -50 -81 -80zM270 1032q-48 44 -92 92q43 48 80 81q46 -40 94 -93q-36 -38 -82 -80zM408 810q129 0 198 -117t69 -304q0 -186 -46 -332
q-228 -69 -602 -69q-14 0 -16.5 8t-2.5 50q0 41 3.5 48.5t23.5 7.5q334 0 545 43q13 68 16 147q-74 -26 -167 -26q-127 0 -201.5 53t-74.5 169q0 77 27 148.5t87.5 122.5t140.5 51zM227 519q0 -84 59.5 -116t167.5 -32q75 0 144 13q-5 138 -59 228.5t-150 90.5
q-54 0 -92 -30t-54 -70.5t-16 -83.5z" />
    <glyph glyph-name="uniFB6D" unicode="&#x6a4;" horiz-adv-x="866" arabic-form="medial" 
d="M443 1123q-45 41 -89 91q36 42 78 78q44 -37 90 -90q-42 -47 -79 -79zM571 943q-40 37 -91 92q43 48 80 81q47 -40 92 -93q-46 -50 -81 -80zM340 940q-48 44 -92 92q43 48 80 81q46 -40 94 -93q-36 -38 -82 -80zM901 102q14 0 16.5 -8t2.5 -50q0 -41 -3.5 -48.5
t-23.5 -7.5q-259 0 -435 103q-89 -46 -208.5 -74.5t-222.5 -28.5q-14 0 -16.5 8t-2.5 50q0 41 3.5 48.5t23.5 7.5q162 0 308 43v2q-160 96 -160 249q0 79 39.5 154t108 123t146.5 48q102 0 176 -81.5t74 -200.5q0 -80 -38 -154.5t-116 -128.5v-3q166 -51 328 -51zM266 423
q0 -134 204 -231q171 78 171 209q0 89 -59.5 152.5t-136.5 63.5q-73 0 -126 -59.5t-53 -134.5z" />
    <glyph glyph-name="uniFB7B" unicode="&#x686;" horiz-adv-x="1046" arabic-form="final" 
d="M1080 102q14 0 16.5 -8t2.5 -50q0 -41 -3.5 -48.5t-23.5 -7.5q-238 0 -340.5 50.5t-109.5 186.5q-97 -14 -183 -44t-158 -76t-114 -114t-42 -149q0 -133 114.5 -215t337.5 -82q184 0 332 55l1 -83q-151 -86 -375 -86q-234 0 -365 110t-131 284q0 200 170 336t442 162v4
q-56 24 -115 57q-81 44 -137 65t-113 21q-96 0 -191 -63v89q78 85 191 85q69 0 143 -30t195 -98q84 -50 147.5 -74t135.5 -27l-7 -113h-98q-52 0 -107 -5q18 -78 104 -105t281 -27zM709 -86q-51 -55 -78 -79q-51 44 -92 91q28 28 80 78q61 -59 90 -90zM394 1q32 -30 89 -90
q-51 -55 -78 -79q-47 38 -90 91q38 42 79 78zM529 -340q-44 38 -87 88q44 50 77 77q46 -41 86 -89q-34 -40 -76 -76z" />
    <glyph glyph-name="uniFB7C" unicode="&#x686;" horiz-adv-x="1041" arabic-form="initial" 
d="M664 462q91 -53 156.5 -78.5t138.5 -25.5l-7 -109q-104 -1 -198 -29.5t-220 -92.5q-143 -71 -260.5 -105t-246.5 -34q-14 0 -16.5 8t-2.5 50q0 41 3.5 48.5t23.5 7.5q117 0 216.5 28t227.5 87q156 72 249 97v3q-71 31 -146 73q-165 91 -260 91q-105 0 -197 -62v88
q82 85 197 85q69 0 145.5 -31t196.5 -99zM582 -160q48 -44 92 -92q-43 -48 -80 -81q-46 40 -94 93q36 38 82 80zM351 -163q40 -37 91 -92q-43 -48 -80 -81q-47 40 -92 93q46 50 81 80zM479 -343q45 -41 89 -91q-36 -42 -78 -78q-44 37 -90 90q42 47 79 79z" />
    <glyph glyph-name="uniFB7D" unicode="&#x686;" horiz-adv-x="1091" arabic-form="medial" 
d="M1125 102q14 0 16.5 -8t2.5 -50q0 -41 -3.5 -48.5t-23.5 -7.5q-226 0 -328 44t-118 163q-68 -29 -139 -66q-141 -72 -258.5 -106.5t-246.5 -34.5q-14 0 -16.5 8t-2.5 50q0 41 3.5 48.5t23.5 7.5q117 0 219 29.5t234 92.5q153 72 248 99v3q-66 28 -149 69q-89 44 -149 65
t-116 21q-105 0 -197 -62v88q82 85 197 85q69 0 145 -28.5t197 -92.5q93 -50 158 -73.5t137 -23.5l-7 -110q-108 -3 -207 -39q22 -73 108 -98t272 -25zM586 -135q48 -44 92 -92q-43 -48 -80 -81q-46 40 -94 93q36 38 82 80zM355 -138q40 -37 91 -92q-43 -48 -80 -81
q-47 40 -92 93q46 50 81 80zM483 -318q45 -41 89 -91q-36 -42 -78 -78q-44 37 -90 90q42 47 79 79z" />
    <glyph glyph-name="uniFB89" unicode="&#x688;" horiz-adv-x="882" arabic-form="final" 
d="M134 1126q56 -9 115 -14q11 22 29 49l-18 280l75 4l1 -139q0 -44 -5 -81h2q58 61 128 61q60 0 95 -38.5t35 -96.5q0 -41 -18 -86q-71 -37 -218 -37q-129 0 -207 29zM447 1215q-83 0 -151 -105q44 -2 68 -2q116 0 184 16q-3 41 -30 66t-71 25zM916 102q14 0 16.5 -8
t2.5 -50q0 -41 -3.5 -48.5t-23.5 -7.5q-113 0 -170.5 29t-95.5 97q-59 -64 -149.5 -93.5t-188.5 -29.5q-173 0 -256 88l13 99q106 -74 264 -74q186 0 283 82q-102 238 -190 500l91 46q83 -280 163 -467q17 -40 29.5 -63t31 -45t42 -32.5t58 -16.5t83.5 -6z" />
    <glyph glyph-name="uniFB8B" unicode="&#x698;" horiz-adv-x="628" arabic-form="final" 
d="M272 878q-45 41 -89 91q36 42 78 78q44 -37 90 -90q-42 -47 -79 -79zM400 698q-40 37 -91 92q43 48 80 81q47 -40 92 -93q-46 -50 -81 -80zM169 695q-48 44 -92 92q43 48 80 81q46 -40 94 -93q-36 -38 -82 -80zM663 102q13 0 15.5 -8t2.5 -50q0 -41 -3.5 -48.5
t-23.5 -7.5q-142 0 -204 71q-51 -300 -410 -463l-71 92q213 93 311 199.5t98 232.5t-82 357l106 16q54 -180 57 -318q58 -71 204 -73z" />
    <glyph glyph-name="uniFB8D" unicode="&#x691;" horiz-adv-x="628" arabic-form="final" 
d="M15 912q56 -9 115 -14q11 22 29 49l-18 280l75 4l1 -139q0 -44 -5 -81h2q58 61 128 61q60 0 95 -38.5t35 -96.5q0 -41 -18 -86q-71 -37 -218 -37q-129 0 -207 29zM328 1001q-83 0 -151 -105q44 -2 68 -2q116 0 184 16q-3 41 -30 66t-71 25zM663 102q13 0 15.5 -8t2.5 -50
q0 -41 -3.5 -48.5t-23.5 -7.5q-142 0 -204 71q-51 -300 -410 -463l-71 92q213 93 311 199.5t98 232.5t-82 357l106 16q54 -180 57 -318q58 -71 204 -73z" />
    <glyph glyph-name="uniFB8F" unicode="&#x6a9;" horiz-adv-x="1466" arabic-form="final" 
d="M1501 102q14 0 16.5 -8t2.5 -50q0 -41 -3.5 -48.5t-23.5 -7.5q-111 0 -187 33.5t-140 109.5q-57 -97 -209 -150t-330 -53q-279 0 -417.5 79.5t-138.5 252.5q0 85 37 199h68q-18 -86 -18 -153q0 -148 116 -204t369 -56q152 0 286 40.5t187 112.5q-14 21 -38 61
q-95 162 -182 276t-193 204v93l689 325l-1 -107l-595 -263v-2q103 -94 184.5 -205t167.5 -259q49 -86 94.5 -131.5t106.5 -67t152 -21.5z" />
    <glyph glyph-name="uniFB90" unicode="&#x6a9;" horiz-adv-x="763" arabic-form="initial" 
d="M701 1051l-569 -249v-3q198 -77 333.5 -244.5t135.5 -355.5q0 -73 -22 -139q-219 -72 -551 -72q-14 0 -16.5 8t-2.5 50q0 41 3.5 48.5t23.5 7.5q304 0 490 44q0 130 -74 254t-190 211.5t-248 128.5v93l687 325v-107z" />
    <glyph glyph-name="uniFB91" unicode="&#x6a9;" horiz-adv-x="783" arabic-form="medial" 
d="M818 102q14 0 16.5 -8t2.5 -50q0 -41 -3.5 -48.5t-23.5 -7.5q-127 0 -209.5 42.5t-148.5 136.5q-50 -103 -151.5 -141t-273.5 -38q-14 0 -16.5 8t-2.5 50q0 41 3.5 48.5t23.5 7.5q145 0 237 28.5t135 108.5q-102 176 -190.5 293t-194.5 208v93l686 325l-1 -107l-593 -261
v-4q190 -174 362 -483q64 -113 136.5 -157t205.5 -44z" />
    <glyph glyph-name="uniFB93" unicode="&#x6af;" horiz-adv-x="1470" arabic-form="final" 
d="M1328 1246v-88l-589 -278v77zM1505 102q14 0 16.5 -8t2.5 -50q0 -41 -3.5 -48.5t-23.5 -7.5q-112 0 -185 34.5t-138 112.5q-56 -99 -208.5 -153t-332.5 -54q-279 0 -417.5 79.5t-138.5 252.5q0 85 37 199h68q-18 -86 -18 -153q0 -148 116 -204t369 -56q153 0 287.5 41
t186.5 114l-32 48q-178 274 -382 404v92l686 323l-1 -105l-589 -260v-2q101 -70 181 -161t168 -219q46 -65 77.5 -101.5t72.5 -66t88 -40.5t113 -11z" />
    <glyph glyph-name="uniFB94" unicode="&#x6af;" horiz-adv-x="765" arabic-form="initial" 
d="M637 1246v-88l-591 -278v77zM702 963l-566 -247v-3q92 -31 173.5 -80.5t147 -115.5t103.5 -150.5t38 -176.5q0 -69 -17 -129q-218 -73 -553 -73q-14 0 -16.5 8t-2.5 50q0 41 3.5 48.5t23.5 7.5q307 0 487 44q-3 92 -46.5 176.5t-115 148t-159.5 110t-186 72.5v92l686 323
v-105z" />
    <glyph glyph-name="uniFB95" unicode="&#x6af;" horiz-adv-x="783" arabic-form="medial" 
d="M641 1247v-89l-590 -278v77zM818 102q14 0 16.5 -8t2.5 -50q0 -41 -3.5 -48.5t-23.5 -7.5q-127 0 -205 44t-150 142q-49 -107 -151 -146.5t-277 -39.5q-14 0 -16.5 8t-2.5 50q0 41 3.5 48.5t23.5 7.5q146 0 238.5 29t135.5 110q-187 283 -387 412v92l686 323l-1 -105
l-590 -260v-2q101 -70 180 -160t168 -220q45 -66 76 -102t72 -65.5t89 -40.5t116 -11z" />
    <glyph glyph-name="uniFB9F" unicode="&#x6ba;" horiz-adv-x="1027" arabic-form="final" 
d="M1062 102q13 0 15.5 -8t2.5 -50q0 -41 -3.5 -48.5t-22.5 -7.5q-119 0 -180 52q2 -40 2 -56q0 -112 -40 -169q-51 -74 -163 -120.5t-237 -46.5q-172 0 -268.5 92.5t-96.5 262.5q0 126 50 268h72q-33 -132 -33 -217q0 -288 288 -288q112 0 209 37.5t146 100.5
q-2 170 -100 538l108 15q35 -156 52 -286q65 -69 199 -69z" />
    <glyph glyph-name="uniFBA7" unicode="&#x6c1;" horiz-adv-x="844" arabic-form="final" 
d="M870 -12q-48 0 -84 4.5t-66 19t-50 28.5t-43 45t-38 56t-42 74q-16 31 -24.5 44.5t-21.5 29t-27 21t-33 5.5q-53 0 -145 -44.5t-253 -146.5l6 92q150 108 249 161.5t163 53.5q44 0 71 -28t68 -102q29 -53 46.5 -81t41 -55t48.5 -38t59 -18t84 -7q13 0 15.5 -8t2.5 -50
q0 -41 -3.5 -48.5t-23.5 -7.5z" />
    </font>
</defs>
</svg>
