<svg xmlns="http://www.w3.org/2000/svg" width="28" height="29" viewBox="0 0 28 29"><g transform="translate(0 0)"><rect width="28" height="28.63" rx="3" transform="translate(0 0)"/><path d="M103.944,45.578V56.052a.277.277,0,0,0,.277.277h3.888a.277.277,0,0,0,.277-.277h0V45.4h2.82a.269.269,0,0,0,.271-.246l.275-3.21a.276.276,0,0,0-.256-.3h-3.11V39.377a.962.962,0,0,1,.963-.965h2.174a.277.277,0,0,0,.277-.277h0v-3.2a.277.277,0,0,0-.277-.277h-3.67a3.9,3.9,0,0,0-3.9,3.9V41.65h-1.945a.276.276,0,0,0-.277.275h0v3.21a.276.276,0,0,0,.277.271h1.945Z" transform="translate(-92.926 -27.329)" fill="#fff" fill-rule="evenodd"/></g></svg>