<svg xmlns="http://www.w3.org/2000/svg" width="554.587" height="376.922" viewBox="0 0 554.587 376.922"><g transform="translate(-459.338 -91.955)"><path d="M462.474,126.134a142.215,142.215,0,1,1,0,284.43" transform="translate(-3.136 -8.153)" fill="none" stroke="#070708" stroke-miterlimit="10" stroke-width="1" stroke-dasharray="2 2"/><path d="M777.592,120.173a142.215,142.215,0,0,0,0,284.431" transform="translate(-22.137 -7.498)" fill="none" stroke="#070708" stroke-miterlimit="10" stroke-width="1" stroke-dasharray="2 2"/><path d="M748.886,125.838a142.215,142.215,0,1,1,0,284.431" transform="translate(-34.611 -8.12)" fill="none" stroke="#070708" stroke-miterlimit="10" stroke-width="1" stroke-dasharray="2 2"/><path d="M1067.973,146.107a142.215,142.215,0,0,0,0,284.431" transform="translate(-54.048 -10.348)" fill="none" stroke="#070708" stroke-miterlimit="10" stroke-width="1" stroke-dasharray="2 2"/><path d="M805.06,259.859c-101.389-28.7-204.075-110.78-230.373-162.71" transform="translate(-15.467 -4.968)" fill="none" stroke="#070708" stroke-miterlimit="10" stroke-width="1" stroke-dasharray="2 2"/><path d="M674.3,264.9C802.665,243.271,930.942,139.682,918.232,97.147" transform="translate(-26.414 -4.967)" fill="none" stroke="#070708" stroke-miterlimit="10" stroke-width="1" stroke-dasharray="2 2"/><path d="M682.482,310c125.256,35.456,264.2,146.14,246.942,187.041" transform="translate(-27.313 -28.359)" fill="none" stroke="#070708" stroke-miterlimit="10" stroke-width="1" stroke-dasharray="2 2"/><path d="M812.282,319.456C684.42,343.9,596.822,441.127,572.095,480.394" transform="translate(-15.182 -29.398)" fill="none" stroke="#070708" stroke-miterlimit="10" stroke-width="1" stroke-dasharray="2 2"/></g></svg>