<svg xmlns="http://www.w3.org/2000/svg" width="28" height="28" viewBox="0 0 28 28"><rect width="28" height="28" rx="3"/><path d="M114,55.684c.009.141.009.285.009.428a9.139,9.139,0,0,1-8.874,9.381h-.121a8.71,8.71,0,0,1-4.856-1.475,6.35,6.35,0,0,0,.762.04,6.17,6.17,0,0,0,3.923-1.408,3.184,3.184,0,0,1-2.956-2.287,3.274,3.274,0,0,0,1.427-.059,3.266,3.266,0,0,1-2.531-3.238v-.048a3.046,3.046,0,0,0,1.427.418,3.333,3.333,0,0,1-1.409-2.743,3.391,3.391,0,0,1,.429-1.664,8.867,8.867,0,0,0,6.52,3.448,3.311,3.311,0,0,1,2.367-3.966,3.086,3.086,0,0,1,3.027.955,6.067,6.067,0,0,0,2.006-.795,3.279,3.279,0,0,1-1.387,1.817,6.084,6.084,0,0,0,1.821-.512A6.836,6.836,0,0,1,114,55.684Z" transform="translate(-93.868 -44.959)" fill="#fff"/></svg>